<svg xmlns="http://www.w3.org/2000/svg" xmlns:xlink="http://www.w3.org/1999/xlink" width="743" zoomAndPan="magnify" viewBox="0 0 557.25 474.749981" height="633" preserveAspectRatio="xMidYMid meet" version="1.0"><defs><clipPath id="80111a5566"><path d="M 73.898438 27 L 492 27 L 492 458.269531 L 73.898438 458.269531 Z M 73.898438 27 " clip-rule="nonzero"/></clipPath></defs><g clip-path="url(#80111a5566)"><path fill="#000000" d="M 313.601562 202.152344 L 349.75 202.152344 C 353.371094 202.152344 356.289062 199.222656 356.289062 195.621094 C 356.289062 192.015625 353.371094 189.09375 349.75 189.09375 L 313.601562 189.09375 C 309.992188 189.09375 307.0625 192.015625 307.0625 195.621094 C 307.0625 199.222656 309.992188 202.152344 313.601562 202.152344 Z M 473.039062 304.941406 C 466.925781 298.53125 456.714844 302.144531 449.21875 306.304688 C 400.800781 333.191406 365.449219 349.992188 337.953125 359.167969 C 330.527344 361.648438 322.660156 363.277344 314.53125 364.03125 C 308.773438 375.3125 295.703125 380.820312 283.679688 377.1875 L 230.804688 361.277344 C 225.742188 359.738281 221.078125 359.898438 216.128906 361.753906 C 212.738281 363.015625 208.984375 361.296875 207.710938 357.917969 C 206.441406 354.546875 208.164062 350.78125 211.542969 349.515625 C 219.207031 346.65625 226.746094 346.402344 234.578125 348.761719 L 287.453125 364.6875 C 294.363281 366.765625 301.671875 362.847656 303.757812 355.941406 C 305.832031 349.046875 301.910156 341.742188 295.007812 339.660156 L 230.796875 320.324219 C 214.539062 315.429688 202.207031 321.613281 187.914062 328.769531 C 180.148438 332.660156 172.105469 336.6875 162.890625 339.199219 C 155.179688 341.296875 147.363281 343.175781 139.691406 344.984375 L 139.691406 423.597656 C 170.265625 423.3125 198.070312 423.597656 225.195312 427.5 C 245.855469 430.476562 267.359375 438.1875 287.308594 436.5625 C 311.410156 434.605469 337.261719 419.742188 361.605469 403.96875 C 378.542969 393.003906 466.667969 333.96875 477.304688 323.226562 C 478.5625 320.953125 478.609375 310.789062 473.039062 304.941406 Z M 126.621094 335.699219 C 126.621094 333.53125 124.785156 331.703125 122.617188 331.703125 L 90.992188 331.703125 C 88.824219 331.703125 86.988281 333.53125 86.988281 335.699219 L 86.988281 440.992188 C 86.988281 443.164062 88.824219 445.003906 90.992188 445.003906 L 122.617188 445.003906 C 124.785156 445.003906 126.621094 443.164062 126.621094 440.992188 Z M 486.828125 332.167969 C 474.546875 344.882812 377.347656 409.332031 368.714844 414.925781 C 341.121094 432.800781 311.359375 449.847656 281.613281 449.847656 C 261.449219 449.847656 242.769531 443.226562 223.328125 440.429688 C 197.058594 436.648438 169.761719 436.367188 139.691406 436.660156 L 139.691406 440.988281 C 139.691406 450.40625 132.027344 458.058594 122.617188 458.058594 L 90.992188 458.058594 C 81.574219 458.058594 73.914062 450.40625 73.914062 440.988281 L 73.914062 335.699219 C 73.914062 326.292969 81.574219 318.640625 90.992188 318.640625 L 122.617188 318.640625 C 130.648438 318.640625 137.371094 324.214844 139.195312 331.675781 C 145.9375 330.085938 152.773438 328.417969 159.460938 326.597656 C 167.417969 324.433594 174.859375 320.703125 182.058594 317.09375 C 197.433594 309.386719 213.328125 301.417969 234.570312 307.824219 L 298.78125 327.160156 C 309.535156 330.398438 316.671875 339.972656 317.339844 350.578125 C 323.035156 349.808594 328.554688 348.53125 333.804688 346.773438 C 360.519531 337.855469 395.171875 321.371094 442.871094 294.890625 C 467.546875 281.191406 480.089844 292.558594 484.339844 298.078125 C 492.121094 308.1875 493.371094 325.390625 486.828125 332.167969 Z M 121.164062 248.070312 L 121.164062 72.898438 C 121.164062 67.664062 125.429688 63.398438 130.667969 63.398438 L 259.832031 63.398438 L 259.832031 70.300781 C 259.832031 85.535156 272.246094 97.941406 287.503906 97.941406 C 302.757812 97.941406 315.171875 85.535156 315.171875 70.300781 L 315.171875 63.398438 L 444.324219 63.398438 C 449.574219 63.398438 453.835938 67.664062 453.835938 72.898438 L 453.835938 248.070312 C 453.835938 253.316406 449.574219 257.574219 444.324219 257.574219 L 130.667969 257.574219 C 125.429688 257.574219 121.164062 253.316406 121.164062 248.070312 Z M 272.90625 70.300781 C 272.90625 78.339844 279.449219 84.875 287.503906 84.875 C 295.550781 84.875 302.09375 78.339844 302.09375 70.300781 L 302.09375 40.125 L 272.90625 40.125 Z M 108.089844 248.070312 L 108.089844 72.898438 C 108.089844 60.457031 118.226562 50.335938 130.667969 50.335938 L 259.828125 50.335938 L 259.828125 33.59375 C 259.828125 29.984375 262.757812 27.0625 266.367188 27.0625 L 308.632812 27.0625 C 312.238281 27.0625 315.167969 29.984375 315.167969 33.59375 L 315.167969 50.335938 L 444.324219 50.335938 C 456.785156 50.335938 466.910156 60.457031 466.910156 72.898438 L 466.910156 248.070312 C 466.910156 260.515625 456.785156 270.632812 444.324219 270.632812 L 130.667969 270.632812 C 118.226562 270.632812 108.089844 260.515625 108.089844 248.070312 Z M 159.464844 172.183594 C 159.464844 183.207031 163.984375 192.6875 172.183594 198.878906 L 173.535156 199.90625 L 173.535156 189.117188 C 173.535156 176.269531 180.519531 165.027344 190.894531 158.96875 C 178.726562 144.207031 189.269531 121.789062 208.464844 121.789062 C 227.707031 121.789062 238.210938 144.253906 226.039062 158.972656 C 236.402344 165.03125 243.394531 176.269531 243.410156 189.109375 L 243.425781 199.890625 L 244.761719 198.878906 C 252.960938 192.6875 257.480469 183.207031 257.480469 172.183594 L 257.480469 114.507812 C 239.804688 113.160156 222.761719 106.390625 208.476562 95.03125 C 194.195312 106.390625 177.152344 113.160156 159.464844 114.507812 Z M 208.464844 154.207031 C 213.820312 154.207031 218.171875 149.867188 218.171875 144.527344 C 218.171875 139.191406 213.820312 134.84375 208.464844 134.84375 C 203.125 134.84375 198.777344 139.191406 198.777344 144.527344 C 198.777344 149.867188 203.121094 154.207031 208.464844 154.207031 Z M 230.363281 209.761719 L 230.332031 189.128906 C 230.316406 177.078125 220.511719 167.273438 208.464844 167.273438 C 196.414062 167.273438 186.609375 177.078125 186.609375 189.117188 L 186.609375 209.789062 L 208.464844 226.316406 Z M 146.394531 172.183594 C 146.394531 187.394531 152.746094 200.578125 164.285156 209.300781 L 204.527344 239.707031 C 206.859375 241.472656 210.089844 241.464844 212.414062 239.707031 L 252.652344 209.300781 C 264.199219 200.578125 270.554688 187.394531 270.554688 172.183594 L 270.554688 108.222656 C 270.554688 104.621094 267.625 101.691406 264.015625 101.691406 C 245.402344 101.691406 227.242188 94.5625 212.855469 81.625 C 210.359375 79.386719 206.585938 79.386719 204.101562 81.625 C 189.710938 94.5625 171.539062 101.691406 152.929688 101.691406 C 149.324219 101.691406 146.394531 104.621094 146.394531 108.222656 Z M 313.601562 167.019531 L 407.84375 167.019531 C 411.464844 167.019531 414.382812 164.097656 414.382812 160.492188 C 414.382812 156.878906 411.464844 153.960938 407.84375 153.960938 L 313.601562 153.960938 C 309.992188 153.960938 307.0625 156.878906 307.0625 160.492188 C 307.0625 164.097656 309.992188 167.019531 313.601562 167.019531 Z M 307.0625 125.347656 C 307.0625 128.960938 309.992188 131.878906 313.601562 131.878906 L 407.84375 131.878906 C 411.464844 131.878906 414.382812 128.960938 414.382812 125.347656 C 414.382812 121.742188 411.460938 118.816406 407.84375 118.816406 L 313.601562 118.816406 C 309.992188 118.816406 307.0625 121.742188 307.0625 125.347656 Z M 307.0625 125.347656 " fill-opacity="1" fill-rule="evenodd"/></g></svg>