<?xml version="1.0" encoding="UTF-8" standalone="no"?>
<svg
   width="743"
   zoomAndPan="magnify"
   viewBox="0 0 557.25 474.749981"
   height="633"
   preserveAspectRatio="xMidYMid meet"
   version="1.0"
   id="svg2"
   sodipodi:docname="access-1.svg"
   inkscape:version="1.3.2 (091e20e, 2023-11-25, custom)"
   xmlns:inkscape="http://www.inkscape.org/namespaces/inkscape"
   xmlns:sodipodi="http://sodipodi.sourceforge.net/DTD/sodipodi-0.dtd"
   xmlns="http://www.w3.org/2000/svg"
   xmlns:svg="http://www.w3.org/2000/svg">
  <sodipodi:namedview
     id="namedview2"
     pagecolor="#505050"
     bordercolor="#ffffff"
     borderopacity="1"
     inkscape:showpageshadow="0"
     inkscape:pageopacity="0"
     inkscape:pagecheckerboard="1"
     inkscape:deskcolor="#505050"
     inkscape:zoom="0.61374408"
     inkscape:cx="448.88417"
     inkscape:cy="69.247104"
     inkscape:window-width="1920"
     inkscape:window-height="991"
     inkscape:window-x="-9"
     inkscape:window-y="-9"
     inkscape:window-maximized="1"
     inkscape:current-layer="svg2" />
  <defs
     id="defs1">
    <clipPath
       id="2b0cf7de67">
      <path
         d="M 47.410156 44.789062 L 505.792969 44.789062 L 505.792969 426.773438 L 47.410156 426.773438 Z M 47.410156 44.789062 "
         clip-rule="nonzero"
         id="path1" />
    </clipPath>
  </defs>
  <g
     clip-path="url(#2b0cf7de67)"
     id="g2"
     transform="matrix(1.2088262,0,0,1.2088262,-55.114775,-46.42179)"
     style="fill:#f49f1c;fill-opacity:1">
    <path
       fill="#000000"
       d="m 289.88672,111.11328 c 1.36719,3.30078 2.5,6.6875 3.39062,10.12891 H 145.33203 c 0.89063,-3.44141 2.02344,-6.82813 3.39063,-10.12891 3.83984,-9.26562 9.46484,-17.683592 16.5625,-24.773436 C 172.37891,79.25 180.80078,73.625 190.07031,69.789062 c 3.30078,-1.371093 6.69141,-2.5 10.13672,-3.390624 v 16.667968 h 38.19531 V 66.398438 c 3.44922,0.890624 6.83594,2.019531 10.13672,3.390624 9.26953,3.835938 17.69141,9.460938 24.78516,16.550782 7.09765,7.089844 12.72265,15.507816 16.5625,24.773436 z m 17.64453,-7.30469 c 2.33984,5.64063 4.125,11.48047 5.33984,17.4336 1.28125,6.26953 1.92969,12.66406 1.92969,19.08984 h -19.09766 v 19.08984 c 0,42.17188 -34.20703,76.35938 -76.39843,76.35938 -42.19141,0 -76.39844,-34.1875 -76.39844,-76.35938 v -19.08984 h -19.09766 c 0,-6.42578 0.64844,-12.82031 1.92969,-19.08984 1.21485,-5.95313 3,-11.79297 5.33984,-17.4336 4.80079,-11.582028 11.83204,-22.101559 20.69922,-30.96484 8.8711,-8.863281 19.39844,-15.894531 30.98438,-20.691406 11.58594,-4.796875 24.0039,-7.265625 36.54297,-7.265625 12.53906,0 24.96093,2.46875 36.54297,7.265625 11.58593,4.796875 22.11328,11.828125 30.98437,20.691406 8.86719,8.863281 15.90234,19.382812 20.69922,30.96484 z m -145.52344,36.52344 v 19.08984 c 0,31.62891 25.65235,57.26954 57.29688,57.26954 31.64453,0 57.29687,-25.64063 57.29687,-57.26954 v -19.08984 z m 305.58594,114.53906 h -56.50391 v 19.08985 h -76.39843 v -19.08985 h -58.08985 c -10.54687,0 -19.09765,8.54688 -19.09765,19.08985 v 114.53515 c 0,10.54297 8.55078,19.08985 19.09765,19.08985 h 190.99219 c 10.55078,0 19.10156,-8.54688 19.10156,-19.08985 V 273.96094 c 0,-10.54297 -8.55078,-19.08985 -19.10156,-19.08985 z m 0,-19.08984 H 276.60156 c -14.77734,0 -27.59375,8.38672 -33.94922,20.66016 -7.63281,-1.03516 -15.42968,-1.57032 -23.34765,-1.57032 -94.9336,0 -171.894534,76.92188 -171.894534,171.80469 H 467.59375 c 21.09766,0 38.19922,-17.09375 38.19922,-38.17969 V 273.96094 c 0,-21.08594 -17.10156,-38.17969 -38.19922,-38.17969 z m -248.28906,38.17969 c 6.46875,0 12.84375,0.40234 19.09765,1.17968 v 14.72657 l -19.49218,25.98047 -32.04688,-38.4375 c 10.45703,-2.25782 21.30859,-3.44922 32.44141,-3.44922 z m 0.39453,72.64843 18.70312,-24.92578 v 66.8125 c 0,6.95703 1.86328,13.47266 5.11328,19.08985 H 67.691406 C 74.867188,350.07812 114.03516,302.5 166.83203,283.20312 Z m 114.20312,-24.92578 c 0,5.26953 -4.27734,9.54688 -9.55078,9.54688 -5.27344,0 -9.55078,-4.27735 -9.55078,-9.54688 0,-5.26953 4.27734,-9.54297 9.55078,-9.54297 5.27344,0 9.55078,4.27344 9.55078,9.54297 z m 19.09766,0 c 0,15.8125 -12.82813,28.63282 -28.64844,28.63282 -15.82422,0 -28.64844,-12.82032 -28.64844,-28.63282 0,-15.8125 12.82422,-28.63281 28.64844,-28.63281 15.82031,0 28.64844,12.82031 28.64844,28.63281 z m 115.38672,-9.54297 h -76.39844 v 19.08985 h 76.39844 z m -76.39844,38.17579 h 76.39844 v 19.08984 h -76.39844 z m -67.80469,19.08984 c 12.47657,0 23.08985,7.96875 27.01953,19.08984 h 19.77344 c -4.42187,-21.78125 -23.6914,-38.17968 -46.79297,-38.17968 -23.09765,0 -42.36718,16.39843 -46.78906,38.17968 h 19.77344 c 3.92969,-11.12109 14.54297,-19.08984 27.01562,-19.08984 z m 0,0"
       fill-opacity="1"
       fill-rule="evenodd"
       id="path2"
       style="fill:#f49f1c;fill-opacity:1" />
  </g>
</svg>
