<?xml version="1.0" encoding="UTF-8" standalone="no"?>
<svg
   fill="#000000"
   width="256"
   height="256"
   viewBox="-8 0 32 32"
   version="1.1"
   stroke="#000000"
   stroke-width="0.00032"
   id="svg1"
   sodipodi:docname="access-in.svg"
   inkscape:version="1.3.2 (091e20e, 2023-11-25, custom)"
   xml:space="preserve"
   xmlns:inkscape="http://www.inkscape.org/namespaces/inkscape"
   xmlns:sodipodi="http://sodipodi.sourceforge.net/DTD/sodipodi-0.dtd"
   xmlns="http://www.w3.org/2000/svg"
   xmlns:svg="http://www.w3.org/2000/svg"><defs
     id="defs1"><clipPath
       clipPathUnits="userSpaceOnUse"
       id="clipPath74"><path
         id="path75"
         style="fill:#ff0000;fill-opacity:1;fill-rule:nonzero;stroke:none;stroke-width:6.50486e-05"
         d="M 18.75256,18.920133 V 36.920458 H -1.2340817 v -7.102382 c 0.2285015,0.07579 0.48645171,0.0034 0.67732463,-0.223525 0.20459816,0.06595 0.41457097,0.112544 0.62571059,0.148488 0.01583527,0.20892 0.03198358,0.41776 0.04963005,0.626505 0.19267394,2.279419 2.12552593,2.515277 2.66443533,0.976683 0.7731432,1.246794 2.3062126,0.867358 2.4186776,-0.798419 0.2334553,1.183614 1.0269179,1.655721 1.7004575,1.452318 0.087311,0.09969 0.1776988,0.196955 0.2747415,0.288639 0.2191364,0.184853 0.2840695,0.262308 0.538366,0.391068 0.061041,0.03091 0.1238186,0.05542 0.1869989,0.07861 -1.0453536,2.297266 1.3388607,3.464285 2.5866186,1.085468 0.131486,-0.250675 0.258483,-0.503769 0.36844,-0.764671 0.661906,0.550842 1.810961,0.236027 2.334904,-1.326461 0.01509,-0.04498 0.03018,-0.09001 0.04526,-0.13499 0.03712,-0.11392 0.07276,-0.228261 0.107197,-0.343029 0.162523,-0.11809 0.32539,-0.235745 0.485959,-0.356528 0.135999,-0.10983 0.201936,-0.157769 0.329134,-0.285063 0.206039,-0.206214 0.370432,-0.451395 0.489929,-0.716632 0.0279,-0.07557 0.05972,-0.149813 0.08377,-0.226701 0.147461,-0.471344 0.160728,-0.97221 0.07821,-1.456686 -0.02895,-0.11626 -0.05221,-0.234311 -0.08695,-0.348984 -0.0288,-0.09509 -0.06734,-0.187024 -0.103623,-0.279505 -0.151903,-0.387176 -0.330156,-0.764222 -0.524073,-1.131919 -0.05339,-0.08955 -0.10357,-0.180977 -0.160399,-0.268391 -0.228078,-0.350815 -0.518684,-0.656911 -0.837326,-0.926257 -0.01007,-0.0081 -0.02047,-0.01575 -0.03057,-0.02382 -0.105793,-0.217126 -0.219735,-0.430418 -0.339457,-0.640401 -0.05945,-0.101997 -0.0764,-0.131023 -0.106403,-0.182633 0.07737,-0.190214 0.06216,-0.379875 -0.03057,-0.532014 -0.01129,-0.879471 -0.638221,-1.183679 -1.364178,-1.18909 -0.04288,-4.07e-4 -0.08678,0.0035 -0.130224,0.0052 0.102759,-0.06262 0.205024,-0.126147 0.309282,-0.186204 0.195177,-0.112434 0.14013,-0.293944 -0.01628,-0.283874 -0.03609,0.0023 -0.07764,0.01494 -0.12268,0.04089 -0.279031,0.160727 -0.551843,0.332229 -0.815887,0.51653 -0.07889,0.01815 -0.156002,0.0391 -0.23226,0.06154 -0.113113,-0.02848 -0.2273008,-0.05384 -0.342236,-0.07583 -0.010101,-0.01049 -0.020133,-0.02134 -0.030174,-0.03176 -0.059748,-0.06209 -0.1177239,-0.126495 -0.1830286,-0.182632 -0.067239,-0.05781 -0.1423292,-0.105263 -0.2135995,-0.158016 -0.036819,0.01588 -0.07693,0.02615 -0.1155342,0.03931 -0.1110492,-0.01703 -0.1787902,0.07764 -0.1258571,0.185411 -0.02641,-0.03504 -0.052835,-0.07055 -0.071862,-0.04526 -0.027172,0.03611 -0.047227,0.06779 -0.062333,0.09608 -0.2548377,0.04815 -0.1082114,0.125975 -4.066e-4,0.213601 0.069952,0.05503 0.1260514,0.09781 0.1854107,0.14412 -0.056164,-0.01939 -0.1116946,-0.0404 -0.1679417,-0.05955 -0.049348,-0.02555 -0.1002157,-0.04894 -0.1488844,-0.07543 -0.010944,0.0049 -0.023055,0.0079 -0.034541,0.01191 -0.067116,-0.02306 -0.134304,-0.04603 -0.2012917,-0.06948 -0.3218251,-0.620794 -0.727422,-0.942988 -1.1152436,-0.918322 -0.3387572,0.02155 -0.6634103,0.309048 -0.9068055,0.891721 -0.063519,0.07438 -0.1084795,0.158092 -0.1405468,0.244963 -0.119313,-0.04287 -0.2421469,-0.06551 -0.3652644,-0.06551 -0.7000896,0 -1.4003072,0.693109 -1.4003072,2.079219 0,0.105104 -8.132e-4,0.09685 0.00992,0.257273 0.023537,0.352172 0.055826,0.704054 0.088934,1.05569 -0.095477,0.06908 -0.1969509,0.153332 -0.2934017,0.233452 -0.065778,-0.328351 -0.1290503,-0.657174 -0.1814409,-0.9878 -0.025426,-0.160458 -0.044745,-0.32187 -0.067096,-0.482782 -0.012542,-0.12637 -0.028026,-0.252541 -0.037718,-0.379159 -0.015266,-0.199524 -0.011404,-0.283914 -0.00833,-0.477623 6.098e-4,-0.04244 0.00209,-0.08502 0.00278,-0.127444 1.647e-4,-0.01035 0.00516,-0.03975 -4.065e-4,-0.03097 -0.00732,0.01142 -0.00364,0.027 -0.00555,0.0405 -0.3131094,2.186818 -1.7320002,-1.116858 -2.4194724,-1.151771 -0.1752348,-0.0089 -0.3032017,0.194634 -0.3529537,0.75554 -0.032067,0.361487 -0.038204,0.732337 -0.014697,1.094201 0.011465,0.176477 0.031406,0.352299 0.047246,0.52844 -0.4314125,-0.612272 -0.85855612,-1.420314 -1.15295997,-1.394749 -0.14180595,0.01232 -0.25299433,0.218492 -0.31881131,0.734099 -0.0138025,0.108115 -0.03158313,0.215803 -0.04129163,0.324369 -0.01138351,0.127447 -0.02290524,0.579996 -0.02540961,0.680106 -6.0983e-4,0.02778 -0.00101639,0.05559 -0.00162622,0.08338 -0.01113957,-0.0014 -0.02170794,-0.0065 -0.03295321,-0.0072 -0.27569222,-0.01693 -0.57653995,0.209729 -0.75950946,0.725762 -0.11401597,-0.35965 -0.16291422,-0.796142 -0.28744569,-0.800006 -0.042883,-0.0014 -0.094888,0.05001 -0.1615889,0.172309 V 18.920129 Z M 8.560131,30.647462 c 0.00414,0.005 0.00776,0.01045 0.01191,0.01549 0.036324,0.04383 0.076699,0.08393 0.1155342,0.125461 -0.03843,0.139319 -0.079504,0.277958 -0.1234748,0.415684 -0.065312,-0.03951 -0.1308678,-0.07883 -0.1945423,-0.120299 -0.024627,-0.01604 -0.040066,-0.02799 -0.063127,-0.04328 0.095044,-0.110626 0.1806345,-0.241485 0.2536991,-0.393055 z" /></clipPath><clipPath
       clipPathUnits="userSpaceOnUse"
       id="clipPath93"><path
         id="path94"
         style="fill:#ff0000;fill-opacity:1;fill-rule:nonzero;stroke:none;stroke-width:6.50486e-05"
         d="m 20.220852,1.7920067 c -0.157062,0.1663073 -0.309646,0.3368308 -0.453005,0.5149416 -0.04575,0.056835 -0.08953,0.1150169 -0.134195,0.1727058 -0.222473,0.3037432 -0.395321,0.6397465 -0.541145,0.9858136 -0.06736,0.1758302 -0.03597,0.092801 -0.09449,0.2501257 -0.530932,1.4273461 0.471183,2.1614726 1.264922,1.5567357 -0.0026,0.015648 -0.0058,0.031192 -0.0083,0.046849 -0.08174,0.470053 -0.112879,0.9458674 -0.135386,1.4217471 -0.02879,0.8390805 -0.02646,1.6788856 -0.0262,2.5183296 0.002,0.8618022 -0.0031,1.7237942 0.01588,2.5854272 0.01489,0.760701 0.05273,1.520318 0.109976,2.278925 0.0057,0.07291 0.01139,0.145839 0.01707,0.218761 -0.09858,-0.03924 -0.197568,-0.06066 -0.293798,-0.06472 -0.612753,-0.0257 -1.114723,0.64007 -0.717822,1.734206 0.13084,0.360684 0.229517,0.732071 0.331119,1.101746 0.148073,0.553995 0.257708,1.117263 0.377174,1.677827 0.03346,0.157007 0.152816,0.709589 0.189778,0.880604 0.009,0.04171 0.01976,0.08079 0.03017,0.120297 H 2.4750197 V 1.7920067 Z m 2.254706,17.4488573 v 0.551468 h -0.08377 c 0.02927,-0.183589 0.05672,-0.367526 0.08377,-0.551468 z" /></clipPath></defs><sodipodi:namedview
     id="namedview1"
     pagecolor="#505050"
     bordercolor="#ffffff"
     borderopacity="1"
     inkscape:showpageshadow="0"
     inkscape:pageopacity="0"
     inkscape:pagecheckerboard="1"
     inkscape:deskcolor="#505050"
     inkscape:zoom="2.5664062"
     inkscape:cx="80.852359"
     inkscape:cy="136.96195"
     inkscape:window-width="1920"
     inkscape:window-height="991"
     inkscape:window-x="-9"
     inkscape:window-y="-9"
     inkscape:window-maximized="1"
     inkscape:current-layer="svg1" /><g
     id="SVGRepo_bgCarrier"
     stroke-width="0"
     transform="translate(0.29223741,0.74277017)" /><g
     id="SVGRepo_tracerCarrier"
     stroke-linecap="round"
     stroke-linejoin="round"
     transform="translate(0.29223741,0.74277017)" /><g
     id="SVGRepo_iconCarrier"
     transform="matrix(-1.1400487,0,0,1.1400487,11.126112,-2.3257032)"><title
       id="title1">walking</title><path
       d="m 9.5,7.063 c 0,-1.25 -1.031,-2.281 -2.313,-2.281 -1.25,0 -2.25,1.031 -2.25,2.281 0,1.281 1,2.281 2.25,2.281 1.281,0 2.313,-1 2.313,-2.281 z M 7.031,27.188 H 5 c 0,0 -0.094,-5.781 0.063,-6.469 C 5.188,20.031 6.532,18.594 6.594,18.031 6.657,17.437 6.063,15 6.063,15 c 0,0 -1.344,1.219 -1.781,1.438 -0.437,0.219 -3.875,0.781 -3.875,0.781 l -0.406,-1.75 c 0,0 3.281,-0.719 3.75,-1.094 C 4.22,14.031 5.47,11 6.407,10.625 7.032,10.344 8.72,10.469 9.563,10.469 c 0.875,0 3.75,1.656 4.031,2.031 0.313,0.344 2.031,3.719 2.031,3.719 l -1.563,0.875 -1.25,-2.688 c 0,0 -0.969,-0.813 -1.344,-0.938 -0.406,-0.125 -0.938,-0.281 -1.031,0.063 -0.125,0.313 0.719,2.875 0.938,3.594 0.188,0.75 1.219,4.156 1.594,4.875 0.375,0.719 2.594,3.906 2.594,3.906 l -1.906,1.25 c 0,0 -2.719,-3.688 -3.063,-4.219 -0.375,-0.531 -1.438,-3.375 -1.438,-3.375 0,0 -1.813,2.219 -1.969,2.906 -0.125,0.625 -0.156,4.719 -0.156,4.719 z"
       id="path1"
       style="fill:#f49f1c;fill-opacity:1" /></g><g
     style="fill:#f49f1c;fill-opacity:1;stroke:#000000;stroke-width:0.00024"
     id="g1"
     transform="matrix(0.58570057,0,0,0.68798402,10.541311,7.3825011)"><g
       id="SVGRepo_bgCarrier-8"
       stroke-width="0"
       style="display:none;fill:#f49f1c;fill-opacity:1" /><g
       id="SVGRepo_tracerCarrier-0"
       stroke-linecap="round"
       stroke-linejoin="round"
       style="display:none;fill:#f49f1c;fill-opacity:1" /><g
       id="SVGRepo_iconCarrier-4"
       style="fill:#f49f1c;fill-opacity:1"
       transform="translate(-0.87127498,0.87127498)"><path
         d="m 22.475241,18.792096 a 1,1 0 0 1 -2,0 V 2.7920961 a 1,1 0 0 1 2,0 z m -19.0000001,-7 H 15.061241 l -2.293,2.293 a 1,1 0 1 0 1.414,1.414 l 4,-4 a 1,1 0 0 0 0,-1.414 l -4,-3.9999999 a 1,1 0 1 0 -1.414,1.414 l 2.293,2.2929996 H 3.4752409 a 1.0000002,1.0000002 0 0 0 0,2.0000003 z"
         id="path1-2"
         clip-path="url(#clipPath93)"
         transform="translate(0.4752409,-0.71286135)"
         style="display:inline;fill:#f49f1c;fill-opacity:1" /></g></g><g
     inkscape:groupmode="layer"
     id="layer1"
     inkscape:label="line"><path
       id="path2"
       d="m 17.797409,18.921413 c 0.05976,0.0027 0.119157,0.01085 0.17747,0.02422 0.455033,0.103714 0.777819,0.508391 0.777773,0.975094 v 15.999716 c 0,1.333475 -2.000213,1.333475 -2.000213,0 V 19.920725 c -1.85e-4,-0.570063 0.475484,-1.024948 1.04497,-0.999312 z m -7.657027,4.084991 c 0.118689,0.04801 0.227054,0.118367 0.319209,0.207247 l 2.260264,2.260264 c -0.374276,-0.346634 -0.774194,-0.666513 -1.172019,-0.985416 -0.01572,-0.01231 -0.03152,-0.0246 -0.04725,-0.03692 -0.05721,-0.06995 -0.115275,-0.139238 -0.171911,-0.20963 -0.237504,-0.288343 -0.480527,-0.573167 -0.763877,-0.818268 -0.156859,-0.137354 -0.315464,-0.272511 -0.474445,-0.407348 0.01419,-0.0028 0.02829,-0.006 0.04248,-0.0087 0.0025,-5.15e-4 0.005,-5.96e-4 0.0075,-0.0012 z m -0.3061061,0.06313 v 3.97e-4 c 0.048267,0.06887 0.097777,0.136747 0.1480904,0.204071 -0.071279,-0.03769 -0.1424292,-0.05795 -0.2076441,-0.0536 -0.2586927,0.01727 -0.4283515,0.339829 -0.1806465,0.762685 0.1796897,0.306742 0.3757268,0.603395 0.5717163,0.900056 -0.02463,0.02204 -0.04918,0.04409 -0.07385,0.06591 -0.1274049,0.114246 -0.2553226,0.227963 -0.382732,0.342236 L 9.045387,24.627458 c -0.3850384,-0.37365 -0.406588,-0.984576 -0.048834,-1.384427 0.2786343,-0.06069 0.5581835,-0.117124 0.837723,-0.1735 z m 0.7984171,0.695588 c 0.136724,0.137036 0.267897,0.279634 0.393055,0.427596 -0.0031,0.003 -0.0042,0.0076 -0.0067,0.01112 -0.09423,-0.104123 -0.188123,-0.208368 -0.2803,-0.314047 -0.04228,-0.0489 -0.105647,-0.124644 -0.106055,-0.124669 z m -0.194939,0.07742 c 0.05005,0.05918 0.100217,0.118037 0.15087,0.176676 0.316277,0.363464 0.658924,0.706696 0.940155,1.099363 0.06653,0.09289 0.127254,0.189826 0.190969,0.284667 0.240365,0.417834 0.126349,0.2046 0.341442,0.640401 0.08676,0.175784 0.264417,0.08795 0.17747,-0.08774 -0.223181,-0.450967 -0.104678,-0.229978 -0.354543,-0.663032 -0.0661,-0.09817 -0.129513,-0.198435 -0.198513,-0.294593 -0.05033,-0.07014 -0.103196,-0.138203 -0.156825,-0.205659 0.147234,0.177208 0.294071,0.354799 0.446256,0.527647 0.135555,0.162844 0.280976,0.316821 0.418862,0.477621 0.04981,0.05808 0.08381,0.09901 0.118711,0.142135 -0.15979,0.236711 -0.32269,0.471281 -0.491518,0.701543 -0.03672,-0.09829 -0.07498,-0.195833 -0.115534,-0.292607 0.04284,-0.253711 -0.06303,-0.435855 -0.223128,-0.479607 -0.01682,-0.03312 -0.03225,-0.06679 -0.04963,-0.09965 -0.07942,-0.143645 -0.154748,-0.289438 -0.238215,-0.430772 -0.301058,-0.509773 -0.64345,-0.994154 -0.956831,-1.496388 z m -0.162383,1.207751 c -0.3596675,1.785556 -1.2594771,0.536022 0.663826,1.101744 0.0381,0.07275 0.0736,0.146678 0.108785,0.220746 -0.03038,0.05624 -0.05943,0.112996 -0.08655,0.170721 l -1.1120691,-1.11207 c 0.1244679,-0.111599 0.2495581,-0.222694 0.3739981,-0.334295 0.01744,-0.01544 0.03466,-0.03121 0.05201,-0.04685 z m 1.929939,0.232259 c 0.158919,0.13556 0.315173,0.274065 0.466505,0.417671 -0.01506,0.02242 -0.02996,0.04496 -0.04486,0.06749 -0.02449,-0.02982 -0.04855,-0.05891 -0.08417,-0.100447 C 12.43174,25.537804 12.317079,25.41142 12.20531,25.282549 Z m 1.151373,0.828195 0.618565,0.618565 c -0.06177,-0.01314 -0.125164,-0.02005 -0.188587,-0.02382 -0.105999,-0.17931 -0.24044,-0.343379 -0.36963,-0.505413 -0.02218,-0.02658 -0.04492,-0.05242 -0.06749,-0.07861 0.0023,-0.0036 0.0048,-0.0071 0.0071,-0.01072 z m -0.121093,0.18144 c 0.0089,0.01053 0.01814,0.02077 0.027,0.03137 0.101157,0.12653 0.205423,0.253929 0.295387,0.389879 -0.05314,0.0075 -0.105485,0.01798 -0.156031,0.03375 -0.0024,7.37e-4 -0.0041,0.0023 -0.0064,0.0032 -0.06839,-0.10861 -0.143243,-0.212936 -0.227495,-0.310473 -0.0055,-0.0071 -0.0112,-0.01396 -0.01668,-0.02104 0.02811,-0.04219 0.05586,-0.08461 0.08417,-0.126651 z m -0.199306,0.299357 c 0.08556,0.102765 0.161169,0.21239 0.22948,0.327149 -0.01848,0.04816 -0.03517,0.09889 -0.05757,0.14015 -0.133487,0.245896 -0.236661,0.509545 -0.332311,0.773405 -0.05727,-0.123118 -0.127407,-0.239186 -0.220348,-0.341839 -0.05367,-0.05927 -0.107979,-0.106725 -0.161987,-0.144517 0.01605,-0.02056 0.0331,-0.04034 0.04883,-0.06114 0.171177,-0.226257 0.334183,-0.458578 0.4939,-0.693206 z m -2.228105,0.329134 c -0.142989,0.404701 -0.233152,0.830882 -0.323576,1.248247 l -0.0667,0.31365 c -0.147209,0.148062 -0.296235,0.294369 -0.4478445,0.437919 H 9.6401307 C 9.569104,28.882376 9.4933655,28.848798 9.4281192,28.80853 9.2051014,28.67089 8.9723801,28.549118 8.7412658,28.4254 8.7229818,28.40822 8.7047718,28.39096 8.6864758,28.37379 8.525679,28.222868 8.3674407,28.160151 8.2354552,28.159793 c -0.00113,-3e-6 -0.00205,3.91e-4 -0.00318,3.97e-4 -0.1451394,-0.0753 -0.1983869,-0.103099 -0.3716155,-0.192954 0.2928496,0.02969 0.5855206,0.06033 0.8782196,0.09013 0.2707492,0.02961 0.5418237,0.05663 0.8123134,0.08854 0.1860776,0.02194 0.3715338,0.04917 0.5574233,0.07266 0.04344,0.0055 0.159902,0.04683 0.130622,0.01429 -0.044,-0.04891 -0.09197,-0.09592 -0.142532,-0.139753 0.05543,-0.01775 0.110276,-0.03772 0.163971,-0.05717 0.03985,-0.01436 -0.08421,-0.0081 -0.126254,-0.0135 -0.05306,-0.0067 -0.106196,-0.01355 -0.1592074,-0.02065 -0.036338,-0.02247 -0.073835,-0.04235 -0.1135492,-0.05757 C 9.5694737,27.832243 9.250963,27.806275 8.9457337,27.737356 8.6608069,27.673025 8.375858,27.608775 8.0909386,27.544401 8.1784362,27.42573 8.2671968,27.307982 8.3521811,27.187476 8.4617188,27.029821 8.49468,26.982546 8.5367978,26.920675 Z m -2.5111844,0 c -0.024763,0.03572 -0.044408,0.06369 -0.1071968,0.154046 -0.1005343,0.142514 -0.2053596,0.281952 -0.3092825,0.422037 -0.064982,-0.01468 -0.1299565,-0.0294 -0.1949394,-0.04407 -0.3952355,-0.08938 -0.7905135,-0.177683 -1.1859141,-0.266404 0.041278,-0.03727 0.013626,-0.04483 -0.048834,-0.07861 -0.1794803,-0.04844 -0.3597273,-0.09378 -0.5403513,-0.137768 -0.011781,-0.01631 -0.023128,-0.03294 -0.034938,-0.04923 z m -3.8555111,0 c 0.4735713,0.10986 0.947479,0.218304 1.4217471,0.325164 0.047266,0.06647 0.095811,0.13205 0.142532,0.198909 0.035715,0.05565 0.070788,0.112671 0.1064027,0.169133 -0.2321126,-0.01645 -0.4642851,-0.03072 -0.6967791,-0.04129 -0.2072807,-0.0094 -0.2514396,-0.0083 -0.4073478,-0.0083 -0.1960265,0 -0.1960265,0.197718 0,0.197718 0.1542759,0 0.196945,-6.97e-4 0.4017895,0.0087 0.2751108,0.01257 0.5499764,0.0305 0.8246212,0.05082 0.031913,0.06058 0.0619,0.121878 0.085757,0.185808 -0.1226618,-0.05082 -0.2465459,-0.09777 -0.3720126,-0.141738 -0.1850074,-0.0648 -0.2505757,0.121976 -0.065509,0.186602 0.172976,0.0604 0.3433976,0.127575 0.5101773,0.202879 0.014309,0.02837 0.033582,0.04626 0.053995,0.05598 -0.069082,-0.02106 -0.1379278,-0.0428 -0.2072464,-0.06313 -0.212034,-0.0622 -0.423171,-0.12947 -0.6392105,-0.175882 -0.086203,-0.01852 -0.2497531,-0.105331 -0.2636247,-0.01826 -0.0115,0.07216 0.025234,0.136015 0.073053,0.197718 -0.06995,-0.0022 -0.1280703,-0.0013 -0.084963,0 0.029406,9.01e-4 0.058746,0.0027 0.08814,0.004 0.038349,0.04895 0.082441,0.09662 0.1151372,0.146503 -0.00482,0.002 -0.00992,0.003 -0.01469,0.0052 -0.2406507,-0.09993 -0.5121213,-0.191524 -0.7071018,-0.07821 -0.075354,-0.02844 -0.1502947,-0.05801 -0.2259073,-0.08576 -0.1367326,-0.05016 -0.2676112,-0.133785 -0.410921,-0.152061 -0.00338,-0.123611 -0.00808,-0.247155 -0.00913,-0.370821 -0.00226,-0.266531 0.00264,-0.533141 0.01072,-0.799609 z m 0.9715206,1.334798 c -0.00103,-0.0013 -0.00215,-0.0026 -0.00318,-0.004 0.043484,0.0014 0.087219,0.0042 0.1195045,0.0091 -0.038784,-0.0019 -0.077535,-0.0035 -0.1163283,-0.0052 z M 3.9725969,26.920675 c -0.00802,0.265974 -0.012552,0.531935 -0.010323,0.798021 0.00115,0.13838 0.00689,0.276549 0.010323,0.414891 0.00573,0.07982 0.014707,0.15985 0.02263,0.239803 C 3.6168828,28.208059 3.1388697,27.997012 2.8291641,27.860036 3.5962021,27.616478 2.076297,27.601583 2.2169513,27.753634 c 0.028375,0.03067 0.060995,0.0621 0.095683,0.0937 -0.020733,-9.86e-4 -0.034901,6.22e-4 -0.021836,0.0071 0.020725,0.01035 0.042034,0.01945 0.063127,0.02898 0.4277489,0.37005 1.2204736,0.783975 1.6000113,1.001694 0.039916,0.0229 0.024891,0.01432 0.061539,0.03534 H 3.2841553 C 3.1061257,28.814601 2.928675,28.707971 2.7525386,28.5989 2.4050681,28.383734 2.2801093,28.299128 1.9557092,28.086738 c -0.1640035,-0.107376 -0.272397,0.0582 -0.1083879,0.165559 0.3265734,0.213787 0.4526687,0.299209 0.8023878,0.515736 0.083623,0.05177 0.1684581,0.101399 0.252508,0.152458 H 1.8032515 c -0.1017742,-0.332054 -0.1906127,-0.667847 -0.252508,-1.009238 -0.022723,-0.125339 -0.03356,-0.252503 -0.050422,-0.378762 0.010909,-0.106075 0.012066,-0.213777 0.032556,-0.318414 0.01998,-0.102036 0.048675,-0.199447 0.083772,-0.293402 z m -3.17977433,0 c -0.0195639,0.0769 -0.0374917,0.154409 -0.0496281,0.234245 -0.024359,0.160183 -0.0186037,0.323405 -0.0277918,0.485165 0.0208562,0.148319 0.035769,0.297715 0.06273,0.445065 0.0515596,0.281773 0.12274449,0.55955 0.20089472,0.835341 h -1.22641064 c -1.31524705,-0.01784 -1.31524705,-1.981974 0,-1.999816 z m 13.39999543,0.0262 0.01151,0.01151 c -0.0034,0.0045 -0.007,0.009 -0.01032,0.0135 -6.2e-4,-0.0082 -7.18e-4,-0.01667 -0.0012,-0.02501 z m -8.0393621,0.364469 c 0.03455,0.0078 0.069072,0.01567 0.1036236,0.02342 0.05893,0.04744 0.1356177,0.07988 0.2001007,0.119108 0.1322379,0.08044 0.2711034,0.149722 0.4089358,0.220349 -0.1709984,-0.01506 -0.342226,-0.02802 -0.5133535,-0.04129 -0.057949,-0.09974 -0.1184567,-0.198505 -0.1802494,-0.29499 -0.00624,-0.0089 -0.012808,-0.01766 -0.019057,-0.0266 z m 0.7932562,0.178264 c 0.2317933,0.05205 0.4634831,0.104031 0.6951911,0.156428 0.036915,0.0083 0.073848,0.01668 0.11077,0.02501 -0.01048,0.01404 -0.020487,0.02844 -0.030968,0.04248 -0.010252,0.01374 -0.01599,0.02672 -0.022233,0.0397 -0.1036358,-0.01025 -0.2071991,-0.02095 -0.3108707,-0.03097 -0.097978,-0.05078 -0.2837074,-0.147375 -0.3072974,-0.159604 -0.045023,-0.024 -0.08976,-0.04868 -0.1345916,-0.07305 z m 1.0167814,0.229084 c 0.1626597,0.03668 0.3253478,0.07326 0.4879439,0.109975 -0.1764829,-0.01814 -0.3530882,-0.03549 -0.5296315,-0.0532 0.014037,-0.01882 0.027665,-0.03794 0.041688,-0.05677 z m -1.5027401,0.119901 c 0.2903363,0.02323 0.5803422,0.04915 0.8702791,0.07702 0.224669,0.116458 0.4007803,0.208342 0.6626349,0.344221 -0.1087822,0.112751 -0.1312555,0.307657 0.00556,0.518515 -0.095293,-0.027 -0.3034056,-0.08968 -0.4458592,-0.13221 -0.260628,-0.14569 -0.5223641,-0.289164 -0.7865068,-0.42839 -0.068996,-0.03736 -0.1389147,-0.07251 -0.2096293,-0.106006 -0.021291,-0.09537 -0.056548,-0.185175 -0.096477,-0.273153 z m -0.726556,0.469284 c 0.149996,0.03962 0.2985751,0.08536 0.4474473,0.129033 0.9169484,0.268988 0.810613,0.254353 1.3034335,0.399804 0.05078,0.02849 0.1026015,0.05506 0.1532517,0.08377 H 6.8776298 c -0.024223,-0.01148 -0.048609,-0.02287 -0.071465,-0.03573 -0.353583,-0.199037 -0.7188935,-0.37684 -1.0719674,-0.576877 z m 0.7809484,0.004 c 0.032752,0.01596 0.064895,0.03304 0.097271,0.04963 -0.049827,-0.01543 -0.099789,-0.03042 -0.1496785,-0.04566 0.017962,0.0044 0.036162,0.0041 0.052407,-0.004 z m 5.1597382,3.97e-4 c 0.0052,0.02477 0.01084,0.04945 0.01588,0.07424 0.02528,0.152503 0.06549,0.307057 0.04407,0.463725 -0.02242,0.163976 -0.156929,0.36552 -0.261242,0.483974 -0.05623,0.06386 -0.124148,0.116489 -0.186205,0.174691 -0.286798,0.205481 -0.611696,0.351533 -0.954051,0.430375 -0.0023,-0.0022 -0.0045,-0.0045 -0.0068,-0.0067 l 1.012017,-1.012017 H 11.12024 c 0.0035,-0.0088 0.0054,-0.02023 0.0087,-0.02938 0.185357,-0.189793 0.367161,-0.382839 0.545909,-0.578863 z m -8.2871052,0.0099 c 0.2333136,0.103036 0.4443189,0.196186 0.6340492,0.279108 0.00482,0.03488 0.011888,0.06928 0.017469,0.104021 -0.2183191,-0.1256 -0.4331455,-0.257646 -0.6515182,-0.383129 z m 0.8087402,0.07385 c 0.091469,0.06025 0.1916221,0.111543 0.2822849,0.170721 0.024147,0.01576 0.048918,0.03052 0.07345,0.04566 -0.1003696,-0.04175 -0.2007361,-0.08321 -0.3005481,-0.126254 -0.012721,-0.0055 -0.035046,-0.01564 -0.048437,-0.02144 -0.00269,-0.02289 -0.00432,-0.04577 -0.00675,-0.06869 z m 0.042482,0.300945 c 0.062219,0.02749 0.172454,0.07485 0.3211934,0.137768 3.093e-4,0.02945 0.00472,0.05818 0.015087,0.08576 H 4.4148829 c -0.056406,-0.03223 -0.075166,-0.04316 -0.1516636,-0.08695 -0.00922,-0.04526 -0.016612,-0.09095 -0.024219,-0.136577 z m 9.515104,0.08417 c -0.0483,0.23464 -0.09774,0.469188 -0.150869,0.702734 l -1.853711,1.853711 c -0.01094,-0.01208 -0.0218,-0.02407 -0.03375,-0.03613 -0.244327,-0.246678 -0.490577,-0.491457 -0.73807,-0.734893 0.310725,-0.121186 0.603391,-0.287875 0.868691,-0.496282 0.09485,-0.09793 0.19845,-0.187868 0.28427,-0.293798 0.14136,-0.174493 0.251233,-0.381676 0.321194,-0.599508 0.101495,0.237516 0.274043,0.424543 0.596728,0.383923 0.135465,-0.01705 0.237909,-0.133595 0.356926,-0.200498 0.07663,-0.107623 0.165587,-0.207352 0.229878,-0.322781 0.03851,-0.06914 0.07869,-0.160088 0.11871,-0.256478 z m -3.69154,2.000609 c 0.376126,0.365813 0.750681,0.733268 1.120405,1.105715 0.0029,0.0029 0.0059,0.0051 0.0087,0.0079 l -0.732114,0.732114 C 9.5172149,33.605813 8.0673176,32.156326 9.045387,31.213708 l 0.1064027,-0.106403 c 0.010716,-3.8e-4 0.021441,-3.31e-4 0.032159,-7.94e-4 0.2045662,-0.0088 0.2571329,-0.02314 0.4482414,-0.05558 0.054486,-0.02047 0.1115348,-0.03547 0.1635743,-0.06154 0.091248,-0.04572 0.1699612,-0.114318 0.2132026,-0.204071 0.01302,-9.57e-4 0.02273,-4.55e-4 0.03613,-0.0016 0.0059,-4.93e-4 0.01162,-0.0015 0.01747,-0.002 z m -0.5860084,7.94e-4 c 0.085481,0.0075 0.1706138,0.01267 0.2620366,0.0135 -0.04413,0.02541 -0.094562,0.04261 -0.1397529,0.05955 -0.10257,0.01776 -0.1641165,0.02971 -0.2338478,0.03851 z"
       clip-path="url(#clipPath74)"
       transform="matrix(0.80988143,0,0,1.4618687,8.4220825,-24.844937)"
       sodipodi:nodetypes="cccsscccccccccccccccccscccccsccccccscscsscsccscccccsssscccccssscccssccccccccccccccccscscsccsscccccsccscccccsccccssccccccccccccccccccssccccscccssccccccccsccccccccscccscccsccsscsccscscccscscccccccccscscccsssccscccsssccsssccccccsscsccccccccccccssccccccscccccsscccsssccccssscccccscscsssccccccccsccccccccc"
       style="display:inline;fill:#f49f1c;fill-opacity:1;stroke:#000000;stroke-width:0.00024" /></g></svg>
