<svg xmlns="http://www.w3.org/2000/svg" xmlns:xlink="http://www.w3.org/1999/xlink" width="743" zoomAndPan="magnify" viewBox="0 0 557.25 474.749981" height="633" preserveAspectRatio="xMidYMid meet" version="1.0"><defs><clipPath id="45a98d3c23"><path d="M 47.410156 138 L 169 138 L 169 278 L 47.410156 278 Z M 47.410156 138 " clip-rule="nonzero"/></clipPath><clipPath id="fc19e5a582"><path d="M 345 40.171875 L 404 40.171875 L 404 377 L 345 377 Z M 345 40.171875 " clip-rule="nonzero"/></clipPath><clipPath id="2235f32cff"><path d="M 71 264 L 181 264 L 181 434.140625 L 71 434.140625 Z M 71 264 " clip-rule="nonzero"/></clipPath></defs><g clip-path="url(#45a98d3c23)"><path fill="#000000" d="M 161.9375 277.726562 L 72.667969 277.726562 C 59.019531 277.714844 47.964844 266.648438 47.957031 253 L 47.957031 163.394531 C 47.972656 149.75 59.027344 138.691406 72.667969 138.671875 L 161.9375 138.671875 C 165.554688 138.671875 168.484375 141.601562 168.484375 145.21875 L 168.484375 271.1875 C 168.484375 274.800781 165.554688 277.726562 161.9375 277.726562 Z M 72.667969 151.761719 C 66.25 151.769531 61.050781 156.976562 61.046875 163.394531 L 61.046875 253 C 61.046875 259.421875 66.246094 264.632812 72.667969 264.640625 L 155.398438 264.640625 L 155.398438 151.761719 Z M 72.667969 151.761719 " fill-opacity="1" fill-rule="nonzero"/></g><path fill="#000000" d="M 352.328125 354.953125 C 351.488281 354.953125 350.648438 354.785156 349.867188 354.464844 L 159.464844 277.246094 C 156.996094 276.246094 155.382812 273.839844 155.382812 271.179688 L 155.382812 145.21875 C 155.382812 142.554688 156.996094 140.152344 159.464844 139.148438 L 349.867188 61.929688 C 354.171875 60.183594 358.875 63.351562 358.871094 67.996094 L 358.871094 348.40625 C 358.871094 352.019531 355.945312 354.953125 352.328125 354.953125 Z M 168.484375 266.765625 L 345.796875 338.675781 L 345.796875 77.714844 L 168.484375 149.628906 Z M 168.484375 266.765625 " fill-opacity="1" fill-rule="nonzero"/><g clip-path="url(#fc19e5a582)"><path fill="#000000" d="M 374.746094 376.210938 C 358.757812 376.199219 345.796875 363.238281 345.785156 347.246094 L 345.785156 69.125 C 345.785156 53.128906 358.753906 40.15625 374.746094 40.15625 C 390.738281 40.15625 403.707031 53.128906 403.707031 69.125 L 403.707031 347.246094 C 403.691406 363.238281 390.734375 376.199219 374.746094 376.210938 Z M 374.746094 53.265625 C 365.984375 53.277344 358.878906 60.382812 358.871094 69.148438 L 358.871094 347.277344 C 358.871094 356.039062 365.976562 363.148438 374.746094 363.148438 C 383.511719 363.148438 390.621094 356.039062 390.621094 347.277344 L 390.621094 69.148438 C 390.609375 60.382812 383.511719 53.277344 374.746094 53.265625 Z M 374.746094 53.265625 " fill-opacity="1" fill-rule="nonzero"/></g><g clip-path="url(#2235f32cff)"><path fill="#000000" d="M 160.242188 434.136719 L 118.230469 434.136719 C 108.535156 434.125 100.222656 427.214844 98.4375 417.679688 L 71.394531 272.402344 C 70.628906 268.375 73.722656 264.640625 77.828125 264.640625 L 147.488281 264.640625 C 150.640625 264.640625 153.339844 266.890625 153.914062 269.988281 L 180.042969 410.320312 C 181.132812 416.203125 179.546875 422.269531 175.722656 426.867188 C 171.898438 431.46875 166.226562 434.128906 160.242188 434.136719 Z M 85.707031 277.726562 L 111.308594 415.289062 C 111.929688 418.621094 114.835938 421.042969 118.230469 421.046875 L 160.242188 421.046875 C 162.335938 421.046875 164.328125 420.113281 165.667969 418.503906 C 167 416.894531 167.558594 414.769531 167.171875 412.710938 L 142.050781 277.726562 Z M 85.707031 277.726562 " fill-opacity="1" fill-rule="nonzero"/></g><path fill="#000000" d="M 397.160156 258.300781 C 393.550781 258.300781 390.621094 255.367188 390.621094 251.757812 L 390.621094 164.632812 C 390.621094 161.023438 393.550781 158.089844 397.160156 158.089844 C 424.605469 158.40625 446.691406 180.746094 446.691406 208.195312 C 446.691406 235.644531 424.605469 257.984375 397.160156 258.300781 Z M 403.707031 171.761719 L 403.707031 244.632812 C 421.34375 241.472656 434.179688 226.121094 434.179688 208.199219 C 434.179688 190.273438 421.34375 174.929688 403.707031 171.761719 Z M 403.707031 171.761719 " fill-opacity="1" fill-rule="nonzero"/><path fill="#000000" d="M 455.910156 156.046875 C 449.714844 156.046875 446.992188 148.234375 451.84375 144.382812 L 469.933594 130.03125 C 476.785156 124.613281 484.90625 134.882812 478.0625 140.300781 L 459.96875 154.632812 C 458.816406 155.546875 457.382812 156.046875 455.910156 156.046875 Z M 455.910156 156.046875 " fill-opacity="1" fill-rule="nonzero"/><path fill="#000000" d="M 499.433594 214.742188 L 476.347656 214.742188 C 467.625 214.742188 467.625 201.652344 476.347656 201.652344 L 499.433594 201.652344 C 508.15625 201.652344 508.15625 214.742188 499.433594 214.742188 Z M 499.433594 214.742188 " fill-opacity="1" fill-rule="nonzero"/><path fill="#000000" d="M 473.984375 287.78125 C 472.511719 287.777344 471.082031 287.28125 469.929688 286.359375 L 451.84375 272.019531 C 449.011719 269.773438 448.53125 265.652344 450.773438 262.820312 C 453.019531 259.988281 457.136719 259.511719 459.96875 261.757812 L 478.054688 276.113281 C 482.90625 279.96875 480.179688 287.78125 473.984375 287.78125 Z M 473.984375 287.78125 " fill-opacity="1" fill-rule="nonzero"/><path fill="#000000" d="M 88.238281 255.195312 C 80.824219 255.195312 74.148438 250.734375 71.308594 243.886719 C 68.472656 237.039062 70.042969 229.160156 75.285156 223.917969 C 80.519531 218.679688 88.402344 217.109375 95.246094 219.945312 C 102.09375 222.78125 106.554688 229.460938 106.554688 236.875 C 106.535156 246.984375 98.34375 255.175781 88.238281 255.195312 Z M 88.238281 231.589844 C 83.574219 231.589844 81.238281 237.226562 84.535156 240.527344 C 87.835938 243.820312 93.46875 241.484375 93.46875 236.820312 C 93.46875 233.929688 91.128906 231.589844 88.238281 231.589844 Z M 88.238281 231.589844 " fill-opacity="1" fill-rule="nonzero"/></svg>