<svg xmlns="http://www.w3.org/2000/svg" xmlns:xlink="http://www.w3.org/1999/xlink" width="743" zoomAndPan="magnify" viewBox="0 0 557.25 474.749981" height="633" preserveAspectRatio="xMidYMid meet" version="1.0"><defs><clipPath id="50df75131c"><path d="M 55.59375 47 L 496.75 47 L 496.75 427 L 55.59375 427 Z M 55.59375 47 " clip-rule="nonzero"/></clipPath><clipPath id="a9d85c8931"><path d="M 389 401 L 491 401 L 491 452.351562 L 389 452.351562 Z M 389 401 " clip-rule="nonzero"/></clipPath></defs><path fill="#000000" d="M 265.046875 184.082031 C 265.046875 198.023438 276.390625 209.367188 290.335938 209.367188 C 304.28125 209.367188 315.628906 198.023438 315.628906 184.082031 C 315.628906 170.140625 304.28125 158.796875 290.335938 158.796875 C 276.390625 158.800781 265.046875 170.140625 265.046875 184.082031 Z M 265.046875 184.082031 " fill-opacity="1" fill-rule="nonzero"/><path fill="#000000" d="M 164.890625 222.515625 C 164.890625 291.109375 221.621094 346.914062 291.347656 346.914062 C 361.078125 346.914062 417.808594 291.109375 417.808594 222.515625 C 417.808594 153.921875 361.078125 98.117188 291.347656 98.117188 C 221.621094 98.117188 164.890625 153.921875 164.890625 222.515625 Z M 325.746094 184.082031 C 325.746094 203.601562 309.859375 219.480469 290.335938 219.480469 L 300.199219 219.480469 C 328.230469 219.480469 351.035156 242.277344 351.035156 270.300781 L 351.035156 295.332031 C 351.035156 298.125 348.773438 300.390625 345.980469 300.390625 L 234.695312 300.390625 C 231.902344 300.390625 229.636719 298.125 229.636719 295.332031 L 229.636719 270.304688 C 229.636719 242.28125 252.441406 219.480469 280.472656 219.480469 L 290.335938 219.480469 C 270.8125 219.480469 254.929688 203.601562 254.929688 184.085938 C 254.929688 164.566406 270.8125 148.6875 290.335938 148.6875 C 309.859375 148.683594 325.746094 164.566406 325.746094 184.082031 Z M 325.746094 184.082031 " fill-opacity="1" fill-rule="nonzero"/><path fill="#000000" d="M 239.753906 270.304688 L 239.753906 290.277344 L 340.921875 290.277344 L 340.921875 270.304688 C 340.921875 247.855469 322.652344 229.59375 300.199219 229.59375 L 280.472656 229.59375 C 258.019531 229.59375 239.753906 247.855469 239.753906 270.304688 Z M 239.753906 270.304688 " fill-opacity="1" fill-rule="nonzero"/><g clip-path="url(#50df75131c)"><path fill="#000000" d="M 496.714844 222.515625 C 496.714844 189.695312 489.046875 158.355469 473.929688 129.355469 C 459.511719 101.707031 438.476562 77.253906 413.101562 58.640625 C 411.621094 57.554688 409.746094 57.410156 408.164062 58.070312 L 408.300781 57.660156 L 435.003906 57.660156 C 437.800781 57.660156 440.0625 55.398438 440.0625 52.605469 C 440.0625 49.8125 437.800781 47.546875 435.003906 47.546875 L 404.65625 47.546875 C 402.476562 47.546875 400.546875 48.941406 399.855469 51.007812 L 389.742188 81.347656 C 388.859375 83.996094 390.289062 86.859375 392.9375 87.746094 C 393.46875 87.921875 394.007812 88.003906 394.539062 88.003906 C 396.65625 88.003906 398.632812 86.664062 399.335938 84.546875 L 405.757812 65.292969 C 406.09375 65.863281 406.550781 66.378906 407.117188 66.796875 C 457.628906 103.851562 486.601562 160.605469 486.601562 222.515625 C 486.601562 329.523438 398.132812 416.589844 289.382812 416.621094 L 60.800781 411.640625 C 58.003906 411.53125 55.695312 413.796875 55.632812 416.589844 C 55.574219 419.378906 57.789062 421.691406 60.582031 421.753906 L 289.21875 426.734375 C 289.253906 426.734375 289.289062 426.734375 289.328125 426.734375 C 403.679688 426.734375 496.714844 335.121094 496.714844 222.515625 Z M 496.714844 222.515625 " fill-opacity="1" fill-rule="nonzero"/></g><g clip-path="url(#a9d85c8931)"><path fill="#000000" d="M 490.578125 426.039062 C 490.539062 425.789062 490.480469 425.539062 490.40625 425.292969 C 490.394531 425.257812 490.386719 425.222656 490.375 425.1875 C 490.304688 424.96875 490.214844 424.757812 490.113281 424.546875 L 479.996094 404.320312 C 478.746094 401.824219 475.707031 400.808594 473.210938 402.058594 C 470.710938 403.308594 469.699219 406.347656 470.949219 408.84375 L 477.402344 421.753906 L 394.539062 421.753906 C 391.746094 421.753906 389.480469 424.015625 389.480469 426.808594 C 389.480469 429.601562 391.746094 431.867188 394.539062 431.867188 L 477.402344 431.867188 L 470.949219 444.777344 C 469.699219 447.273438 470.710938 450.3125 473.210938 451.558594 C 473.9375 451.921875 474.707031 452.09375 475.46875 452.09375 C 477.324219 452.09375 479.109375 451.070312 479.996094 449.300781 L 490.113281 429.070312 C 490.125 429.050781 490.128906 429.027344 490.136719 429.007812 C 490.265625 428.738281 490.371094 428.460938 490.449219 428.179688 C 490.46875 428.113281 490.480469 428.050781 490.496094 427.984375 C 490.554688 427.742188 490.597656 427.496094 490.617188 427.25 C 490.621094 427.195312 490.632812 427.140625 490.636719 427.085938 C 490.652344 426.804688 490.640625 426.527344 490.609375 426.246094 C 490.597656 426.179688 490.585938 426.109375 490.578125 426.039062 Z M 490.578125 426.039062 " fill-opacity="1" fill-rule="nonzero"/></g><path fill="#000000" d="M 120.1875 361.597656 C 117.410156 361.890625 115.398438 364.382812 115.695312 367.160156 C 115.972656 369.757812 118.164062 371.679688 120.71875 371.679688 C 120.898438 371.679688 121.078125 371.671875 121.261719 371.652344 L 151.4375 368.4375 C 153.953125 368.167969 155.882812 366.085938 155.960938 363.5625 L 156.796875 335.941406 C 156.878906 333.152344 154.683594 330.820312 151.894531 330.734375 C 149.089844 330.675781 146.769531 332.84375 146.683594 335.636719 L 146.058594 356.246094 C 145.851562 355.859375 145.609375 355.484375 145.289062 355.152344 C 110.957031 319.074219 92.050781 271.96875 92.050781 222.515625 C 92.050781 115.484375 180.546875 28.410156 289.324219 28.410156 C 292.121094 28.410156 294.382812 26.144531 294.382812 23.355469 C 294.382812 20.5625 292.121094 18.296875 289.324219 18.296875 C 174.96875 18.296875 81.933594 109.910156 81.933594 222.515625 C 81.933594 273.582031 101.089844 322.246094 135.914062 359.921875 Z M 120.1875 361.597656 " fill-opacity="1" fill-rule="nonzero"/></svg>