<svg xmlns="http://www.w3.org/2000/svg" xmlns:xlink="http://www.w3.org/1999/xlink" width="743" zoomAndPan="magnify" viewBox="0 0 557.25 474.749981" height="633" preserveAspectRatio="xMidYMid meet" version="1.0"><defs><clipPath id="f2b4e8213e"><path d="M 47.410156 204 L 318 204 L 318 429 L 47.410156 429 Z M 47.410156 204 " clip-rule="nonzero"/></clipPath></defs><path fill="#000000" d="M 138.570312 165.410156 C 139.035156 165.410156 139.035156 165.410156 139.5 165.410156 C 140.894531 165.410156 142.292969 164.480469 142.757812 163.082031 C 155.78125 121.179688 218.101562 60.648438 297.636719 60.648438 C 340.425781 61.113281 381.816406 75.546875 415.304688 101.621094 C 404.144531 105.347656 367.863281 107.675781 336.238281 108.605469 C 334.378906 108.605469 332.984375 110.46875 332.984375 112.332031 C 332.984375 113.726562 334.378906 115.125 336.238281 115.589844 C 359.957031 115.125 415.769531 113.261719 423.675781 104.882812 L 423.675781 104.417969 C 423.675781 104.417969 423.675781 103.949219 424.140625 103.949219 C 424.605469 103.949219 424.140625 103.484375 424.140625 103.484375 C 429.722656 92.308594 424.140625 36.902344 422.28125 19.675781 C 422.28125 17.8125 420.421875 16.417969 418.5625 16.417969 C 416.699219 16.417969 415.304688 18.28125 415.304688 20.140625 C 418.5625 49.941406 420.421875 83.929688 419.027344 96.035156 C 384.609375 68.566406 341.820312 53.664062 297.636719 53.664062 C 214.847656 53.664062 149.734375 116.988281 136.246094 161.21875 C 135.78125 162.617188 136.710938 164.480469 138.570312 165.410156 Z M 138.570312 165.410156 " fill-opacity="1" fill-rule="nonzero"/><path fill="#000000" d="M 467.394531 332.097656 C 508.789062 260.394531 486.464844 171.929688 454.839844 138.40625 C 453.441406 137.007812 451.117188 137.007812 449.722656 138.40625 C 448.328125 139.800781 448.328125 141.664062 449.257812 143.0625 C 449.257812 143.0625 449.257812 143.0625 449.722656 143.527344 C 479.488281 175.652344 500.882812 259.929688 460.886719 329.304688 C 439.023438 366.085938 406.003906 394.488281 366.46875 410.785156 C 368.796875 399.144531 384.609375 366.550781 399.957031 338.613281 C 400.886719 336.753906 400.421875 334.890625 398.5625 333.957031 C 396.699219 333.027344 394.839844 333.492188 393.910156 335.355469 C 382.28125 355.84375 356.703125 404.265625 359.492188 415.90625 C 359.492188 415.90625 359.492188 416.371094 359.492188 416.371094 C 359.492188 416.371094 359.492188 416.371094 359.492188 416.835938 L 359.957031 417.300781 C 366.46875 427.546875 417.164062 450.824219 432.980469 457.808594 C 433.445312 457.808594 433.910156 458.273438 434.375 458.273438 C 435.769531 458.273438 437.164062 457.34375 437.628906 456.414062 C 438.558594 454.550781 437.628906 452.6875 435.769531 451.757812 C 408.328125 439.652344 378.097656 424.285156 368.328125 416.835938 C 410.1875 400.074219 445.070312 370.277344 467.394531 332.097656 Z M 467.394531 332.097656 " fill-opacity="1" fill-rule="nonzero"/><g clip-path="url(#f2b4e8213e)"><path fill="#000000" d="M 313.449219 419.164062 C 270.660156 428.941406 186.941406 405.195312 147.40625 336.285156 C 126.476562 299.039062 118.105469 255.738281 123.6875 213.367188 C 132.523438 221.28125 152.988281 251.082031 169.265625 278.550781 C 169.734375 279.484375 171.128906 280.414062 172.058594 280.414062 C 172.523438 280.414062 173.453125 280.414062 173.917969 279.949219 C 175.3125 279.015625 176.242188 276.691406 175.3125 275.292969 C 163.222656 254.804688 134.386719 208.710938 122.757812 204.988281 L 121.828125 204.988281 C 121.828125 204.988281 121.363281 204.988281 121.363281 204.988281 L 120.898438 204.988281 C 108.804688 205.453125 63.222656 238.042969 49.273438 248.289062 C 47.875 249.21875 47.410156 251.546875 48.339844 252.945312 C 49.273438 254.339844 51.597656 254.804688 52.992188 253.875 C 77.175781 236.183594 105.546875 217.558594 116.710938 212.902344 C 110.199219 256.667969 119.035156 301.367188 140.894531 340.011719 C 176.242188 401.472656 245.542969 428.476562 292.519531 428.476562 C 299.960938 428.476562 306.9375 428.011719 314.378906 426.148438 C 316.238281 425.683594 317.167969 423.820312 317.167969 421.957031 C 317.167969 420.09375 315.308594 418.699219 313.449219 419.164062 Z M 313.449219 419.164062 " fill-opacity="1" fill-rule="nonzero"/></g><path fill="#000000" d="M 297.636719 139.335938 C 272.984375 139.335938 252.984375 163.082031 252.984375 192.414062 C 252.984375 221.75 272.984375 245.492188 297.636719 245.492188 C 322.285156 245.492188 342.285156 221.75 342.285156 192.414062 C 342.285156 163.082031 322.285156 139.335938 297.636719 139.335938 Z M 297.636719 238.511719 C 276.707031 238.511719 259.960938 218.023438 259.960938 192.414062 C 259.960938 166.808594 276.707031 146.320312 297.636719 146.320312 C 318.5625 146.320312 335.308594 167.273438 335.308594 192.414062 C 335.308594 217.558594 318.5625 238.511719 297.636719 238.511719 Z M 297.636719 238.511719 " fill-opacity="1" fill-rule="nonzero"/><path fill="#000000" d="M 373.445312 310.214844 C 373.910156 300.433594 373.445312 290.191406 372.050781 280.414062 C 370.191406 272.035156 363.214844 265.515625 352.050781 263.1875 C 342.75 259.460938 333.914062 254.804688 325.539062 249.21875 C 324.144531 247.820312 321.820312 248.289062 320.890625 249.683594 C 319.496094 251.082031 319.960938 253.410156 321.355469 254.339844 C 321.355469 254.339844 321.820312 254.339844 321.820312 254.804688 C 322.75 255.273438 340.890625 267.378906 350.65625 269.707031 C 355.773438 270.636719 364.144531 273.894531 365.539062 281.8125 C 366.933594 290.65625 367.398438 299.96875 366.933594 308.816406 C 366.46875 310.214844 362.285156 314.402344 349.726562 319.058594 C 333.449219 324.179688 316.238281 327.441406 299.03125 327.90625 C 281.355469 326.976562 263.683594 324.179688 246.9375 319.058594 C 233.917969 314.402344 229.730469 309.746094 229.730469 308.816406 C 229.265625 299.96875 229.730469 290.65625 231.125 281.8125 C 232.519531 273.894531 241.359375 271.101562 246.007812 269.707031 C 255.777344 267.378906 273.914062 255.273438 274.84375 254.804688 C 276.707031 253.875 277.171875 251.546875 276.242188 250.148438 C 275.308594 248.753906 272.984375 247.820312 271.589844 248.753906 C 271.589844 248.753906 271.125 248.753906 271.125 249.21875 C 262.753906 254.804688 253.914062 259.460938 244.613281 263.1875 C 233.449219 265.980469 226.007812 272.035156 224.613281 280.414062 C 223.21875 290.191406 222.753906 300.433594 223.21875 310.214844 C 224.613281 315.335938 232.519531 320.921875 245.078125 325.578125 C 262.753906 330.699219 281.355469 333.957031 299.496094 334.425781 C 317.632812 333.957031 335.308594 330.699219 352.515625 325.113281 C 364.144531 321.386719 372.050781 315.335938 373.445312 310.214844 Z M 373.445312 310.214844 " fill-opacity="1" fill-rule="nonzero"/></svg>