<svg xmlns="http://www.w3.org/2000/svg" xmlns:xlink="http://www.w3.org/1999/xlink" width="743" zoomAndPan="magnify" viewBox="0 0 557.25 474.749981" height="633" preserveAspectRatio="xMidYMid meet" version="1.0"><defs><clipPath id="0f969ba2b3"><path d="M 45.335938 213 L 478 213 L 478 447 L 45.335938 447 Z M 45.335938 213 " clip-rule="nonzero"/></clipPath></defs><path fill="#000000" d="M 505.320312 226.171875 C 502.402344 223.25 497.539062 223.25 494.617188 226.171875 L 485.859375 235.425781 L 485.859375 233.964844 C 483.914062 118.5625 388.558594 26.53125 273.253906 27.992188 C 181.304688 29.453125 102.003906 90.320312 75.730469 178.453125 C 75.730469 179.425781 75.246094 179.914062 75.246094 180.886719 C 75.246094 184.296875 77.675781 187.21875 80.597656 188.191406 C 84.488281 189.167969 88.867188 187.21875 89.839844 182.835938 C 113.679688 100.542969 187.628906 44.546875 272.769531 43.085938 C 379.800781 41.625 467.859375 126.839844 469.804688 233.964844 L 469.804688 235.425781 L 460.5625 226.171875 C 457.644531 223.25 452.777344 223.25 449.859375 226.171875 C 448.398438 227.632812 447.914062 229.582031 447.914062 231.527344 C 447.914062 233.476562 448.886719 235.425781 450.34375 236.886719 L 472.726562 258.796875 C 475.644531 261.71875 480.507812 261.71875 483.429688 258.796875 L 505.320312 236.398438 C 508.726562 233.964844 508.242188 229.09375 505.320312 226.171875 Z M 505.320312 226.171875 " fill-opacity="1" fill-rule="nonzero"/><g clip-path="url(#0f969ba2b3)"><path fill="#000000" d="M 472.238281 286.550781 C 468.347656 285.578125 463.96875 287.527344 462.996094 291.910156 C 439.15625 374.199219 365.207031 430.195312 280.066406 431.65625 C 173.035156 433.117188 84.976562 347.90625 83.027344 240.78125 L 83.027344 239.320312 L 92.273438 248.570312 C 95.191406 251.492188 100.058594 251.492188 102.976562 248.570312 C 105.894531 245.648438 105.894531 240.78125 102.976562 237.859375 L 80.597656 215.949219 C 78.648438 214 76.703125 213.027344 74.757812 213.027344 C 72.8125 213.027344 70.867188 214 69.40625 215.460938 L 47.511719 237.859375 C 46.054688 239.320312 45.566406 241.269531 45.566406 243.214844 C 45.566406 245.164062 46.539062 247.109375 48 248.570312 C 50.917969 251.492188 55.785156 251.492188 58.703125 248.570312 L 67.460938 239.320312 L 67.460938 240.78125 C 69.40625 356.183594 164.761719 448.214844 280.066406 446.753906 C 372.015625 445.292969 451.320312 384.914062 477.589844 296.292969 C 478.5625 291.910156 476.128906 288.011719 472.238281 286.550781 Z M 472.238281 286.550781 " fill-opacity="1" fill-rule="nonzero"/></g><path fill="#000000" d="M 276.660156 389.296875 C 360.828125 389.296875 428.9375 321.125 428.9375 237.371094 C 428.9375 153.132812 360.828125 84.964844 276.660156 84.964844 C 192.980469 84.964844 124.867188 153.132812 124.867188 237.371094 C 124.867188 321.613281 192.492188 389.296875 276.660156 389.296875 Z M 276.660156 139.984375 C 300.011719 139.984375 318.5 158.976562 318.5 181.863281 C 318.5 205.234375 299.527344 223.738281 276.660156 223.738281 C 253.792969 223.738281 234.820312 204.746094 234.820312 181.863281 C 234.335938 158.488281 253.308594 139.984375 276.660156 139.984375 Z M 209.035156 267.5625 C 215.359375 250.03125 228.496094 236.886719 245.039062 230.554688 C 254.28125 236.398438 264.984375 240.292969 276.660156 240.292969 C 288.335938 240.292969 299.527344 236.886719 308.285156 230.554688 C 324.824219 236.886719 337.960938 250.519531 344.285156 267.5625 C 348.664062 280.222656 351.582031 293.371094 352.558594 306.515625 C 353.042969 312.847656 348.179688 317.714844 341.851562 317.714844 L 210.496094 317.714844 C 204.65625 317.714844 199.304688 312.847656 199.792969 306.515625 C 201.738281 293.371094 204.171875 280.222656 209.035156 267.5625 Z M 209.035156 267.5625 " fill-opacity="1" fill-rule="nonzero"/></svg>