<?xml version="1.0" encoding="UTF-8" standalone="no"?>
<svg
   width="743"
   zoomAndPan="magnify"
   viewBox="0 0 557.25 474.749981"
   height="633"
   preserveAspectRatio="xMidYMid meet"
   version="1.0"
   id="svg12"
   sodipodi:docname="change-avatar-4.svg"
   inkscape:version="1.3.2 (091e20e, 2023-11-25, custom)"
   xmlns:inkscape="http://www.inkscape.org/namespaces/inkscape"
   xmlns:sodipodi="http://sodipodi.sourceforge.net/DTD/sodipodi-0.dtd"
   xmlns="http://www.w3.org/2000/svg"
   xmlns:svg="http://www.w3.org/2000/svg">
  <sodipodi:namedview
     id="namedview12"
     pagecolor="#505050"
     bordercolor="#ffffff"
     borderopacity="1"
     inkscape:showpageshadow="0"
     inkscape:pageopacity="0"
     inkscape:pagecheckerboard="1"
     inkscape:deskcolor="#505050"
     inkscape:zoom="1.2274882"
     inkscape:cx="383.30309"
     inkscape:cy="437.07143"
     inkscape:window-width="1920"
     inkscape:window-height="991"
     inkscape:window-x="-9"
     inkscape:window-y="-9"
     inkscape:window-maximized="1"
     inkscape:current-layer="svg12" />
  <defs
     id="defs3">
    <clipPath
       id="ef472434d6">
      <path
         d="M 84 22.65625 L 294 22.65625 L 294 356 L 84 356 Z M 84 22.65625 "
         clip-rule="nonzero"
         id="path1" />
    </clipPath>
    <clipPath
       id="382480eeb7">
      <path
         d="M 60.113281 59 L 482.542969 59 L 482.542969 415 L 60.113281 415 Z M 60.113281 59 "
         clip-rule="nonzero"
         id="path2" />
    </clipPath>
    <clipPath
       id="35b43ae5dc">
      <path
         d="M 448 400 L 477 400 L 477 438.347656 L 448 438.347656 Z M 448 400 "
         clip-rule="nonzero"
         id="path3" />
    </clipPath>
  </defs>
  <g
     id="g12"
     transform="matrix(1.1295363,0,0,1.1295363,-28.575379,-22.491995)"
     style="stroke-width:0.99996784;stroke-dasharray:none;stroke:none;stroke-opacity:1">
    <path
       fill="#000000"
       d="m 282.73828,220.57031 c -20.88281,0 -37.875,-16.99609 -37.875,-37.88672 0,-20.89062 16.99219,-37.88281 37.875,-37.88281 20.88281,0 37.875,16.99219 37.875,37.88281 0,20.89063 -16.99219,37.88672 -37.875,37.88672 z m 0,-56.82812 c -10.44141,0 -18.9375,8.49609 -18.9375,18.9414 0,10.44532 8.49609,18.94141 18.9375,18.94141 10.44141,0 18.9375,-8.49609 18.9375,-18.94141 0,-10.44531 -8.49609,-18.9414 -18.9375,-18.9414 z m 0,0"
       fill-opacity="1"
       fill-rule="nonzero"
       id="path4"
       style="fill:#f49f1c;fill-opacity:1;stroke-width:0.99996784;stroke-dasharray:none;stroke:none;stroke-opacity:1" />
    <path
       fill="#000000"
       d="m 283.68359,349.375 c -73.09375,0 -132.55859,-58.63281 -132.55859,-130.69922 0,-72.07031 59.46484,-130.703124 132.55859,-130.703124 73.09375,0 132.5625,58.632814 132.5625,130.703124 0,72.06641 -59.46875,130.69922 -132.5625,130.69922 z m 0,-242.46094 c -62.65234,0 -113.62109,50.13672 -113.62109,111.76172 0,61.62109 50.96875,111.75781 113.62109,111.75781 62.65235,0 113.625,-50.13672 113.625,-111.75781 0,-61.625 -50.97265,-111.76172 -113.625,-111.76172 z m 0,0"
       fill-opacity="1"
       fill-rule="nonzero"
       id="path5"
       style="fill:#f49f1c;fill-opacity:1;stroke-width:0.99996784;stroke-dasharray:none;stroke:none;stroke-opacity:1" />
    <g
       clip-path="url(#ef472434d6)"
       id="g6"
       style="fill:#f49f1c;fill-opacity:1;stroke-width:0.99996784;stroke-dasharray:none;stroke:none;stroke-opacity:1">
      <path
         fill="#000000"
         d="m 145.44531,355.62109 c -2.5,0 -5,-0.98828 -6.85937,-2.94531 -34.65625,-36.4375 -53.74219,-84.02734 -53.74219,-134 0,-108.0664 89.19922,-195.980468 198.83984,-195.980468 5.23047,0 9.46875,4.238282 9.46875,9.46875 0,5.230469 -4.23828,9.472657 -9.46875,9.472657 -99.19922,0 -179.90234,79.417971 -179.90234,177.039061 0,45.08984 17.23438,88.04297 48.52344,120.94531 3.60547,3.78907 3.45703,9.78516 -0.33203,13.39063 -1.83204,1.74219 -4.17969,2.60937 -6.52735,2.60937 z m 0,0"
         fill-opacity="1"
         fill-rule="nonzero"
         id="path6"
         style="fill:#f49f1c;fill-opacity:1;stroke-width:0.99996784;stroke-dasharray:none;stroke:none;stroke-opacity:1" />
    </g>
    <g
       clip-path="url(#382480eeb7)"
       id="g7"
       style="fill:#f49f1c;fill-opacity:1;stroke-width:0.99996784;stroke-dasharray:none;stroke:none;stroke-opacity:1">
      <path
         fill="#000000"
         d="m 283.68359,414.65625 c -0.0664,0 -0.13672,0 -0.20703,-0.004 L 69.488281,409.98828 c -5.226562,-0.11328 -9.375,-4.44531 -9.261719,-9.67578 0.113282,-5.15625 4.328126,-9.26172 9.464844,-9.26172 0.06641,0 0.136719,0 0.207032,0 l 213.886722,4.66016 c 99.14843,-0.0586 179.80468,-79.45313 179.80468,-177.03516 0,-56.45312 -26.41015,-108.21094 -72.45703,-142.011718 -4.21875,-3.09375 -5.1289,-9.019531 -2.03125,-13.238281 3.08985,-4.214843 9.01953,-5.125 13.23438,-2.03125 24.33203,17.859375 44.5,41.320309 58.32812,67.851559 14.50391,27.83594 21.86328,57.92578 21.86328,89.42969 0,108.0625 -89.20312,195.98047 -198.84375,195.98047 z m 0,0"
         fill-opacity="1"
         fill-rule="nonzero"
         id="path7"
         style="fill:#f49f1c;fill-opacity:1;stroke-width:0.99996784;stroke-dasharray:none;stroke:none;stroke-opacity:1" />
    </g>
    <path
       fill="#000000"
       d="M 334.81641,296.33594 H 230.66016 c -5.23047,0 -9.46875,-4.23828 -9.46875,-9.46875 v -23.44141 c 0,-28.85547 23.46875,-52.32812 52.3164,-52.32812 h 18.46094 c 28.84766,0 52.31641,23.47265 52.31641,52.32812 v 23.44141 c 0,5.23047 -4.24219,9.46875 -9.46875,9.46875 z m -94.6875,-18.94141 h 85.21875 v -13.96875 c 0,-18.41016 -14.97266,-33.38672 -33.37891,-33.38672 h -18.46094 c -18.40625,0 -33.3789,14.97656 -33.3789,33.38672 z m 0,0"
       fill-opacity="1"
       fill-rule="nonzero"
       id="path8"
       style="fill:#f49f1c;fill-opacity:1;stroke-width:0.99996784;stroke-dasharray:none;stroke:none;stroke-opacity:1" />
    <path
       fill="#000000"
       d="m 467.375,419.46094 h -85.21484 c -5.23047,0 -9.46875,-4.23828 -9.46875,-9.46875 0,-5.23047 4.23828,-9.47266 9.46875,-9.47266 h 69.89453 l -2.61719,-5.23437 c -2.33984,-4.67969 -0.44141,-10.36719 4.23437,-12.70704 4.67579,-2.33984 10.36719,-0.4414 12.70313,4.23829 l 9.46875,18.9414 c 1.46875,2.9336 1.3125,6.42188 -0.41406,9.21485 -1.72266,2.78906 -4.77344,4.48828 -8.05469,4.48828 z m 0,0"
       fill-opacity="1"
       fill-rule="nonzero"
       id="path9"
       style="fill:#f49f1c;fill-opacity:1;stroke-width:0.99996784;stroke-dasharray:none;stroke:none;stroke-opacity:1" />
    <g
       clip-path="url(#35b43ae5dc)"
       id="g10"
       style="fill:#f49f1c;fill-opacity:1;stroke-width:0.99996784;stroke-dasharray:none;stroke:none;stroke-opacity:1">
      <path
         fill="#000000"
         d="m 457.89844,438.40625 c -1.42188,0 -2.86719,-0.32031 -4.22657,-1 -4.67578,-2.33984 -6.57031,-8.03125 -4.23437,-12.70703 l 9.46875,-18.94141 c 2.33984,-4.67969 8.02734,-6.57812 12.70312,-4.23828 4.67579,2.33984 6.57422,8.02734 4.23438,12.70703 l -9.46875,18.94141 c -1.65625,3.32031 -5.00391,5.23828 -8.47656,5.23828 z m 0,0"
         fill-opacity="1"
         fill-rule="nonzero"
         id="path10"
         style="fill:#f49f1c;fill-opacity:1;stroke-width:0.99996784;stroke-dasharray:none;stroke:none;stroke-opacity:1" />
    </g>
    <path
       fill="#000000"
       d="m 382.16016,97.445312 c -0.99219,0 -2.00391,-0.15625 -2.9961,-0.488281 -4.96094,-1.652343 -7.64062,-7.019531 -5.98828,-11.980469 L 382.64453,56.5625 c 1.28906,-3.867188 4.90625,-6.476562 8.98047,-6.476562 h 28.40625 c 5.23047,0 9.46875,4.242187 9.46875,9.472656 0,5.230468 -4.23828,9.472656 -9.46875,9.472656 h -21.57813 l -7.3125,21.9375 c -1.32031,3.964844 -5.01562,6.476562 -8.98046,6.476562 z m 0,0"
       fill-opacity="1"
       fill-rule="nonzero"
       id="path11"
       style="fill:#f49f1c;fill-opacity:1;stroke-width:0.99996784;stroke-dasharray:none;stroke:none;stroke-opacity:1" />
    <path
       fill="#000000"
       d="m 125.87109,363.10156 c -4.77734,0 -8.88281,-3.60937 -9.40234,-8.46875 -0.55469,-5.19922 3.21094,-9.86719 8.41016,-10.42187 l 20.03515,-2.13672 0.53516,-17.60938 c 0.15234,-5.13281 4.36328,-9.18359 9.45703,-9.18359 0.0977,0 0.19531,0 0.29297,0.004 5.22656,0.15625 9.33594,4.52343 9.17969,9.7539 l -0.78516,25.86328 c -0.14063,4.73047 -3.75391,8.62891 -8.46094,9.13282 l -28.24218,3.01171 c -0.34375,0.0352 -0.6836,0.0547 -1.01954,0.0547 z m 0,0"
       fill-opacity="1"
       fill-rule="nonzero"
       id="path12"
       style="fill:#f49f1c;fill-opacity:1;stroke-width:0.99996784;stroke-dasharray:none;stroke:none;stroke-opacity:1" />
  </g>
</svg>
