<?xml version="1.0" encoding="UTF-8" standalone="no"?>
<svg
   width="743"
   zoomAndPan="magnify"
   viewBox="0 0 557.25 474.749981"
   height="633"
   preserveAspectRatio="xMidYMid meet"
   version="1.0"
   id="svg9"
   sodipodi:docname="check-people.svg"
   inkscape:version="1.3.2 (091e20e, 2023-11-25, custom)"
   xmlns:inkscape="http://www.inkscape.org/namespaces/inkscape"
   xmlns:sodipodi="http://sodipodi.sourceforge.net/DTD/sodipodi-0.dtd"
   xmlns="http://www.w3.org/2000/svg"
   xmlns:svg="http://www.w3.org/2000/svg">
  <sodipodi:namedview
     id="namedview9"
     pagecolor="#505050"
     bordercolor="#ffffff"
     borderopacity="1"
     inkscape:showpageshadow="0"
     inkscape:pageopacity="0"
     inkscape:pagecheckerboard="1"
     inkscape:deskcolor="#505050"
     inkscape:zoom="0.35355339"
     inkscape:cx="632.15346"
     inkscape:cy="629.32503"
     inkscape:window-width="1920"
     inkscape:window-height="991"
     inkscape:window-x="-9"
     inkscape:window-y="-9"
     inkscape:window-maximized="1"
     inkscape:current-layer="svg9" />
  <defs
     id="defs1">
    <clipPath
       id="614b41ce18">
      <path
         d="M 68.25 13.25 L 486.1875 13.25 L 486.1875 458.898438 L 68.25 458.898438 Z M 68.25 13.25 "
         clip-rule="nonzero"
         id="path1" />
    </clipPath>
  </defs>
  <path
     fill="#000000"
     d="m 404.90442,171.77907 c 39.37867,0 69.80002,-37.45933 71.07953,-39.04863 2.12734,-2.64879 2.12734,-6.4183 0,-9.0793 -1.27135,-1.59759 -31.70086,-39.044607 -71.07953,-39.044607 -39.37478,0 -69.796,37.455187 -71.07574,39.044607 -2.12701,2.65277 -2.12701,6.42246 0,9.0793 1.27168,1.60163 31.70096,39.04863 71.07574,39.04863 z m -29.06434,-43.58828 c 0,-16.02765 13.03238,-29.056293 29.06434,-29.056293 16.03581,0 29.06836,13.028643 29.06836,29.056293 0,16.02771 -13.03255,29.06031 -29.06836,29.06031 -16.03196,0 -29.06434,-13.0326 -29.06434,-29.06031 z m 84.71111,0 c -3.11347,3.26024 -7.89364,7.87325 -13.86787,12.47003 1.17773,-3.95286 1.82549,-8.13826 1.82549,-12.47003 0,-4.33202 -0.64776,-8.51711 -1.82549,-12.46625 5.97423,4.59298 10.7544,9.20617 13.86787,12.46625 z m -97.42156,-12.46625 c -1.17773,3.94914 -1.82577,8.13423 -1.82577,12.46625 0,4.33177 0.64804,8.51717 1.82577,12.47003 -5.97439,-4.59678 -10.75455,-9.20979 -13.88021,-12.47003 3.11749,-3.26008 7.89362,-7.87327 13.88021,-12.46625 z m 0,0"
     fill-opacity="1"
     fill-rule="nonzero"
     id="path2"
     style="stroke-width:2.83464561;fill:#f49f1c;fill-opacity:1;stroke-dasharray:none;stroke:#f49f1c;stroke-opacity:1" />
  <path
     fill="#000000"
     d="m 404.90442,113.66269 c -4.01404,0 -7.26621,3.252 -7.26621,7.26599 v 14.52812 c 0,4.0141 3.25217,7.26216 7.26621,7.26216 4.01794,0 7.27026,-3.24806 7.27026,-7.26216 v -14.52812 c 0,-4.01399 -3.25232,-7.26599 -7.27026,-7.26599 z m 0,0"
     fill-opacity="1"
     fill-rule="nonzero"
     id="path3"
     style="stroke-width:2.83464561;fill:#f49f1c;fill-opacity:1;stroke-dasharray:none;stroke:#f49f1c;stroke-opacity:1" />
  <path
     fill="#000000"
     d="m 441.2389,295.27411 h -72.66883 c -4.01414,0 -7.26621,3.25189 -7.26621,7.26587 0,4.00991 3.25207,7.26206 7.26621,7.26206 h 72.66883 c 4.01812,0 7.26991,-3.25215 7.26991,-7.26206 0,-4.01398 -3.25179,-7.26587 -7.26991,-7.26587 z m 0,0"
     fill-opacity="1"
     fill-rule="nonzero"
     id="path4"
     style="stroke-width:2.83464561;fill:#f49f1c;fill-opacity:1;stroke-dasharray:none;stroke:#f49f1c;stroke-opacity:1" />
  <path
     fill="#000000"
     d="m 441.2389,324.32996 h -72.66883 c -4.01414,0 -7.26621,3.25212 -7.26621,7.2661 0,4.01413 3.25207,7.26621 7.26621,7.26621 h 72.66883 c 4.01812,0 7.26991,-3.25208 7.26991,-7.26621 0,-4.01398 -3.25179,-7.2661 -7.26991,-7.2661 z m 0,0"
     fill-opacity="1"
     fill-rule="nonzero"
     id="path5"
     style="stroke-width:2.83464561;fill:#f49f1c;fill-opacity:1;stroke-dasharray:none;stroke:#f49f1c;stroke-opacity:1" />
  <path
     fill="#000000"
     d="m 441.2389,353.39026 h -72.66883 c -4.01414,0 -7.26621,3.24797 -7.26621,7.2621 0,4.01421 3.25207,7.26601 7.26621,7.26601 h 72.66883 c 4.01812,0 7.26991,-3.2518 7.26991,-7.26601 0,-4.01413 -3.25179,-7.2621 -7.26991,-7.2621 z m 0,0"
     fill-opacity="1"
     fill-rule="nonzero"
     id="path6"
     style="stroke-width:2.83464561;fill:#f49f1c;fill-opacity:1;stroke-dasharray:none;stroke:#f49f1c;stroke-opacity:1" />
  <path
     fill="#000000"
     d="m 441.2389,382.44664 h -72.66883 c -4.01414,0 -7.26621,3.2518 -7.26621,7.26601 0,4.014 3.25207,7.26187 7.26621,7.26187 h 72.66883 c 4.01812,0 7.26991,-3.24787 7.26991,-7.26187 0,-4.01421 -3.25179,-7.26601 -7.26991,-7.26601 z m 0,0"
     fill-opacity="1"
     fill-rule="nonzero"
     id="path7"
     style="stroke-width:2.83464561;fill:#f49f1c;fill-opacity:1;stroke-dasharray:none;stroke:#f49f1c;stroke-opacity:1" />
  <path
     fill="#000000"
     d="m 441.2389,411.50249 h -72.66883 c -4.01414,0 -7.26621,3.25233 -7.26621,7.26621 0,4.01402 3.25207,7.26624 7.26621,7.26624 h 72.66883 c 4.01812,0 7.26991,-3.25222 7.26991,-7.26624 0,-4.01388 -3.25179,-7.26621 -7.26991,-7.26621 z m 0,0"
     fill-opacity="1"
     fill-rule="nonzero"
     id="path8"
     style="stroke-width:2.83464561;fill:#f49f1c;fill-opacity:1;stroke-dasharray:none;stroke:#f49f1c;stroke-opacity:1" />
  <g
     clip-path="url(#614b41ce18)"
     id="g9"
     transform="matrix(1.0432524,0,0,1.0432524,-7.8399054,-9.1271291)"
     style="fill:#f49f1c;fill-opacity:1;stroke-width:2.7171235;stroke-dasharray:none;stroke:#f49f1c;stroke-opacity:1">
    <path
       fill="#000000"
       d="m 465.28906,222.14844 h -42.67187 c -3.09766,-12.00391 -14.01953,-20.89063 -26.98438,-20.89063 -12.96484,0 -23.88281,8.88672 -26.98047,20.89063 h -42.67578 c -4.5,0 -8.67187,1.4375 -12.08203,3.86328 l -57.57422,-15.34375 v -25.41406 c 12.82031,-11.48438 20.89844,-28.14063 20.89844,-46.66407 V 87.453125 c 16.21094,-5.746094 27.86328,-21.230469 27.86328,-39.386719 V 20.214844 c 0,-3.847656 -3.11719,-6.964844 -6.96484,-6.964844 H 193.63281 c -23.05078,0 -41.79687,18.742188 -41.79687,41.78125 v 83.55859 c 0,18.51172 8.08203,35.17969 20.89843,46.66407 v 25.41406 L 92.8125,231.97656 C 78.351562,235.83203 68.25,248.97266 68.25,263.9375 v 90.52344 c 0,3.84375 3.117188,6.96093 6.964844,6.96093 H 305.08203 v 76.59766 c 0,11.51563 9.375,20.88672 20.89453,20.88672 h 139.3125 c 11.51953,0 20.89844,-9.37109 20.89844,-20.88672 V 243.04687 c 0,-11.51562 -9.37891,-20.89062 -20.89844,-20.89062 z m -90.55078,13.92578 c 3.84766,0 6.96484,-3.11328 6.96484,-6.96094 0,-7.67969 6.25,-13.92969 13.92969,-13.92969 7.67969,0 13.9336,6.25 13.9336,13.92969 0,3.84766 3.11718,6.96094 6.96484,6.96094 h 13.92969 V 250 h -69.65625 v -13.92578 z m -197.49219,-12.20313 25.32032,29.76953 -18.32813,7.76172 -10.46875,-36.60937 z m 74.56641,0 3.47266,0.92188 -10.46485,36.60937 -18.32812,-7.76172 z M 165.76953,55.03125 c 0,-15.363281 12.49219,-27.855469 27.86328,-27.855469 h 97.51563 v 20.890625 c 0,15.363282 -12.49219,27.855469 -27.85938,27.855469 h -97.51953 z m 0,83.55859 V 89.847656 h 97.51953 v 48.742184 c 0,26.87891 -21.875,48.74219 -48.76172,48.74219 -26.88672,0 -48.75781,-21.86328 -48.75781,-48.74219 z m 48.75781,62.66797 c 10.00391,0 19.46094,-2.36719 27.86328,-6.55469 v 18.75 l -27.86328,32.76172 -27.86328,-32.76172 v -18.75 c 8.40235,4.1875 17.85938,6.55469 27.86328,6.55469 z M 82.179688,347.48828 v -83.55859 c 0,-8.66407 5.851562,-16.26953 14.21875,-18.50782 l 63.910152,-17.03125 12.69532,44.41407 c 0.55078,1.91797 1.89062,3.50781 3.6914,4.37109 1.80469,0.86328 3.88281,0.90625 5.72266,0.12891 l 31.63281,-13.40235 c 0.15625,0.008 0.3125,0.0274 0.47656,0.0274 0.16797,0 0.32422,-0.0195 0.48047,-0.0274 l 31.63281,13.40235 c 0.8711,0.36718 1.79297,0.55078 2.71485,0.55078 1.02734,0 2.05469,-0.22656 3.0039,-0.67969 1.80469,-0.86328 3.14454,-2.45312 3.69141,-4.37109 l 12.69531,-44.41407 36.90235,9.83594 c -0.36719,1.54688 -0.56641,3.15625 -0.56641,4.8125 v 104.44922 z m 390.078122,90.51953 c 0,3.83985 -3.1289,6.96485 -6.96875,6.96485 h -139.3125 c -3.83984,0 -6.96484,-3.125 -6.96484,-6.96485 V 243.03906 c 0,-3.83984 3.125,-6.96484 6.96484,-6.96484 H 346.875 v 20.89062 c 0,3.84766 3.11719,6.96485 6.96484,6.96485 h 83.58985 c 3.84765,0 6.96484,-3.11719 6.96484,-6.96485 v -20.89062 h 20.89453 c 3.83985,0 6.96875,3.125 6.96875,6.96484 z m 0,0"
       fill-opacity="1"
       fill-rule="nonzero"
       id="path9"
       style="fill:#f49f1c;fill-opacity:1;stroke-width:2.7171235;stroke-dasharray:none;stroke:#f49f1c;stroke-opacity:1" />
  </g>
</svg>
