<svg xmlns="http://www.w3.org/2000/svg" xmlns:xlink="http://www.w3.org/1999/xlink" width="743" zoomAndPan="magnify" viewBox="0 0 557.25 474.749981" height="633" preserveAspectRatio="xMidYMid meet" version="1.0"><defs><clipPath id="edfd278d30"><path d="M 60.316406 66 L 503.722656 66 L 503.722656 416 L 60.316406 416 Z M 60.316406 66 " clip-rule="nonzero"/></clipPath></defs><g clip-path="url(#edfd278d30)"><path fill="#000000" d="M 464.132812 66.824219 L 99.90625 66.824219 C 98.609375 66.824219 97.316406 66.886719 96.027344 67.015625 C 94.738281 67.144531 93.457031 67.332031 92.183594 67.585938 C 90.914062 67.839844 89.65625 68.152344 88.414062 68.53125 C 87.175781 68.90625 85.957031 69.34375 84.757812 69.839844 C 83.558594 70.335938 82.386719 70.886719 81.246094 71.5 C 80.101562 72.109375 78.992188 72.777344 77.914062 73.496094 C 76.835938 74.21875 75.792969 74.988281 74.792969 75.8125 C 73.789062 76.632812 72.832031 77.503906 71.914062 78.421875 C 70.996094 79.335938 70.125 80.296875 69.304688 81.300781 C 68.480469 82.300781 67.710938 83.339844 66.988281 84.417969 C 66.269531 85.496094 65.605469 86.609375 64.992188 87.753906 C 64.382812 88.894531 63.828125 90.066406 63.332031 91.265625 C 62.835938 92.460938 62.398438 93.679688 62.023438 94.921875 C 61.644531 96.164062 61.332031 97.417969 61.078125 98.691406 C 60.824219 99.960938 60.636719 101.242188 60.507812 102.535156 C 60.382812 103.824219 60.316406 105.117188 60.316406 106.414062 L 60.316406 375.625 C 60.316406 376.921875 60.382812 378.214844 60.507812 379.503906 C 60.636719 380.792969 60.824219 382.074219 61.078125 383.347656 C 61.332031 384.617188 61.644531 385.875 62.023438 387.117188 C 62.398438 388.355469 62.835938 389.574219 63.332031 390.773438 C 63.828125 391.972656 64.382812 393.140625 64.992188 394.285156 C 65.605469 395.429688 66.269531 396.539062 66.988281 397.617188 C 67.710938 398.695312 68.480469 399.738281 69.304688 400.738281 C 70.125 401.742188 70.996094 402.699219 71.914062 403.617188 C 72.832031 404.535156 73.789062 405.402344 74.792969 406.226562 C 75.792969 407.050781 76.835938 407.820312 77.914062 408.542969 C 78.992188 409.261719 80.101562 409.925781 81.246094 410.539062 C 82.386719 411.148438 83.558594 411.703125 84.757812 412.199219 C 85.957031 412.695312 87.175781 413.132812 88.414062 413.507812 C 89.65625 413.886719 90.914062 414.199219 92.183594 414.453125 C 93.457031 414.707031 94.738281 414.894531 96.027344 415.023438 C 97.316406 415.148438 98.609375 415.214844 99.90625 415.214844 L 464.132812 415.214844 C 465.429688 415.214844 466.722656 415.148438 468.011719 415.023438 C 469.300781 414.894531 470.582031 414.707031 471.855469 414.453125 C 473.125 414.199219 474.382812 413.886719 475.625 413.507812 C 476.863281 413.132812 478.082031 412.695312 479.28125 412.199219 C 480.480469 411.703125 481.652344 411.148438 482.792969 410.539062 C 483.9375 409.925781 485.046875 409.261719 486.125 408.542969 C 487.203125 407.820312 488.246094 407.050781 489.246094 406.226562 C 490.25 405.402344 491.207031 404.535156 492.125 403.617188 C 493.042969 402.699219 493.914062 401.742188 494.734375 400.738281 C 495.558594 399.738281 496.328125 398.695312 497.050781 397.617188 C 497.769531 396.539062 498.433594 395.429688 499.046875 394.285156 C 499.65625 393.140625 500.210938 391.972656 500.707031 390.773438 C 501.203125 389.574219 501.640625 388.355469 502.015625 387.117188 C 502.394531 385.875 502.707031 384.617188 502.960938 383.347656 C 503.214844 382.074219 503.402344 380.792969 503.53125 379.503906 C 503.65625 378.214844 503.722656 376.921875 503.722656 375.625 L 503.722656 106.414062 C 503.722656 105.117188 503.65625 103.824219 503.53125 102.535156 C 503.402344 101.242188 503.214844 99.960938 502.960938 98.691406 C 502.707031 97.417969 502.394531 96.164062 502.015625 94.921875 C 501.640625 93.679688 501.203125 92.460938 500.707031 91.265625 C 500.210938 90.066406 499.65625 88.894531 499.046875 87.753906 C 498.433594 86.609375 497.769531 85.496094 497.050781 84.417969 C 496.328125 83.339844 495.558594 82.300781 494.734375 81.300781 C 493.914062 80.296875 493.042969 79.335938 492.125 78.421875 C 491.207031 77.503906 490.25 76.632812 489.246094 75.8125 C 488.246094 74.988281 487.203125 74.21875 486.125 73.496094 C 485.046875 72.777344 483.9375 72.109375 482.792969 71.5 C 481.652344 70.886719 480.480469 70.335938 479.28125 69.839844 C 478.082031 69.34375 476.863281 68.90625 475.625 68.53125 C 474.382812 68.152344 473.125 67.839844 471.855469 67.585938 C 470.582031 67.332031 469.300781 67.144531 468.011719 67.015625 C 466.722656 66.886719 465.429688 66.824219 464.132812 66.824219 Z M 487.886719 375.625 C 487.886719 376.402344 487.847656 377.175781 487.769531 377.953125 C 487.695312 378.726562 487.582031 379.496094 487.429688 380.257812 C 487.277344 381.019531 487.089844 381.773438 486.863281 382.519531 C 486.636719 383.261719 486.375 383.996094 486.078125 384.714844 C 485.78125 385.433594 485.445312 386.136719 485.082031 386.820312 C 484.714844 387.507812 484.3125 388.171875 483.882812 388.820312 C 483.449219 389.46875 482.988281 390.089844 482.492188 390.691406 C 482 391.292969 481.476562 391.871094 480.929688 392.421875 C 480.378906 392.96875 479.800781 393.492188 479.199219 393.984375 C 478.597656 394.480469 477.976562 394.941406 477.328125 395.375 C 476.679688 395.804688 476.015625 396.207031 475.328125 396.574219 C 474.644531 396.9375 473.941406 397.269531 473.222656 397.570312 C 472.503906 397.867188 471.769531 398.128906 471.027344 398.355469 C 470.28125 398.582031 469.527344 398.769531 468.765625 398.921875 C 468.003906 399.074219 467.234375 399.1875 466.460938 399.261719 C 465.6875 399.339844 464.910156 399.378906 464.132812 399.378906 L 99.90625 399.378906 C 99.128906 399.378906 98.351562 399.339844 97.578125 399.261719 C 96.804688 399.1875 96.035156 399.074219 95.273438 398.921875 C 94.511719 398.769531 93.757812 398.582031 93.011719 398.355469 C 92.269531 398.128906 91.535156 397.867188 90.816406 397.570312 C 90.097656 397.269531 89.394531 396.9375 88.710938 396.574219 C 88.023438 396.207031 87.359375 395.804688 86.710938 395.375 C 86.0625 394.941406 85.441406 394.480469 84.839844 393.984375 C 84.238281 393.492188 83.660156 392.96875 83.109375 392.421875 C 82.5625 391.871094 82.039062 391.292969 81.546875 390.691406 C 81.050781 390.089844 80.589844 389.46875 80.15625 388.820312 C 79.726562 388.171875 79.324219 387.507812 78.957031 386.820312 C 78.59375 386.136719 78.257812 385.433594 77.960938 384.714844 C 77.664062 383.996094 77.402344 383.261719 77.175781 382.519531 C 76.949219 381.773438 76.761719 381.019531 76.609375 380.257812 C 76.457031 379.496094 76.34375 378.726562 76.269531 377.953125 C 76.191406 377.175781 76.152344 376.402344 76.152344 375.625 L 76.152344 106.414062 C 76.152344 105.636719 76.191406 104.859375 76.269531 104.085938 C 76.34375 103.3125 76.457031 102.542969 76.609375 101.78125 C 76.761719 101.015625 76.949219 100.265625 77.175781 99.519531 C 77.402344 98.773438 77.664062 98.042969 77.960938 97.324219 C 78.257812 96.605469 78.59375 95.902344 78.957031 95.21875 C 79.324219 94.53125 79.726562 93.863281 80.15625 93.21875 C 80.589844 92.570312 81.050781 91.945312 81.546875 91.34375 C 82.039062 90.742188 82.5625 90.167969 83.109375 89.617188 C 83.660156 89.066406 84.238281 88.546875 84.839844 88.050781 C 85.441406 87.558594 86.0625 87.097656 86.710938 86.664062 C 87.359375 86.230469 88.023438 85.832031 88.710938 85.464844 C 89.394531 85.097656 90.097656 84.765625 90.816406 84.46875 C 91.535156 84.171875 92.269531 83.910156 93.011719 83.683594 C 93.757812 83.457031 94.511719 83.269531 95.273438 83.117188 C 96.035156 82.964844 96.804688 82.851562 97.578125 82.773438 C 98.351562 82.699219 99.128906 82.660156 99.90625 82.660156 L 464.132812 82.660156 C 464.910156 82.660156 465.6875 82.699219 466.460938 82.773438 C 467.234375 82.851562 468.003906 82.964844 468.765625 83.117188 C 469.527344 83.269531 470.28125 83.457031 471.027344 83.683594 C 471.769531 83.910156 472.503906 84.171875 473.222656 84.46875 C 473.941406 84.765625 474.644531 85.097656 475.328125 85.464844 C 476.015625 85.832031 476.679688 86.230469 477.328125 86.664062 C 477.976562 87.097656 478.597656 87.558594 479.199219 88.050781 C 479.800781 88.546875 480.378906 89.066406 480.929688 89.617188 C 481.476562 90.167969 482 90.742188 482.492188 91.34375 C 482.988281 91.945312 483.449219 92.570312 483.882812 93.21875 C 484.3125 93.863281 484.714844 94.53125 485.082031 95.21875 C 485.445312 95.902344 485.78125 96.605469 486.078125 97.324219 C 486.375 98.042969 486.636719 98.773438 486.863281 99.519531 C 487.089844 100.261719 487.277344 101.015625 487.429688 101.78125 C 487.582031 102.542969 487.695312 103.3125 487.769531 104.085938 C 487.847656 104.859375 487.886719 105.636719 487.886719 106.414062 Z M 448.296875 98.496094 L 115.742188 98.496094 C 114.964844 98.496094 114.1875 98.535156 113.414062 98.609375 C 112.640625 98.6875 111.871094 98.800781 111.109375 98.953125 C 110.347656 99.105469 109.59375 99.292969 108.847656 99.519531 C 108.105469 99.746094 107.371094 100.007812 106.652344 100.304688 C 105.933594 100.601562 105.230469 100.933594 104.546875 101.300781 C 103.859375 101.667969 103.191406 102.066406 102.546875 102.5 C 101.898438 102.933594 101.277344 103.394531 100.675781 103.886719 C 100.074219 104.382812 99.496094 104.902344 98.945312 105.453125 C 98.398438 106.003906 97.875 106.578125 97.382812 107.179688 C 96.886719 107.78125 96.425781 108.40625 95.992188 109.054688 C 95.5625 109.699219 95.160156 110.367188 94.792969 111.054688 C 94.425781 111.738281 94.09375 112.441406 93.796875 113.160156 C 93.5 113.878906 93.238281 114.609375 93.011719 115.355469 C 92.785156 116.097656 92.597656 116.851562 92.445312 117.617188 C 92.292969 118.378906 92.179688 119.148438 92.105469 119.921875 C 92.027344 120.695312 91.988281 121.472656 91.988281 122.25 L 91.988281 359.789062 C 91.988281 360.566406 92.027344 361.34375 92.105469 362.117188 C 92.179688 362.890625 92.292969 363.660156 92.445312 364.421875 C 92.597656 365.183594 92.785156 365.9375 93.011719 366.683594 C 93.238281 367.425781 93.5 368.160156 93.796875 368.878906 C 94.09375 369.597656 94.425781 370.300781 94.792969 370.984375 C 95.160156 371.671875 95.5625 372.335938 95.992188 372.984375 C 96.425781 373.632812 96.886719 374.253906 97.382812 374.855469 C 97.875 375.457031 98.398438 376.035156 98.945312 376.585938 C 99.496094 377.132812 100.074219 377.65625 100.675781 378.148438 C 101.277344 378.644531 101.898438 379.105469 102.546875 379.539062 C 103.191406 379.96875 103.859375 380.371094 104.546875 380.738281 C 105.230469 381.101562 105.933594 381.4375 106.652344 381.734375 C 107.371094 382.03125 108.105469 382.292969 108.847656 382.519531 C 109.59375 382.746094 110.347656 382.933594 111.109375 383.085938 C 111.871094 383.238281 112.640625 383.351562 113.414062 383.425781 C 114.1875 383.503906 114.964844 383.542969 115.742188 383.542969 L 448.296875 383.542969 C 449.074219 383.542969 449.851562 383.503906 450.625 383.425781 C 451.398438 383.351562 452.167969 383.238281 452.929688 383.085938 C 453.691406 382.933594 454.445312 382.746094 455.191406 382.519531 C 455.9375 382.292969 456.667969 382.03125 457.386719 381.734375 C 458.105469 381.4375 458.808594 381.101562 459.492188 380.738281 C 460.179688 380.371094 460.847656 379.96875 461.492188 379.539062 C 462.140625 379.105469 462.761719 378.644531 463.363281 378.148438 C 463.964844 377.65625 464.542969 377.132812 465.09375 376.585938 C 465.640625 376.035156 466.164062 375.457031 466.65625 374.855469 C 467.152344 374.253906 467.613281 373.632812 468.046875 372.984375 C 468.476562 372.335938 468.878906 371.671875 469.246094 370.984375 C 469.613281 370.300781 469.945312 369.597656 470.242188 368.878906 C 470.539062 368.160156 470.800781 367.425781 471.027344 366.683594 C 471.253906 365.9375 471.441406 365.183594 471.59375 364.421875 C 471.746094 363.660156 471.859375 362.890625 471.933594 362.117188 C 472.011719 361.34375 472.050781 360.566406 472.050781 359.789062 L 472.050781 122.25 C 472.050781 121.472656 472.011719 120.695312 471.933594 119.921875 C 471.859375 119.148438 471.746094 118.378906 471.59375 117.617188 C 471.441406 116.851562 471.253906 116.097656 471.027344 115.355469 C 470.800781 114.609375 470.539062 113.878906 470.242188 113.160156 C 469.945312 112.441406 469.613281 111.738281 469.246094 111.054688 C 468.878906 110.367188 468.476562 109.699219 468.046875 109.054688 C 467.613281 108.40625 467.152344 107.78125 466.65625 107.179688 C 466.164062 106.578125 465.640625 106.003906 465.09375 105.453125 C 464.542969 104.902344 463.964844 104.382812 463.363281 103.886719 C 462.761719 103.394531 462.140625 102.933594 461.492188 102.5 C 460.847656 102.066406 460.179688 101.667969 459.492188 101.300781 C 458.808594 100.933594 458.105469 100.601562 457.386719 100.304688 C 456.667969 100.007812 455.933594 99.746094 455.191406 99.519531 C 454.445312 99.292969 453.691406 99.105469 452.929688 98.953125 C 452.167969 98.800781 451.398438 98.6875 450.625 98.609375 C 449.851562 98.535156 449.074219 98.496094 448.296875 98.496094 Z M 456.214844 359.789062 C 456.214844 360.308594 456.164062 360.824219 456.0625 361.332031 C 455.960938 361.84375 455.808594 362.335938 455.609375 362.816406 C 455.410156 363.296875 455.167969 363.753906 454.878906 364.1875 C 454.589844 364.617188 454.261719 365.019531 453.894531 365.386719 C 453.527344 365.753906 453.125 366.082031 452.695312 366.371094 C 452.261719 366.660156 451.804688 366.902344 451.324219 367.101562 C 450.84375 367.300781 450.351562 367.453125 449.839844 367.554688 C 449.332031 367.65625 448.816406 367.707031 448.296875 367.707031 L 115.742188 367.707031 C 115.222656 367.707031 114.707031 367.65625 114.199219 367.554688 C 113.6875 367.453125 113.195312 367.300781 112.714844 367.101562 C 112.234375 366.902344 111.777344 366.660156 111.34375 366.371094 C 110.910156 366.082031 110.511719 365.753906 110.144531 365.386719 C 109.777344 365.019531 109.449219 364.617188 109.160156 364.1875 C 108.871094 363.753906 108.628906 363.296875 108.429688 362.816406 C 108.230469 362.335938 108.078125 361.84375 107.976562 361.332031 C 107.875 360.824219 107.824219 360.308594 107.824219 359.789062 L 107.824219 122.25 C 107.824219 121.730469 107.875 121.214844 107.976562 120.707031 C 108.078125 120.195312 108.230469 119.699219 108.429688 119.21875 C 108.628906 118.738281 108.871094 118.285156 109.160156 117.851562 C 109.449219 117.417969 109.777344 117.019531 110.144531 116.652344 C 110.511719 116.285156 110.910156 115.957031 111.34375 115.667969 C 111.777344 115.378906 112.234375 115.132812 112.714844 114.933594 C 113.195312 114.734375 113.6875 114.585938 114.199219 114.484375 C 114.707031 114.382812 115.222656 114.332031 115.742188 114.332031 L 448.296875 114.332031 C 448.816406 114.332031 449.332031 114.382812 449.839844 114.484375 C 450.351562 114.585938 450.84375 114.734375 451.324219 114.933594 C 451.804688 115.132812 452.261719 115.378906 452.695312 115.667969 C 453.125 115.957031 453.527344 116.285156 453.894531 116.652344 C 454.261719 117.019531 454.589844 117.417969 454.878906 117.851562 C 455.167969 118.285156 455.410156 118.738281 455.609375 119.21875 C 455.808594 119.699219 455.960938 120.195312 456.0625 120.707031 C 456.164062 121.214844 456.214844 121.730469 456.214844 122.25 Z M 258.265625 288.527344 C 259.925781 288.519531 261.566406 288.335938 263.191406 287.984375 C 264.8125 287.628906 266.378906 287.113281 267.894531 286.429688 C 269.40625 285.75 270.835938 284.917969 272.175781 283.9375 C 273.511719 282.957031 274.738281 281.847656 275.84375 280.609375 C 277.8125 278.441406 279.332031 275.992188 280.394531 273.261719 C 281.460938 270.53125 282.003906 267.703125 282.019531 264.773438 L 282.019531 153.921875 C 282.019531 153.144531 281.980469 152.367188 281.90625 151.59375 C 281.828125 150.820312 281.714844 150.050781 281.5625 149.289062 C 281.410156 148.523438 281.222656 147.769531 280.996094 147.027344 C 280.769531 146.28125 280.507812 145.550781 280.210938 144.832031 C 279.914062 144.113281 279.582031 143.410156 279.214844 142.722656 C 278.847656 142.039062 278.449219 141.371094 278.015625 140.726562 C 277.585938 140.078125 277.121094 139.453125 276.628906 138.851562 C 276.132812 138.25 275.613281 137.675781 275.0625 137.125 C 274.511719 136.574219 273.9375 136.054688 273.335938 135.558594 C 272.734375 135.066406 272.109375 134.605469 271.460938 134.171875 C 270.816406 133.738281 270.148438 133.339844 269.464844 132.972656 C 268.777344 132.605469 268.074219 132.273438 267.355469 131.976562 C 266.636719 131.679688 265.90625 131.417969 265.160156 131.191406 C 264.417969 130.964844 263.664062 130.777344 262.898438 130.625 C 262.136719 130.472656 261.367188 130.359375 260.59375 130.28125 C 259.820312 130.207031 259.042969 130.167969 258.265625 130.167969 L 147.414062 130.167969 C 146.636719 130.167969 145.859375 130.207031 145.085938 130.28125 C 144.3125 130.359375 143.542969 130.472656 142.78125 130.625 C 142.019531 130.777344 141.265625 130.964844 140.519531 131.191406 C 139.773438 131.417969 139.042969 131.679688 138.324219 131.976562 C 137.605469 132.273438 136.902344 132.605469 136.21875 132.972656 C 135.53125 133.339844 134.863281 133.738281 134.21875 134.171875 C 133.570312 134.605469 132.945312 135.066406 132.347656 135.558594 C 131.746094 136.054688 131.167969 136.574219 130.617188 137.125 C 130.070312 137.675781 129.546875 138.25 129.054688 138.851562 C 128.558594 139.453125 128.097656 140.078125 127.664062 140.726562 C 127.230469 141.371094 126.832031 142.039062 126.464844 142.722656 C 126.097656 143.410156 125.765625 144.113281 125.46875 144.832031 C 125.171875 145.550781 124.910156 146.28125 124.683594 147.027344 C 124.457031 147.769531 124.269531 148.523438 124.117188 149.289062 C 123.964844 150.050781 123.851562 150.820312 123.777344 151.59375 C 123.699219 152.367188 123.660156 153.144531 123.660156 153.921875 L 123.660156 264.773438 C 123.660156 265.550781 123.699219 266.328125 123.777344 267.101562 C 123.851562 267.875 123.964844 268.644531 124.117188 269.40625 C 124.269531 270.171875 124.457031 270.921875 124.683594 271.667969 C 124.910156 272.414062 125.171875 273.144531 125.46875 273.863281 C 125.765625 274.582031 126.097656 275.285156 126.464844 275.96875 C 126.832031 276.65625 127.230469 277.324219 127.664062 277.96875 C 128.097656 278.617188 128.558594 279.242188 129.054688 279.84375 C 129.546875 280.445312 130.070312 281.019531 130.617188 281.570312 C 131.167969 282.121094 131.746094 282.640625 132.347656 283.132812 C 132.945312 283.628906 133.570312 284.089844 134.21875 284.523438 C 134.863281 284.957031 135.53125 285.355469 136.21875 285.722656 C 136.902344 286.089844 137.605469 286.421875 138.324219 286.71875 C 139.042969 287.015625 139.773438 287.277344 140.519531 287.503906 C 141.265625 287.730469 142.019531 287.917969 142.78125 288.070312 C 143.542969 288.222656 144.3125 288.335938 145.085938 288.414062 C 145.859375 288.488281 146.636719 288.527344 147.414062 288.527344 Z M 147.414062 272.691406 C 146.429688 272.683594 145.480469 272.5 144.566406 272.136719 C 145.453125 270.007812 146.453125 267.929688 147.566406 265.910156 C 148.679688 263.890625 149.902344 261.9375 151.230469 260.046875 C 152.554688 258.160156 153.984375 256.351562 155.507812 254.621094 C 157.035156 252.890625 158.648438 251.246094 160.355469 249.691406 C 162.058594 248.136719 163.84375 246.679688 165.707031 245.320312 C 167.570312 243.960938 169.503906 242.707031 171.503906 241.558594 C 173.507812 240.40625 175.5625 239.371094 177.679688 238.449219 C 179.792969 237.523438 181.953125 236.71875 184.152344 236.03125 C 187.007812 237.636719 190.015625 238.863281 193.179688 239.707031 C 196.347656 240.550781 199.566406 240.988281 202.839844 241.019531 C 206.125 240.992188 209.351562 240.5625 212.527344 239.730469 C 215.703125 238.902344 218.730469 237.695312 221.605469 236.109375 C 223.8125 236.777344 225.976562 237.5625 228.097656 238.46875 C 230.214844 239.375 232.277344 240.398438 234.285156 241.53125 C 236.292969 242.667969 238.226562 243.914062 240.097656 245.261719 C 241.964844 246.613281 243.75 248.066406 245.457031 249.613281 C 247.164062 251.164062 248.78125 252.804688 250.304688 254.535156 C 251.828125 256.261719 253.253906 258.070312 254.578125 259.957031 C 255.902344 261.847656 257.117188 263.800781 258.222656 265.824219 C 259.328125 267.847656 260.320312 269.925781 261.195312 272.058594 C 260.265625 272.476562 259.289062 272.6875 258.265625 272.691406 Z M 202.839844 225.183594 C 202.0625 225.183594 201.285156 225.144531 200.511719 225.070312 C 199.738281 224.992188 198.96875 224.878906 198.207031 224.726562 C 197.441406 224.574219 196.691406 224.386719 195.945312 224.160156 C 195.199219 223.933594 194.46875 223.671875 193.75 223.375 C 193.03125 223.078125 192.328125 222.746094 191.644531 222.378906 C 190.957031 222.011719 190.289062 221.613281 189.644531 221.179688 C 188.996094 220.746094 188.371094 220.285156 187.769531 219.792969 C 187.167969 219.296875 186.59375 218.777344 186.042969 218.226562 C 185.492188 217.675781 184.972656 217.101562 184.476562 216.5 C 183.984375 215.898438 183.523438 215.273438 183.089844 214.625 C 182.65625 213.980469 182.257812 213.3125 181.890625 212.628906 C 181.523438 211.941406 181.191406 211.238281 180.894531 210.519531 C 180.597656 209.800781 180.335938 209.070312 180.109375 208.324219 C 179.882812 207.582031 179.695312 206.828125 179.542969 206.0625 C 179.390625 205.300781 179.277344 204.53125 179.199219 203.757812 C 179.125 202.984375 179.085938 202.207031 179.085938 201.429688 C 179.085938 200.652344 179.125 199.875 179.199219 199.101562 C 179.277344 198.328125 179.390625 197.558594 179.542969 196.796875 C 179.695312 196.03125 179.882812 195.277344 180.109375 194.535156 C 180.335938 193.789062 180.597656 193.058594 180.894531 192.339844 C 181.191406 191.621094 181.523438 190.917969 181.890625 190.230469 C 182.257812 189.546875 182.65625 188.878906 183.089844 188.234375 C 183.523438 187.585938 183.984375 186.960938 184.476562 186.359375 C 184.972656 185.757812 185.492188 185.183594 186.042969 184.632812 C 186.59375 184.082031 187.167969 183.5625 187.769531 183.066406 C 188.371094 182.574219 188.996094 182.109375 189.644531 181.679688 C 190.289062 181.246094 190.957031 180.847656 191.644531 180.480469 C 192.328125 180.113281 193.03125 179.78125 193.75 179.484375 C 194.46875 179.1875 195.199219 178.925781 195.945312 178.699219 C 196.691406 178.472656 197.441406 178.285156 198.207031 178.132812 C 198.96875 177.980469 199.738281 177.867188 200.511719 177.789062 C 201.285156 177.714844 202.0625 177.675781 202.839844 177.675781 C 203.617188 177.675781 204.394531 177.714844 205.167969 177.789062 C 205.941406 177.867188 206.710938 177.980469 207.472656 178.132812 C 208.238281 178.285156 208.992188 178.472656 209.734375 178.699219 C 210.480469 178.925781 211.210938 179.1875 211.929688 179.484375 C 212.648438 179.78125 213.351562 180.113281 214.039062 180.480469 C 214.722656 180.847656 215.390625 181.246094 216.039062 181.679688 C 216.683594 182.109375 217.308594 182.574219 217.910156 183.066406 C 218.511719 183.5625 219.085938 184.082031 219.636719 184.632812 C 220.1875 185.183594 220.707031 185.757812 221.203125 186.359375 C 221.695312 186.960938 222.160156 187.585938 222.589844 188.234375 C 223.023438 188.878906 223.421875 189.546875 223.789062 190.230469 C 224.15625 190.917969 224.488281 191.621094 224.785156 192.339844 C 225.082031 193.058594 225.34375 193.789062 225.570312 194.535156 C 225.796875 195.277344 225.984375 196.03125 226.136719 196.796875 C 226.289062 197.558594 226.402344 198.328125 226.480469 199.101562 C 226.554688 199.875 226.59375 200.652344 226.59375 201.429688 C 226.59375 202.207031 226.554688 202.984375 226.480469 203.757812 C 226.402344 204.53125 226.289062 205.300781 226.136719 206.0625 C 225.984375 206.828125 225.796875 207.582031 225.570312 208.324219 C 225.34375 209.070312 225.082031 209.800781 224.785156 210.519531 C 224.488281 211.238281 224.15625 211.941406 223.789062 212.628906 C 223.421875 213.3125 223.023438 213.980469 222.589844 214.625 C 222.160156 215.273438 221.695312 215.898438 221.203125 216.5 C 220.707031 217.101562 220.1875 217.675781 219.636719 218.226562 C 219.085938 218.777344 218.511719 219.296875 217.910156 219.792969 C 217.308594 220.285156 216.683594 220.746094 216.039062 221.179688 C 215.390625 221.613281 214.722656 222.011719 214.039062 222.378906 C 213.351562 222.746094 212.648438 223.078125 211.929688 223.375 C 211.210938 223.671875 210.480469 223.933594 209.734375 224.160156 C 208.992188 224.386719 208.238281 224.574219 207.472656 224.726562 C 206.710938 224.878906 205.941406 224.992188 205.167969 225.070312 C 204.394531 225.144531 203.617188 225.183594 202.839844 225.183594 Z M 147.414062 146.003906 L 258.265625 146.003906 C 258.785156 146.003906 259.300781 146.054688 259.808594 146.15625 C 260.320312 146.257812 260.816406 146.40625 261.296875 146.605469 C 261.777344 146.804688 262.234375 147.050781 262.664062 147.339844 C 263.097656 147.628906 263.496094 147.957031 263.863281 148.324219 C 264.230469 148.691406 264.558594 149.089844 264.847656 149.523438 C 265.136719 149.957031 265.382812 150.410156 265.582031 150.890625 C 265.78125 151.371094 265.929688 151.867188 266.03125 152.378906 C 266.132812 152.886719 266.183594 153.402344 266.183594 153.921875 L 266.183594 248.9375 C 263.941406 245.902344 261.488281 243.054688 258.820312 240.386719 C 251.925781 233.460938 244.007812 228.023438 235.066406 224.074219 C 237.441406 220.777344 239.261719 217.195312 240.515625 213.328125 C 241.773438 209.460938 242.410156 205.496094 242.429688 201.429688 C 242.429688 200.132812 242.367188 198.839844 242.238281 197.550781 C 242.113281 196.257812 241.921875 194.976562 241.667969 193.707031 C 241.417969 192.433594 241.101562 191.179688 240.726562 189.9375 C 240.347656 188.695312 239.914062 187.476562 239.417969 186.277344 C 238.921875 185.082031 238.367188 183.910156 237.753906 182.765625 C 237.144531 181.625 236.476562 180.511719 235.757812 179.433594 C 235.039062 178.355469 234.265625 177.316406 233.445312 176.3125 C 232.621094 175.3125 231.75 174.351562 230.835938 173.433594 C 229.917969 172.519531 228.957031 171.648438 227.957031 170.828125 C 226.953125 170.003906 225.914062 169.230469 224.835938 168.511719 C 223.757812 167.792969 222.644531 167.125 221.503906 166.515625 C 220.359375 165.902344 219.1875 165.351562 217.992188 164.851562 C 216.792969 164.355469 215.574219 163.921875 214.332031 163.542969 C 213.09375 163.167969 211.835938 162.855469 210.5625 162.601562 C 209.292969 162.347656 208.011719 162.15625 206.722656 162.03125 C 205.429688 161.902344 204.136719 161.839844 202.839844 161.839844 C 201.542969 161.839844 200.25 161.902344 198.960938 162.03125 C 197.667969 162.15625 196.386719 162.347656 195.117188 162.601562 C 193.84375 162.855469 192.589844 163.167969 191.347656 163.542969 C 190.105469 163.921875 188.886719 164.355469 187.691406 164.851562 C 186.492188 165.351562 185.320312 165.902344 184.179688 166.515625 C 183.035156 167.125 181.921875 167.792969 180.84375 168.511719 C 179.765625 169.230469 178.726562 170.003906 177.726562 170.828125 C 176.722656 171.648438 175.761719 172.519531 174.847656 173.433594 C 173.929688 174.351562 173.058594 175.3125 172.238281 176.3125 C 171.414062 177.316406 170.644531 178.355469 169.921875 179.433594 C 169.203125 180.511719 168.535156 181.625 167.925781 182.765625 C 167.3125 183.910156 166.761719 185.082031 166.265625 186.277344 C 165.769531 187.476562 165.332031 188.695312 164.957031 189.9375 C 164.578125 191.179688 164.265625 192.433594 164.011719 193.707031 C 163.757812 194.976562 163.570312 196.257812 163.441406 197.550781 C 163.3125 198.839844 163.25 200.132812 163.25 201.429688 C 163.253906 205.523438 163.882812 209.515625 165.140625 213.410156 C 166.398438 217.304688 168.222656 220.914062 170.613281 224.234375 C 164.480469 226.988281 158.777344 230.457031 153.511719 234.640625 C 148.242188 238.820312 143.574219 243.585938 139.496094 248.9375 L 139.496094 153.921875 C 139.496094 153.402344 139.546875 152.886719 139.648438 152.378906 C 139.75 151.867188 139.902344 151.371094 140.101562 150.890625 C 140.296875 150.410156 140.542969 149.957031 140.832031 149.523438 C 141.121094 149.089844 141.449219 148.691406 141.816406 148.324219 C 142.183594 147.957031 142.582031 147.628906 143.015625 147.339844 C 143.449219 147.050781 143.90625 146.804688 144.386719 146.605469 C 144.867188 146.40625 145.359375 146.257812 145.871094 146.15625 C 146.378906 146.054688 146.894531 146.003906 147.414062 146.003906 Z M 305.773438 177.675781 C 305.773438 177.15625 305.824219 176.640625 305.925781 176.132812 C 306.027344 175.621094 306.175781 175.125 306.375 174.644531 C 306.574219 174.164062 306.820312 173.710938 307.109375 173.277344 C 307.398438 172.84375 307.726562 172.445312 308.09375 172.078125 C 308.460938 171.710938 308.859375 171.382812 309.292969 171.09375 C 309.722656 170.804688 310.179688 170.558594 310.660156 170.359375 C 311.140625 170.160156 311.636719 170.011719 312.144531 169.910156 C 312.65625 169.808594 313.171875 169.757812 313.691406 169.757812 L 384.953125 169.757812 C 385.472656 169.757812 385.988281 169.808594 386.496094 169.910156 C 387.007812 170.011719 387.503906 170.160156 387.984375 170.359375 C 388.460938 170.558594 388.917969 170.804688 389.351562 171.09375 C 389.785156 171.382812 390.183594 171.710938 390.550781 172.078125 C 390.917969 172.445312 391.246094 172.84375 391.535156 173.277344 C 391.824219 173.710938 392.070312 174.164062 392.269531 174.644531 C 392.464844 175.125 392.617188 175.621094 392.71875 176.132812 C 392.820312 176.640625 392.871094 177.15625 392.871094 177.675781 C 392.871094 178.195312 392.820312 178.710938 392.71875 179.21875 C 392.617188 179.730469 392.464844 180.226562 392.269531 180.707031 C 392.070312 181.1875 391.824219 181.640625 391.535156 182.074219 C 391.246094 182.507812 390.917969 182.90625 390.550781 183.273438 C 390.183594 183.640625 389.785156 183.96875 389.351562 184.257812 C 388.917969 184.546875 388.460938 184.792969 387.984375 184.992188 C 387.503906 185.191406 387.007812 185.339844 386.496094 185.441406 C 385.988281 185.542969 385.472656 185.59375 384.953125 185.59375 L 313.691406 185.59375 C 313.171875 185.59375 312.65625 185.542969 312.144531 185.441406 C 311.636719 185.339844 311.140625 185.191406 310.660156 184.992188 C 310.179688 184.792969 309.722656 184.546875 309.292969 184.257812 C 308.859375 183.96875 308.460938 183.640625 308.09375 183.273438 C 307.726562 182.90625 307.398438 182.507812 307.109375 182.074219 C 306.820312 181.640625 306.574219 181.1875 306.375 180.707031 C 306.175781 180.226562 306.027344 179.730469 305.925781 179.21875 C 305.824219 178.710938 305.773438 178.195312 305.773438 177.675781 Z M 432.460938 209.347656 C 432.460938 209.867188 432.410156 210.382812 432.308594 210.890625 C 432.207031 211.402344 432.054688 211.898438 431.855469 212.378906 C 431.65625 212.859375 431.414062 213.3125 431.125 213.746094 C 430.835938 214.179688 430.507812 214.578125 430.140625 214.945312 C 429.773438 215.3125 429.375 215.640625 428.941406 215.929688 C 428.507812 216.21875 428.050781 216.464844 427.570312 216.664062 C 427.089844 216.863281 426.597656 217.011719 426.085938 217.113281 C 425.578125 217.214844 425.0625 217.265625 424.542969 217.265625 L 313.691406 217.265625 C 313.171875 217.265625 312.65625 217.214844 312.144531 217.113281 C 311.636719 217.011719 311.140625 216.863281 310.660156 216.664062 C 310.179688 216.464844 309.722656 216.21875 309.292969 215.929688 C 308.859375 215.640625 308.460938 215.3125 308.09375 214.945312 C 307.726562 214.578125 307.398438 214.179688 307.109375 213.746094 C 306.820312 213.3125 306.574219 212.859375 306.375 212.378906 C 306.175781 211.898438 306.027344 211.402344 305.925781 210.890625 C 305.824219 210.382812 305.773438 209.867188 305.773438 209.347656 C 305.773438 208.828125 305.824219 208.3125 305.925781 207.800781 C 306.027344 207.292969 306.175781 206.796875 306.375 206.316406 C 306.574219 205.835938 306.820312 205.378906 307.109375 204.949219 C 307.398438 204.515625 307.726562 204.117188 308.09375 203.75 C 308.460938 203.382812 308.859375 203.054688 309.292969 202.765625 C 309.722656 202.476562 310.179688 202.230469 310.660156 202.03125 C 311.140625 201.832031 311.636719 201.683594 312.144531 201.582031 C 312.65625 201.480469 313.171875 201.429688 313.691406 201.429688 L 424.542969 201.429688 C 425.0625 201.429688 425.578125 201.480469 426.085938 201.582031 C 426.597656 201.683594 427.089844 201.832031 427.570312 202.03125 C 428.050781 202.230469 428.507812 202.476562 428.941406 202.765625 C 429.375 203.054688 429.773438 203.382812 430.140625 203.75 C 430.507812 204.117188 430.835938 204.515625 431.125 204.949219 C 431.414062 205.378906 431.65625 205.835938 431.855469 206.316406 C 432.054688 206.796875 432.207031 207.292969 432.308594 207.800781 C 432.410156 208.3125 432.460938 208.828125 432.460938 209.347656 Z M 313.691406 248.9375 C 313.171875 248.9375 312.65625 248.886719 312.144531 248.785156 C 311.636719 248.683594 311.140625 248.535156 310.660156 248.335938 C 310.179688 248.136719 309.722656 247.890625 309.292969 247.601562 C 308.859375 247.3125 308.460938 246.984375 308.09375 246.617188 C 307.726562 246.25 307.398438 245.851562 307.109375 245.417969 C 306.820312 244.984375 306.574219 244.53125 306.375 244.050781 C 306.175781 243.570312 306.027344 243.074219 305.925781 242.5625 C 305.824219 242.054688 305.773438 241.539062 305.773438 241.019531 C 305.773438 240.5 305.824219 239.984375 305.925781 239.472656 C 306.027344 238.964844 306.175781 238.46875 306.375 237.988281 C 306.574219 237.507812 306.820312 237.050781 307.109375 236.621094 C 307.398438 236.1875 307.726562 235.789062 308.09375 235.421875 C 308.460938 235.050781 308.859375 234.722656 309.292969 234.4375 C 309.722656 234.148438 310.179688 233.902344 310.660156 233.703125 C 311.140625 233.503906 311.636719 233.355469 312.144531 233.253906 C 312.65625 233.152344 313.171875 233.101562 313.691406 233.101562 L 384.953125 233.101562 C 385.472656 233.101562 385.988281 233.152344 386.496094 233.253906 C 387.007812 233.355469 387.503906 233.503906 387.984375 233.703125 C 388.460938 233.902344 388.917969 234.148438 389.351562 234.4375 C 389.785156 234.722656 390.183594 235.050781 390.550781 235.421875 C 390.917969 235.789062 391.246094 236.1875 391.535156 236.621094 C 391.824219 237.050781 392.070312 237.507812 392.269531 237.988281 C 392.464844 238.46875 392.617188 238.964844 392.71875 239.472656 C 392.820312 239.984375 392.871094 240.5 392.871094 241.019531 C 392.871094 241.539062 392.820312 242.054688 392.71875 242.5625 C 392.617188 243.074219 392.464844 243.570312 392.269531 244.050781 C 392.070312 244.53125 391.824219 244.984375 391.535156 245.417969 C 391.246094 245.851562 390.917969 246.25 390.550781 246.617188 C 390.183594 246.984375 389.785156 247.3125 389.351562 247.601562 C 388.917969 247.890625 388.460938 248.136719 387.984375 248.335938 C 387.503906 248.535156 387.007812 248.683594 386.496094 248.785156 C 385.988281 248.886719 385.472656 248.9375 384.953125 248.9375 Z M 242.429688 304.363281 C 242.949219 304.363281 243.464844 304.414062 243.976562 304.515625 C 244.484375 304.617188 244.980469 304.765625 245.460938 304.964844 C 245.941406 305.164062 246.398438 305.40625 246.828125 305.695312 C 247.261719 305.984375 247.660156 306.3125 248.027344 306.679688 C 248.394531 307.050781 248.722656 307.449219 249.011719 307.882812 C 249.300781 308.3125 249.546875 308.769531 249.746094 309.25 C 249.945312 309.730469 250.09375 310.226562 250.195312 310.734375 C 250.296875 311.246094 250.347656 311.761719 250.347656 312.28125 C 250.347656 312.800781 250.296875 313.316406 250.195312 313.824219 C 250.09375 314.335938 249.945312 314.828125 249.746094 315.308594 C 249.546875 315.789062 249.300781 316.246094 249.011719 316.679688 C 248.722656 317.113281 248.394531 317.511719 248.027344 317.878906 C 247.660156 318.246094 247.261719 318.574219 246.828125 318.863281 C 246.398438 319.152344 245.941406 319.398438 245.460938 319.59375 C 244.980469 319.792969 244.484375 319.945312 243.976562 320.046875 C 243.464844 320.148438 242.949219 320.199219 242.429688 320.199219 L 147.414062 320.199219 C 146.894531 320.199219 146.378906 320.148438 145.871094 320.046875 C 145.359375 319.945312 144.867188 319.792969 144.386719 319.59375 C 143.90625 319.398438 143.449219 319.152344 143.015625 318.863281 C 142.582031 318.574219 142.183594 318.246094 141.816406 317.878906 C 141.449219 317.511719 141.121094 317.113281 140.832031 316.679688 C 140.542969 316.246094 140.296875 315.789062 140.101562 315.308594 C 139.902344 314.828125 139.75 314.335938 139.648438 313.824219 C 139.546875 313.316406 139.496094 312.800781 139.496094 312.28125 C 139.496094 311.761719 139.546875 311.246094 139.648438 310.734375 C 139.75 310.226562 139.902344 309.730469 140.101562 309.25 C 140.296875 308.769531 140.542969 308.3125 140.832031 307.882812 C 141.121094 307.449219 141.449219 307.050781 141.816406 306.679688 C 142.183594 306.3125 142.582031 305.984375 143.015625 305.695312 C 143.449219 305.40625 143.90625 305.164062 144.386719 304.964844 C 144.867188 304.765625 145.359375 304.617188 145.871094 304.515625 C 146.378906 304.414062 146.894531 304.363281 147.414062 304.363281 Z M 408.707031 343.953125 C 408.707031 344.472656 408.65625 344.988281 408.554688 345.496094 C 408.453125 346.007812 408.300781 346.5 408.101562 346.980469 C 407.90625 347.460938 407.660156 347.917969 407.371094 348.351562 C 407.082031 348.78125 406.753906 349.183594 406.386719 349.550781 C 406.019531 349.917969 405.621094 350.246094 405.1875 350.535156 C 404.753906 350.824219 404.296875 351.066406 403.816406 351.265625 C 403.335938 351.464844 402.84375 351.617188 402.332031 351.71875 C 401.824219 351.820312 401.308594 351.871094 400.789062 351.871094 L 147.414062 351.871094 C 146.894531 351.871094 146.378906 351.820312 145.871094 351.71875 C 145.359375 351.617188 144.867188 351.464844 144.386719 351.265625 C 143.90625 351.066406 143.449219 350.824219 143.015625 350.535156 C 142.582031 350.246094 142.183594 349.917969 141.816406 349.550781 C 141.449219 349.183594 141.121094 348.78125 140.832031 348.351562 C 140.542969 347.917969 140.296875 347.460938 140.101562 346.980469 C 139.902344 346.5 139.75 346.007812 139.648438 345.496094 C 139.546875 344.988281 139.496094 344.472656 139.496094 343.953125 C 139.496094 343.433594 139.546875 342.917969 139.648438 342.40625 C 139.75 341.898438 139.902344 341.402344 140.101562 340.921875 C 140.296875 340.441406 140.542969 339.984375 140.832031 339.554688 C 141.121094 339.121094 141.449219 338.722656 141.816406 338.351562 C 142.183594 337.984375 142.582031 337.65625 143.015625 337.367188 C 143.449219 337.078125 143.90625 336.835938 144.386719 336.636719 C 144.867188 336.4375 145.359375 336.289062 145.871094 336.1875 C 146.378906 336.085938 146.894531 336.035156 147.414062 336.035156 L 400.789062 336.035156 C 401.308594 336.035156 401.824219 336.085938 402.332031 336.1875 C 402.84375 336.289062 403.339844 336.4375 403.816406 336.636719 C 404.296875 336.835938 404.753906 337.078125 405.1875 337.367188 C 405.621094 337.65625 406.019531 337.984375 406.386719 338.351562 C 406.753906 338.722656 407.082031 339.121094 407.371094 339.554688 C 407.660156 339.984375 407.90625 340.441406 408.101562 340.921875 C 408.300781 341.402344 408.453125 341.898438 408.554688 342.40625 C 408.65625 342.917969 408.707031 343.433594 408.707031 343.953125 Z M 408.707031 343.953125 " fill-opacity="1" fill-rule="nonzero"/></g></svg>