<svg xmlns="http://www.w3.org/2000/svg" xmlns:xlink="http://www.w3.org/1999/xlink" width="743" zoomAndPan="magnify" viewBox="0 0 557.25 474.749981" height="633" preserveAspectRatio="xMidYMid meet" version="1.0"><defs><clipPath id="ef7e56d358"><path d="M 47.410156 22 L 508.789062 22 L 508.789062 453 L 47.410156 453 Z M 47.410156 22 " clip-rule="nonzero"/></clipPath></defs><path fill="#000000" d="M 277.691406 146.960938 C 184.550781 146.960938 144.785156 230.464844 143.140625 234.046875 C 142.632812 235.140625 142.378906 236.292969 142.378906 237.503906 C 142.378906 238.710938 142.632812 239.863281 143.140625 240.960938 C 144.785156 244.539062 184.550781 328.046875 277.691406 328.046875 C 370.828125 328.046875 410.59375 244.539062 412.238281 240.960938 C 412.746094 239.863281 413 238.710938 413 237.503906 C 413 236.292969 412.746094 235.140625 412.238281 234.046875 C 410.59375 230.464844 370.828125 146.960938 277.691406 146.960938 Z M 277.691406 311.582031 C 204.328125 311.582031 167.976562 252.730469 159.796875 237.503906 C 168.019531 222.234375 204.328125 163.421875 277.691406 163.421875 C 351.050781 163.421875 387.402344 222.234375 395.582031 237.503906 C 387.402344 252.773438 351.050781 311.582031 277.691406 311.582031 Z M 277.691406 311.582031 " fill-opacity="1" fill-rule="nonzero"/><path fill="#000000" d="M 277.691406 188.117188 C 276.074219 188.117188 274.460938 188.195312 272.851562 188.351562 C 271.246094 188.511719 269.648438 188.75 268.0625 189.0625 C 266.476562 189.378906 264.910156 189.773438 263.367188 190.242188 C 261.820312 190.710938 260.300781 191.253906 258.804688 191.875 C 257.3125 192.492188 255.855469 193.183594 254.429688 193.945312 C 253.003906 194.710938 251.617188 195.539062 250.273438 196.4375 C 248.929688 197.335938 247.632812 198.300781 246.386719 199.324219 C 245.136719 200.351562 243.941406 201.4375 242.796875 202.582031 C 241.652344 203.722656 240.570312 204.921875 239.546875 206.171875 C 238.519531 207.421875 237.558594 208.71875 236.660156 210.066406 C 235.761719 211.410156 234.933594 212.796875 234.171875 214.222656 C 233.410156 215.648438 232.71875 217.109375 232.101562 218.601562 C 231.480469 220.097656 230.9375 221.617188 230.46875 223.167969 C 230 224.714844 229.609375 226.28125 229.292969 227.867188 C 228.976562 229.453125 228.738281 231.050781 228.582031 232.660156 C 228.421875 234.273438 228.34375 235.886719 228.34375 237.503906 C 228.34375 239.121094 228.421875 240.734375 228.582031 242.34375 C 228.738281 243.953125 228.976562 245.550781 229.292969 247.136719 C 229.609375 248.722656 230 250.292969 230.46875 251.839844 C 230.9375 253.386719 231.480469 254.90625 232.101562 256.402344 C 232.71875 257.898438 233.410156 259.355469 234.171875 260.785156 C 234.933594 262.210938 235.761719 263.597656 236.660156 264.941406 C 237.558594 266.285156 238.519531 267.582031 239.546875 268.832031 C 240.570312 270.085938 241.652344 271.28125 242.796875 272.425781 C 243.941406 273.570312 245.136719 274.652344 246.386719 275.679688 C 247.632812 276.707031 248.929688 277.667969 250.273438 278.566406 C 251.617188 279.464844 253.003906 280.296875 254.429688 281.058594 C 255.855469 281.820312 257.3125 282.511719 258.804688 283.128906 C 260.300781 283.75 261.820312 284.292969 263.367188 284.761719 C 264.910156 285.234375 266.476562 285.625 268.0625 285.941406 C 269.648438 286.257812 271.246094 286.492188 272.851562 286.652344 C 274.460938 286.8125 276.074219 286.890625 277.691406 286.890625 C 279.304688 286.890625 280.917969 286.8125 282.527344 286.652344 C 284.132812 286.492188 285.730469 286.257812 287.316406 285.941406 C 288.902344 285.625 290.46875 285.234375 292.015625 284.761719 C 293.558594 284.292969 295.078125 283.75 296.574219 283.128906 C 298.066406 282.511719 299.527344 281.820312 300.949219 281.058594 C 302.375 280.296875 303.761719 279.464844 305.105469 278.566406 C 306.449219 277.667969 307.746094 276.707031 308.992188 275.679688 C 310.242188 274.652344 311.4375 273.570312 312.582031 272.425781 C 313.726562 271.28125 314.808594 270.085938 315.832031 268.832031 C 316.859375 267.582031 317.820312 266.285156 318.71875 264.941406 C 319.617188 263.597656 320.445312 262.210938 321.207031 260.785156 C 321.96875 259.355469 322.660156 257.898438 323.277344 256.402344 C 323.898438 254.90625 324.441406 253.386719 324.910156 251.839844 C 325.378906 250.292969 325.769531 248.722656 326.085938 247.136719 C 326.402344 245.550781 326.640625 243.953125 326.796875 242.34375 C 326.957031 240.734375 327.035156 239.121094 327.035156 237.503906 C 327.035156 235.886719 326.957031 234.273438 326.796875 232.660156 C 326.640625 231.050781 326.402344 229.453125 326.085938 227.867188 C 325.769531 226.28125 325.378906 224.714844 324.910156 223.167969 C 324.441406 221.617188 323.898438 220.097656 323.277344 218.601562 C 322.660156 217.109375 321.96875 215.648438 321.207031 214.222656 C 320.445312 212.796875 319.617188 211.410156 318.71875 210.066406 C 317.820312 208.71875 316.859375 207.421875 315.835938 206.171875 C 314.808594 204.921875 313.726562 203.722656 312.582031 202.582031 C 311.4375 201.4375 310.242188 200.351562 308.992188 199.324219 C 307.746094 198.300781 306.449219 197.335938 305.105469 196.4375 C 303.761719 195.539062 302.375 194.710938 300.949219 193.945312 C 299.527344 193.183594 298.066406 192.492188 296.574219 191.875 C 295.078125 191.253906 293.558594 190.710938 292.015625 190.242188 C 290.46875 189.773438 288.902344 189.378906 287.316406 189.0625 C 285.730469 188.75 284.132812 188.511719 282.527344 188.351562 C 280.917969 188.195312 279.304688 188.117188 277.691406 188.117188 Z M 277.691406 270.425781 C 276.613281 270.425781 275.539062 270.375 274.464844 270.269531 C 273.394531 270.164062 272.328125 270.003906 271.273438 269.796875 C 270.214844 269.585938 269.171875 269.324219 268.140625 269.011719 C 267.109375 268.695312 266.097656 268.335938 265.101562 267.921875 C 264.105469 267.507812 263.132812 267.046875 262.183594 266.539062 C 261.230469 266.03125 260.308594 265.476562 259.414062 264.878906 C 258.515625 264.28125 257.652344 263.636719 256.820312 262.953125 C 255.988281 262.269531 255.191406 261.546875 254.429688 260.785156 C 253.664062 260.023438 252.941406 259.222656 252.261719 258.390625 C 251.578125 257.554688 250.933594 256.691406 250.335938 255.792969 C 249.738281 254.898438 249.183594 253.972656 248.675781 253.023438 C 248.167969 252.074219 247.710938 251.097656 247.296875 250.101562 C 246.882812 249.105469 246.523438 248.09375 246.210938 247.058594 C 245.894531 246.027344 245.636719 244.984375 245.425781 243.925781 C 245.214844 242.867188 245.054688 241.804688 244.949219 240.730469 C 244.84375 239.65625 244.792969 238.582031 244.792969 237.503906 C 244.792969 236.425781 244.84375 235.347656 244.949219 234.277344 C 245.054688 233.203125 245.214844 232.136719 245.425781 231.078125 C 245.636719 230.023438 245.894531 228.976562 246.210938 227.945312 C 246.523438 226.914062 246.882812 225.898438 247.296875 224.902344 C 247.710938 223.90625 248.167969 222.933594 248.675781 221.980469 C 249.183594 221.03125 249.738281 220.105469 250.335938 219.210938 C 250.933594 218.3125 251.578125 217.449219 252.261719 216.617188 C 252.941406 215.78125 253.664062 214.984375 254.429688 214.222656 C 255.191406 213.457031 255.988281 212.734375 256.820312 212.050781 C 257.652344 211.367188 258.515625 210.726562 259.414062 210.125 C 260.308594 209.527344 261.230469 208.972656 262.183594 208.464844 C 263.132812 207.957031 264.105469 207.496094 265.101562 207.085938 C 266.097656 206.671875 267.109375 206.308594 268.140625 205.996094 C 269.171875 205.683594 270.214844 205.421875 271.273438 205.210938 C 272.328125 205 273.394531 204.84375 274.464844 204.738281 C 275.539062 204.628906 276.613281 204.578125 277.691406 204.578125 C 278.765625 204.578125 279.839844 204.628906 280.914062 204.738281 C 281.984375 204.84375 283.050781 205 284.105469 205.210938 C 285.164062 205.421875 286.207031 205.683594 287.238281 205.996094 C 288.269531 206.308594 289.28125 206.671875 290.277344 207.085938 C 291.273438 207.496094 292.246094 207.957031 293.195312 208.464844 C 294.148438 208.972656 295.070312 209.527344 295.964844 210.125 C 296.863281 210.726562 297.726562 211.367188 298.558594 212.050781 C 299.390625 212.734375 300.1875 213.457031 300.949219 214.222656 C 301.714844 214.984375 302.4375 215.78125 303.121094 216.617188 C 303.800781 217.449219 304.445312 218.3125 305.042969 219.210938 C 305.640625 220.105469 306.195312 221.03125 306.703125 221.980469 C 307.210938 222.933594 307.671875 223.90625 308.082031 224.902344 C 308.496094 225.898438 308.855469 226.914062 309.167969 227.945312 C 309.484375 228.976562 309.742188 230.023438 309.953125 231.078125 C 310.164062 232.136719 310.324219 233.203125 310.429688 234.277344 C 310.535156 235.347656 310.585938 236.425781 310.585938 237.503906 C 310.585938 238.582031 310.535156 239.65625 310.429688 240.730469 C 310.324219 241.804688 310.164062 242.867188 309.953125 243.925781 C 309.742188 244.984375 309.484375 246.027344 309.167969 247.058594 C 308.855469 248.09375 308.496094 249.105469 308.082031 250.101562 C 307.671875 251.097656 307.210938 252.074219 306.703125 253.023438 C 306.195312 253.972656 305.640625 254.898438 305.042969 255.792969 C 304.445312 256.691406 303.800781 257.554688 303.121094 258.390625 C 302.4375 259.222656 301.714844 260.023438 300.949219 260.785156 C 300.1875 261.546875 299.390625 262.269531 298.558594 262.953125 C 297.726562 263.636719 296.863281 264.28125 295.964844 264.878906 C 295.070312 265.476562 294.148438 266.03125 293.195312 266.539062 C 292.246094 267.046875 291.273438 267.507812 290.277344 267.921875 C 289.28125 268.335938 288.269531 268.695312 287.238281 269.011719 C 286.207031 269.324219 285.164062 269.585938 284.105469 269.796875 C 283.050781 270.003906 281.984375 270.164062 280.914062 270.269531 C 279.839844 270.375 278.765625 270.425781 277.691406 270.425781 Z M 277.691406 270.425781 " fill-opacity="1" fill-rule="nonzero"/><g clip-path="url(#ef7e56d358)"><path fill="#000000" d="M 505.335938 202.726562 C 505.222656 201.96875 505.011719 201.238281 504.695312 200.542969 C 504.382812 199.84375 503.976562 199.199219 503.484375 198.617188 C 502.988281 198.03125 502.425781 197.523438 501.789062 197.097656 C 501.152344 196.667969 500.472656 196.335938 499.742188 196.101562 L 449.289062 180.171875 C 445.417969 168.628906 440.4375 157.589844 434.34375 147.050781 C 428.25 136.511719 421.171875 126.683594 413.101562 117.574219 L 424.492188 65.839844 C 424.660156 65.089844 424.722656 64.328125 424.679688 63.558594 C 424.636719 62.789062 424.484375 62.039062 424.230469 61.3125 C 423.976562 60.585938 423.628906 59.90625 423.183594 59.277344 C 422.738281 58.648438 422.214844 58.089844 421.613281 57.609375 C 412.515625 50.3125 402.921875 43.742188 392.832031 37.898438 C 382.738281 32.054688 372.265625 27.007812 361.414062 22.75 C 360.695312 22.46875 359.953125 22.292969 359.1875 22.222656 C 358.421875 22.152344 357.660156 22.1875 356.90625 22.328125 C 356.148438 22.46875 355.429688 22.710938 354.742188 23.058594 C 354.050781 23.402344 353.425781 23.835938 352.859375 24.355469 L 313.792969 60.121094 C 301.882812 57.691406 289.847656 56.476562 277.691406 56.476562 C 265.53125 56.476562 253.496094 57.691406 241.585938 60.121094 L 202.519531 24.355469 C 201.949219 23.832031 201.3125 23.394531 200.617188 23.050781 C 199.921875 22.703125 199.191406 22.460938 198.429688 22.324219 C 197.664062 22.1875 196.894531 22.15625 196.125 22.234375 C 195.351562 22.316406 194.605469 22.5 193.882812 22.792969 C 172.136719 31.460938 152.097656 43.082031 133.765625 57.652344 C 133.164062 58.132812 132.640625 58.6875 132.195312 59.316406 C 131.75 59.945312 131.402344 60.625 131.148438 61.351562 C 130.894531 62.082031 130.742188 62.828125 130.699219 63.597656 C 130.65625 64.367188 130.71875 65.128906 130.886719 65.882812 L 142.320312 117.613281 C 134.25 126.726562 127.167969 136.550781 121.078125 147.089844 C 114.984375 157.628906 110.003906 168.671875 106.132812 180.214844 L 55.636719 196.101562 C 54.898438 196.332031 54.210938 196.65625 53.566406 197.082031 C 52.921875 197.507812 52.351562 198.011719 51.847656 198.597656 C 51.347656 199.183594 50.933594 199.828125 50.613281 200.527344 C 50.292969 201.230469 50.074219 201.964844 49.960938 202.726562 C 48.253906 214.253906 47.40625 225.847656 47.410156 237.503906 C 47.367188 249.179688 48.242188 260.785156 50.042969 272.320312 C 50.160156 273.074219 50.375 273.800781 50.691406 274.492188 C 51.007812 275.1875 51.414062 275.824219 51.90625 276.40625 C 52.398438 276.988281 52.964844 277.492188 53.597656 277.914062 C 54.230469 278.339844 54.910156 278.671875 55.636719 278.90625 L 106.089844 294.832031 C 109.960938 306.375 114.941406 317.417969 121.035156 327.957031 C 127.128906 338.496094 134.207031 348.320312 142.277344 357.429688 L 130.886719 409.164062 C 130.71875 409.917969 130.65625 410.675781 130.699219 411.449219 C 130.742188 412.21875 130.894531 412.964844 131.148438 413.691406 C 131.402344 414.421875 131.75 415.097656 132.195312 415.730469 C 132.640625 416.359375 133.164062 416.914062 133.765625 417.394531 C 142.863281 424.691406 152.457031 431.261719 162.546875 437.105469 C 172.640625 442.949219 183.113281 448 193.96875 452.253906 C 194.683594 452.535156 195.425781 452.710938 196.191406 452.78125 C 196.957031 452.855469 197.71875 452.820312 198.472656 452.675781 C 199.230469 452.535156 199.949219 452.292969 200.636719 451.949219 C 201.328125 451.601562 201.953125 451.171875 202.519531 450.648438 L 241.585938 414.886719 C 253.496094 417.3125 265.53125 418.527344 277.691406 418.527344 C 289.847656 418.527344 301.882812 417.3125 313.792969 414.886719 L 352.859375 450.648438 C 353.617188 451.339844 354.476562 451.871094 355.433594 452.238281 C 356.390625 452.609375 357.382812 452.792969 358.410156 452.789062 C 359.445312 452.800781 360.445312 452.621094 361.414062 452.253906 C 372.269531 447.992188 382.742188 442.9375 392.832031 437.085938 C 402.921875 431.234375 412.515625 424.660156 421.613281 417.355469 C 422.214844 416.871094 422.738281 416.316406 423.183594 415.6875 C 423.628906 415.058594 423.976562 414.378906 424.230469 413.652344 C 424.484375 412.925781 424.636719 412.175781 424.679688 411.40625 C 424.722656 410.636719 424.660156 409.875 424.492188 409.125 L 413.058594 357.429688 C 421.128906 348.320312 428.210938 338.496094 434.300781 327.957031 C 440.394531 317.417969 445.375 306.375 449.246094 294.832031 L 499.742188 278.90625 C 500.476562 278.671875 501.160156 278.34375 501.800781 277.914062 C 502.441406 277.488281 503.007812 276.984375 503.507812 276.398438 C 504.003906 275.8125 504.414062 275.171875 504.730469 274.46875 C 505.046875 273.769531 505.265625 273.039062 505.378906 272.28125 C 507.132812 260.753906 508.007812 249.160156 508.007812 237.503906 C 508.007812 225.84375 507.132812 214.25 505.378906 202.726562 Z M 489.792969 264.746094 L 440.445312 280.429688 C 439.8125 280.628906 439.210938 280.902344 438.640625 281.25 C 438.074219 281.597656 437.554688 282.007812 437.085938 282.480469 C 436.613281 282.953125 436.210938 283.476562 435.867188 284.046875 C 435.523438 284.621094 435.253906 285.222656 435.058594 285.859375 C 431.398438 297.714844 426.46875 309.007812 420.261719 319.75 C 414.058594 330.488281 406.734375 340.402344 398.296875 349.488281 C 397.828125 349.964844 397.421875 350.492188 397.078125 351.070312 C 396.734375 351.644531 396.46875 352.253906 396.273438 352.894531 C 396.082031 353.539062 395.96875 354.195312 395.933594 354.863281 C 395.902344 355.535156 395.949219 356.199219 396.078125 356.855469 L 407.304688 407.640625 C 392.761719 418.8125 377.039062 427.949219 360.136719 435.050781 L 321.769531 399.90625 C 321.015625 399.207031 320.15625 398.667969 319.199219 398.292969 C 318.242188 397.917969 317.25 397.726562 316.21875 397.722656 C 315.617188 397.660156 315.015625 397.660156 314.410156 397.722656 C 302.328125 400.5 290.085938 401.890625 277.691406 401.890625 C 265.292969 401.890625 253.050781 400.5 240.96875 397.722656 C 240.320312 397.578125 239.664062 397.511719 239 397.527344 C 238.339844 397.542969 237.6875 397.632812 237.046875 397.804688 C 236.40625 397.976562 235.792969 398.222656 235.210938 398.542969 C 234.628906 398.863281 234.097656 399.25 233.609375 399.699219 L 195.445312 435.050781 C 178.546875 427.976562 162.828125 418.867188 148.28125 407.722656 L 159.300781 356.855469 C 159.445312 356.207031 159.507812 355.546875 159.488281 354.882812 C 159.472656 354.21875 159.375 353.566406 159.199219 352.925781 C 159.023438 352.28125 158.773438 351.671875 158.453125 351.089844 C 158.128906 350.507812 157.738281 349.976562 157.285156 349.488281 C 148.847656 340.402344 141.527344 330.488281 135.320312 319.75 C 129.117188 309.007812 124.183594 297.714844 120.523438 285.859375 C 120.328125 285.222656 120.058594 284.621094 119.71875 284.046875 C 119.375 283.476562 118.96875 282.953125 118.5 282.480469 C 118.03125 282.007812 117.511719 281.597656 116.945312 281.25 C 116.375 280.902344 115.773438 280.628906 115.136719 280.429688 L 65.546875 264.75 C 63.261719 246.585938 63.261719 228.421875 65.546875 210.257812 L 114.890625 194.578125 C 115.527344 194.375 116.128906 194.101562 116.695312 193.753906 C 117.265625 193.410156 117.785156 193 118.253906 192.527344 C 118.722656 192.050781 119.128906 191.53125 119.472656 190.957031 C 119.8125 190.386719 120.082031 189.78125 120.277344 189.144531 C 123.9375 177.292969 128.871094 165.996094 135.074219 155.257812 C 141.28125 144.515625 148.601562 134.605469 157.039062 125.515625 C 157.515625 125.042969 157.925781 124.515625 158.269531 123.941406 C 158.617188 123.367188 158.886719 122.757812 159.085938 122.113281 C 159.28125 121.472656 159.398438 120.816406 159.4375 120.144531 C 159.472656 119.476562 159.429688 118.808594 159.300781 118.148438 L 148.074219 67.363281 C 162.726562 56.25 178.515625 47.113281 195.445312 39.953125 L 233.773438 75.058594 C 234.261719 75.507812 234.796875 75.894531 235.375 76.214844 C 235.957031 76.535156 236.570312 76.78125 237.210938 76.953125 C 237.851562 77.125 238.503906 77.21875 239.167969 77.230469 C 239.828125 77.246094 240.484375 77.179688 241.132812 77.035156 C 253.214844 74.257812 265.457031 72.867188 277.855469 72.867188 C 290.25 72.867188 302.492188 74.257812 314.574219 77.035156 C 315.222656 77.179688 315.878906 77.246094 316.542969 77.230469 C 317.203125 77.21875 317.855469 77.125 318.496094 76.953125 C 319.140625 76.78125 319.75 76.535156 320.332031 76.214844 C 320.914062 75.894531 321.449219 75.507812 321.9375 75.058594 L 360.136719 39.953125 C 377.035156 47.027344 392.757812 56.136719 407.304688 67.28125 L 396.078125 118.148438 C 395.933594 118.800781 395.871094 119.457031 395.890625 120.121094 C 395.90625 120.785156 396.003906 121.441406 396.179688 122.082031 C 396.355469 122.722656 396.605469 123.335938 396.925781 123.914062 C 397.25 124.496094 397.640625 125.03125 398.09375 125.515625 C 406.53125 134.605469 413.851562 144.515625 420.058594 155.257812 C 426.261719 165.996094 431.195312 177.292969 434.855469 189.144531 C 435.050781 189.78125 435.320312 190.386719 435.660156 190.957031 C 436.003906 191.53125 436.410156 192.050781 436.878906 192.523438 C 437.347656 193 437.867188 193.410156 438.433594 193.753906 C 439.003906 194.101562 439.605469 194.375 440.242188 194.578125 L 489.585938 210.257812 C 491.898438 228.421875 491.898438 246.585938 489.585938 264.75 Z M 489.792969 264.746094 " fill-opacity="1" fill-rule="nonzero"/></g></svg>