<?xml version="1.0" encoding="UTF-8" standalone="no"?>
<svg
   width="48"
   zoomAndPan="magnify"
   viewBox="0 0 36 35.999999"
   height="48"
   preserveAspectRatio="xMidYMid"
   version="1.0"
   id="svg2"
   sodipodi:docname="guard2.svg"
   inkscape:version="1.3.2 (091e20e, 2023-11-25, custom)"
   xmlns:inkscape="http://www.inkscape.org/namespaces/inkscape"
   xmlns:sodipodi="http://sodipodi.sourceforge.net/DTD/sodipodi-0.dtd"
   xmlns="http://www.w3.org/2000/svg"
   xmlns:svg="http://www.w3.org/2000/svg">
  <sodipodi:namedview
     id="namedview2"
     pagecolor="#505050"
     bordercolor="#ffffff"
     borderopacity="1"
     inkscape:showpageshadow="0"
     inkscape:pageopacity="0"
     inkscape:pagecheckerboard="1"
     inkscape:deskcolor="#505050"
     inkscape:zoom="11.742664"
     inkscape:cx="13.15715"
     inkscape:cy="24.142732"
     inkscape:window-width="1920"
     inkscape:window-height="991"
     inkscape:window-x="-9"
     inkscape:window-y="-9"
     inkscape:window-maximized="1"
     inkscape:current-layer="svg2" />
  <defs
     id="defs1">
    <clipPath
       id="948130f5ae">
      <path
         d="M 179,111.33594 H 378 V 363 H 179 Z m 0,0"
         clip-rule="nonzero"
         id="path1" />
    </clipPath>
  </defs>
  <g
     clip-path="url(#948130f5ae)"
     id="g2"
     transform="matrix(1.8679034,0,0,1.8679034,-227.01486,-206.64594)"
     style="display:inline" />
  <path
     fill="#020203"
     d="M 32.206517,26.353311 C 31.734778,25.275121 30.067183,24.399264 28.993942,23.985253 28.381448,23.748832 26.87495,23.243 25.877585,23.190218 c -0.475592,-0.09016 -1.035853,-0.162197 -1.665944,-0.219926 -0.512977,-0.04728 -1.072141,-0.08467 -1.665392,-0.11491 l -0.0098,-0.940737 c -0.0045,-0.571259 0.166044,-0.475039 0.519575,-0.911595 1.251382,-1.542783 2.041468,-3.508924 2.199817,-5.486066 0.05332,-0.665278 0.01815,-1.353095 0.01484,-2.021672 -0.0011,-0.167692 0.87311,-0.365628 1.022658,-0.411263 1.972191,-0.59985 3.404462,-2.136038 3.120757,-4.2759217 C 29.156695,6.8722253 27.746965,5.1611963 26.151399,4.1143462 25.305781,3.5595818 24.38539,3.1939545 23.464997,2.789291 L 21.905167,2.053088 19.149486,0.57353209 C 18.856984,0.43277947 18.585927,0.37284854 18.263185,0.40748697 17.879413,0.48226252 17.555022,0.65875315 17.217432,0.84789142 L 14.860919,2.1201653 11.893015,3.4919544 C 9.6063265,4.6350228 7.4851374,6.663296 7.4917339,9.3810373 c 0.00436,2.2273057 1.5911691,3.2186227 3.5303731,3.8272677 0.705962,0.221579 0.635035,0.112165 0.622942,0.772493 l -0.0033,0.748852 c 0.0023,2.210258 0.631186,4.11592 1.944151,5.920418 l 0.662527,0.812628 c 0.169342,0.189687 0.146799,0.205632 0.146799,0.456899 l -0.006,0.936886 c -0.0012,4.98e-4 -0.0023,4.98e-4 -0.0033,0.0012 -0.705964,0.04013 -1.356945,0.09183 -1.945799,0.1567 -0.488238,0.05444 -0.933588,0.11711 -1.334953,0.188587 -1.8836704,0.08522 -5.1869658,1.31241 -6.246461,2.902481 -1.0193596,1.529588 0.4788901,3.312091 1.7324697,4.136815 0.7422511,0.487685 1.5829213,0.858814 2.3818039,1.245333 l 7.7276674,3.50123 c 0.333187,0.155048 1.472956,0.798879 1.816043,0.725207 l 0.198483,-0.05717 9.665217,-4.39028 c 0.750501,-0.368927 1.510896,-0.715312 2.189369,-1.210696 1.094134,-0.798883 2.260294,-2.277336 1.636803,-3.702461 z m -2.63087,-0.797234 -0.153948,0.144602 -0.23862,0.180341 C 29.052773,25.86727 28.888378,25.763906 28.770168,25.707276 L 28.156022,25.42962 c -0.630089,-0.255665 -1.279422,-0.423907 -1.921606,-0.640535 -0.170444,-0.05772 -0.527823,-0.140754 -0.429406,-0.387622 0.149549,-0.03518 0.407962,0.03793 0.560811,0.06544 1.148016,0.208931 2.171773,0.56796 3.209826,1.089186 z M 22.465427,24.2915 c -0.108866,0.588303 -0.321644,1.194202 -0.520676,1.759413 -0.370029,1.049049 -0.65978,1.7924 -1.731372,0.86156 l -0.892352,-0.820873 2.693,-2.131638 c 0.01484,0.0023 0.02967,0.006 0.04565,0.0065 0.0038,4.99e-4 0.0081,4.99e-4 0.01267,0.0012 0.150097,0.05882 0.360129,0.173191 0.393118,0.323841 z m -7.664438,-0.321093 c 0.05005,-0.0026 0.100052,-0.0055 0.151198,-0.0076 0.07479,0.05555 0.143504,0.127009 0.211129,0.188038 l 2.418642,1.982068 -0.868709,0.784587 c -1.022657,0.847816 -1.242035,0.459646 -1.682438,-0.674074 -0.254565,-0.654833 -0.453049,-1.327808 -0.589404,-2.017276 0.08742,-0.124258 0.223779,-0.194086 0.359582,-0.255663 z m 0.858813,-0.949531 C 15.5152,22.873524 15.527844,22.754765 15.531694,22.558479 l 0.9039,0.466797 c 1.562026,0.624038 3.540263,0.454146 4.959888,-0.472293 l 0.0098,0.294149 c -0.170994,0.302952 -0.570709,0.554216 -0.842318,0.773044 l -2.131088,1.705528 z M 10.595996,11.40546 c 0.499232,0.626242 0.254013,0.614695 -0.340889,0.318893 C 9.6063245,11.40161 9.0136243,10.868291 8.7838008,10.163425 8.1328174,8.1697911 9.8438457,6.1261241 11.425119,5.0869704 12.144829,4.6135797 12.954155,4.2781927 13.740395,3.9340085 l 1.971087,-0.9159943 1.461963,-0.7966836 c 0.403566,-0.2292733 0.809328,-0.4926347 1.25358,-0.6350372 0.222675,0.032987 0.441504,0.1561473 0.639436,0.2600623 l 1.822642,1.0050631 2.047514,0.9715261 c 0.795035,0.3469332 1.626356,0.6729753 2.36256,1.1353711 1.298666,0.8159266 2.534104,2.1074441 2.879387,3.6425318 0.365079,1.6219582 -0.560811,2.9574612 -2.171773,3.3137402 0.214978,-0.592701 0.655931,-0.864859 0.845066,-1.355295 C 27.518785,8.8284713 23.675569,7.4346863 22.540749,7.1487813 L 21.393835,6.9052136 C 21.231639,6.8744263 21.033154,6.8645313 20.881954,6.807897 l 5.7e-4,-0.1610956 C 20.883095,6.343302 20.897366,6.0233097 20.872082,5.7214604 20.785208,4.7031991 20.238141,3.6514033 19.110469,3.647552 H 18.421001 L 17.567686,3.635459 c -0.953932,0.028593 -1.431721,1.3173606 -1.515844,2.0980993 -0.03848,0.3540836 -0.0187,0.7219104 -0.0071,1.0770911 -0.726859,0.1160104 -1.449317,0.2270732 -2.151433,0.4574464 -1.149666,0.3771741 -3.247213,1.2733737 -3.802526,2.3911496 -0.3403358,0.6861726 0.09125,1.2260916 0.50528,1.7462176 z m 9.123647,-4.6514472 c -0.06104,0.2512687 -0.636686,0.8511179 -0.825272,1.061147 -0.141302,0.1533975 -0.285354,0.2864545 -0.458548,0.4030144 -0.373877,-0.32219 -1.211245,-1.1205257 -1.255229,-1.6582436 -0.04398,-0.5410198 0.05772,-1.2909698 0.415108,-1.7176276 l 1.161764,-0.00173 c 0.142402,0 0.38817,-0.031891 0.518476,0.01595 0.399167,0.400268 0.580057,1.3360544 0.443701,1.8974156 z m -8.595823,3.3874182 0.01649,-0.0319 c 0.127562,-0.2034347 0.427211,-0.3909229 0.617996,-0.5250776 1.349248,-0.948981 3.045432,-1.4586625 4.671787,-1.6379031 l 0.08248,-0.00824 c 0.05883,0.025845 0.100053,0.088519 0.142405,0.1363534 l 0.286451,0.3139442 c 0.295253,0.3150463 1.018808,1.0963324 1.468559,1.0957835 0.609198,-0.0012 1.49605,-1.1573619 1.958996,-1.5290371 l 0.351334,0.029696 c 1.481206,0.1929808 4.080738,0.9137887 5.058861,2.1882607 -0.280958,0.399719 -0.602049,0.72686 -0.801633,1.181008 -1.01716,-0.382126 -2.072807,-0.608095 -3.1466,-0.759848 -0.400266,-0.06266 -0.807679,-0.07533 -1.210693,-0.09951 l -3.757442,-0.04674 c -0.143504,0.0055 -0.282057,0.02967 -0.423909,0.03902 l -1.198049,0.08027 c -0.967135,0.101697 -2.379065,0.376055 -3.282412,0.786769 -0.205078,-0.4536 -0.593803,-0.779091 -0.834619,-1.212896 z m 1.177151,2.352117 0.01539,-0.01594 c 0.17759,-0.129205 0.493183,-0.198485 0.699367,-0.260062 1.468559,-0.436552 3.005293,-0.616345 4.534333,-0.622942 l 3.074572,0.04891 c 1.327255,0.09511 2.788667,0.278753 3.994962,0.880804 -1.317908,1.379487 -3.492979,1.600512 -5.28428,1.731368 -0.285905,0.01871 -0.581157,0.0087 -0.868159,0.0092 l -0.932489,-0.0071 c -1.631861,-0.08242 -4.236342,-0.40902 -5.233709,-1.764316 z m 2.036524,7.189392 c -0.683423,-1.020457 -1.143621,-2.12229 -1.389387,-3.325836 l -0.09951,-0.65098 c -0.07972,-0.432708 -0.04071,-0.894553 -0.06103,-1.333858 0.579506,0.476143 2.804063,0.854418 3.568306,0.940737 l 0.977573,0.09402 3.142749,-0.08027 c 1.245334,-0.116012 2.47802,-0.360132 3.607893,-0.966579 0.02201,0.04012 0.0087,0.178141 0.0098,0.233123 0.03245,2.104696 -0.658129,4.158259 -2.032669,5.771969 -2.437885,2.861244 -5.74283,2.272391 -7.723819,-0.682322 z m -5.9864002,5.409642 c 0.8461662,-0.349685 1.7313712,-0.561361 2.6358192,-0.690569 0.122058,-0.0092 0.09125,0.150649 0.09402,0.24302 -0.216076,0.111612 -0.479439,0.162193 -0.713109,0.231471 l -1.8369386,0.672975 c -0.4079635,0.177592 -0.639986,0.431056 -1.0023162,0.18529 L 7.3080945,25.566523 Z m 7.3158562,8.174664 -6.2679065,-2.885433 c -1.2975662,-0.62624 -3.1603432,-1.355844 -3.6331841,-2.875538 -0.2039829,-0.65648 0.059933,-0.898948 0.5899506,-1.262927 1.0770916,0.827472 0.9616289,1.118325 2.1679281,0.604247 l 2.1024949,-0.801082 c 1.127126,-0.341987 1.601066,-0.349133 1.546634,-1.659343 -0.0027,-0.0693 -0.0071,-0.134708 -0.01152,-0.198485 0.130857,-0.01648 0.264461,-0.03299 0.403017,-0.04837 0.238617,-0.02585 0.490434,-0.05005 0.752147,-0.07256 -0.03793,0.40961 0.07479,0.884103 0.222125,1.413027 0.275457,0.990767 0.759847,2.552795 1.758312,2.977252 0.366177,0.155051 0.831322,0.18969 1.202447,0.03353 l 0.234774,-0.116016 z m 2.864539,1.177708 c -0.255665,0.08577 -0.676273,-0.23422 -0.915993,-0.343634 l -0.653182,-0.276008 c -0.189686,-0.07863 -0.200681,-0.04343 -0.157797,-0.255665 l 0.923692,-4.295165 c 0.1512,-0.668576 0.282607,-1.044096 0.01592,-1.687385 0.0098,-0.03902 0.05005,-0.06212 0.08027,-0.08853 l 0.620193,-0.559163 0.599848,0.481087 c 0.249068,0.205635 0.122611,0.131956 0.01375,0.448654 -0.154499,0.447 0.01374,0.939083 0.11821,1.380037 l 1.005064,4.44911 z m 12.182277,-6.141446 c -0.618542,0.825277 -1.52299,1.251934 -2.421939,1.70003 l -1.860578,0.893454 -5.172121,2.318026 c -0.0275,-0.0506 -0.03354,-0.116013 -0.04565,-0.172092 l -1.059494,-4.72897 c 2.040918,0.986918 2.763928,-1.311863 3.213676,-2.870043 0.130856,-0.454695 0.254567,-0.948982 0.213878,-1.389382 0.18089,0.01374 0.356831,0.02859 0.526176,0.04396 0.206732,0.01871 0.404116,0.03957 0.591603,0.06157 -0.0016,0.04783 -0.0027,0.09619 -0.0033,0.145151 -0.0087,1.218943 0.237521,1.310212 1.400382,1.675839 0.512979,0.160547 1.023207,0.323843 1.519142,0.531122 l 0.924791,0.422258 c 0.883555,0.403565 0.871458,0.191889 1.684637,-0.464043 0.102267,-0.08246 0.219376,-0.200682 0.338136,-0.254015 0.87091,0.625689 0.751049,1.286018 0.150651,2.087102 z m 0,0"
     fill-opacity="1"
     fill-rule="nonzero"
     id="path2"
     inkscape:label="path2"
     style="display:inline;fill:#f49f1c;fill-opacity:1;stroke-width:0.141;stroke-dasharray:none" />
</svg>
