<?xml version="1.0" encoding="UTF-8" standalone="no"?>
<!-- Created with Inkscape (http://www.inkscape.org/) -->

<svg
   width="48"
   height="48"
   viewBox="0 0 12.7 12.7"
   version="1.1"
   id="svg1"
   xml:space="preserve"
   inkscape:version="1.3.2 (091e20e, 2023-11-25, custom)"
   sodipodi:docname="guard.svg"
   xmlns:inkscape="http://www.inkscape.org/namespaces/inkscape"
   xmlns:sodipodi="http://sodipodi.sourceforge.net/DTD/sodipodi-0.dtd"
   xmlns="http://www.w3.org/2000/svg"
   xmlns:svg="http://www.w3.org/2000/svg"><sodipodi:namedview
     id="namedview1"
     pagecolor="#505050"
     bordercolor="#ffffff"
     borderopacity="1"
     inkscape:showpageshadow="0"
     inkscape:pageopacity="0"
     inkscape:pagecheckerboard="1"
     inkscape:deskcolor="#505050"
     inkscape:document-units="mm"
     inkscape:zoom="7.8312671"
     inkscape:cx="6.5762027"
     inkscape:cy="28.539443"
     inkscape:window-width="1920"
     inkscape:window-height="991"
     inkscape:window-x="-9"
     inkscape:window-y="-9"
     inkscape:window-maximized="1"
     inkscape:current-layer="layer1" /><defs
     id="defs1"><clipPath
       id="d180872334"><path
         d="M 169.929688 85 L 386.390625 85 L 386.390625 389 L 169.929688 389 Z M 169.929688 85 "
         clip-rule="nonzero"
         id="path1" /></clipPath></defs><g
     inkscape:label="Capa 1"
     inkscape:groupmode="layer"
     id="layer1"><g
       id="g1"
       transform="matrix(0.04638036,0,0,0.04167392,-6.3788171,-3.5230325)"
       style="fill:#f49f1c;fill-opacity:1;stroke-width:6018.15333883;stroke-dasharray:none;paint-order:normal"><path
         fill="#000000"
         d="m 240.33203,335.92578 h -14.60937 v -8.5 c 0,-2.69141 -2.1836,-4.875 -4.87891,-4.875 -2.69141,0 -4.875,2.18359 -4.875,4.875 v 8.5 h -14.625 c -2.69531,0 -4.875,2.17969 -4.875,4.87109 v 20.75391 c 0,2.69141 2.17969,4.87109 4.875,4.87109 h 38.98828 c 2.69141,0 4.875,-2.17968 4.875,-4.87109 v -20.75391 c 0,-2.6914 -2.18359,-4.87109 -4.875,-4.87109 z m -4.875,20.75 h -29.23828 v -11.00391 h 29.23828 z m 0,0"
         fill-opacity="1"
         fill-rule="nonzero"
         id="path2"
         style="fill:#f49f1c;fill-opacity:1;stroke-width:6018.15333883;stroke-dasharray:none;paint-order:normal" /><path
         fill="#000000"
         d="m 278.15234,143.94531 c 8.0625,0 14.625,-7.94922 14.625,-17.72265 0,-9.76172 -6.5625,-17.70703 -14.625,-17.70703 -8.05859,0 -14.60937,7.94531 -14.60937,17.70703 0,9.77343 6.55078,17.72265 14.60937,17.72265 z m 0,-25.67968 c 2.30078,0 4.875,3.40234 4.875,7.95703 0,4.5625 -2.57422,7.97265 -4.875,7.97265 -2.29297,0 -4.85937,-3.41015 -4.85937,-7.97265 0,-4.55469 2.5664,-7.95703 4.85937,-7.95703 z m 0,0"
         fill-opacity="1"
         fill-rule="nonzero"
         id="path3"
         style="fill:#f49f1c;fill-opacity:1;stroke-width:6018.15333883;stroke-dasharray:none;paint-order:normal" /><g
         clip-path="url(#d180872334)"
         id="g4"
         style="fill:#f49f1c;fill-opacity:1;stroke-width:6018.15333883;stroke-dasharray:none;paint-order:normal"><path
           fill="#000000"
           d="m 315.53125,270.01172 h -3.75781 v -15.97656 c 13.83593,-9.41797 23.68359,-25.25782 23.68359,-47.27344 v -17.3125 c 4.83594,-5.28125 7.60156,-11.30078 7.60156,-17.69141 v -15 l 18.44922,-28.85547 c 0.76953,-1.20312 0.97266,-2.68359 0.55469,-4.05078 -0.41797,-1.36328 -1.41016,-2.48047 -2.72266,-3.04687 L 280.09375,86.394531 c -1.23828,-0.539062 -2.64844,-0.535156 -3.88672,0.0039 l -79.22656,34.406249 c -1.3125,0.57031 -2.30469,1.68359 -2.72266,3.05078 -0.41406,1.36719 -0.21094,2.84375 0.5586,4.04687 l 18.46093,28.85547 v 15 c 0,6.38281 2.76172,12.39063 7.58594,17.66406 v 17.33985 c 0,17.67578 6.23047,32.57031 18.01172,43.07812 1.78125,1.58594 3.69922,3.00391 5.67187,4.34375 v 15.82813 h -3.75781 c -37.05469,0 -70.80078,30.82031 -70.80078,64.66015 v 48.67579 c 0,2.6914 2.18359,4.875 4.875,4.875 h 206.59375 c 2.69141,0 4.875,-2.1836 4.875,-4.875 v -48.67579 c 0,-33.83984 -33.74609,-64.66015 -70.80078,-64.66015 z m 0,9.75 c 1.625,0 3.23828,0.11328 4.84766,0.24219 l -12.67188,35.74218 -21.75,-14.6914 22.85938,-21.29297 z M 271.5,343.19141 h 13.06641 l 10.26953,35.28125 H 261.25 Z m 13.05078,-9.7461 h -13.03516 l -5.14843,-17.93359 11.78515,-7.96485 11.58594,7.82422 z m 48.75781,-166.5625 H 223.02734 v -6.67578 h 110.28125 z m -109.28515,9.75 H 332.3125 c -4.67578,11.74219 -25.59766,23.125 -54.125,23.125 -28.55078,0 -49.48438,-11.38281 -54.16406,-23.125 z m 54.1289,-80.449216 72.0586,31.285156 -14.69922,22.98828 H 220.82031 L 206.11328,127.46875 Z M 230.61328,206.75781 v -9.40625 c 11.86328,7.45313 28.77344,12.15625 47.57422,12.15625 18.77734,0 35.66406,-4.69531 47.51953,-12.13672 v 9.39063 c 0,32.78125 -24.64453,47.71094 -47.54687,47.71094 -22.89844,0 -47.54688,-14.92969 -47.54688,-47.71485 z m 47.54688,57.46485 c 8.16015,0 16.32812,-1.67579 23.86328,-4.87891 v 13.42187 L 278.15234,295 254.29687,272.76562 v -13.3125 c 7.34375,3.08594 15.4336,4.76954 23.86329,4.76954 z m -30.65625,15.53906 22.84375,21.29297 -21.73438,14.6875 -12.67187,-35.73828 c 1.60937,-0.12891 3.22265,-0.24219 4.84765,-0.24219 z m -67.76563,54.91015 c 0,-24.26171 20.75781,-46.625 46.44141,-53.02734 l 15.34765,43.29297 c 0.50391,1.42187 1.63672,2.52734 3.07032,3 0.5,0.16406 1.01171,0.24609 1.52343,0.24609 0.96094,0 1.91407,-0.28515 2.73047,-0.83593 l 9.01953,-6.09375 4.89453,17.05468 -11.67187,40.16407 h -71.35547 z m 196.84375,43.80079 h -71.59375 l -11.6875,-40.16407 4.9375,-17.19922 9.23438,6.23829 c 0.8125,0.55078 1.76562,0.83593 2.72656,0.83593 0.51172,0 1.02734,-0.082 1.52344,-0.24609 1.43359,-0.46875 2.57031,-1.57813 3.07031,-3 l 15.34765,-43.29297 c 25.6836,6.40234 46.44141,28.76953 46.44141,53.02734 z m 0,0"
           fill-opacity="1"
           fill-rule="nonzero"
           id="path4"
           style="fill:#f49f1c;fill-opacity:1;stroke-width:6018.15333883;stroke-dasharray:none;paint-order:normal" /></g></g></g></svg>
