<svg xmlns="http://www.w3.org/2000/svg" xmlns:xlink="http://www.w3.org/1999/xlink" width="743" zoomAndPan="magnify" viewBox="0 0 557.25 474.749981" height="633" preserveAspectRatio="xMidYMid meet" version="1.0"><defs><clipPath id="b6d09f7a7b"><path d="M 172 291 L 385 291 L 385 362.949219 L 172 362.949219 Z M 172 291 " clip-rule="nonzero"/></clipPath><clipPath id="38611f1c2b"><path d="M 143.351562 113 L 412.988281 113 L 412.988281 258 L 143.351562 258 Z M 143.351562 113 " clip-rule="nonzero"/></clipPath></defs><g clip-path="url(#b6d09f7a7b)"><path fill="#100f0d" d="M 172.210938 291.5 C 179.617188 317.273438 203.25 362.910156 278.136719 362.910156 C 353.242188 362.910156 376.785156 317.25 384.113281 291.476562 C 365.839844 299.691406 330.074219 311.839844 278.136719 311.839844 C 226.246094 311.839844 190.5 299.714844 172.210938 291.5 " fill-opacity="1" fill-rule="nonzero"/></g><path fill="#100f0d" d="M 279.574219 295.273438 C 279.101562 295.402344 278.621094 295.472656 278.136719 295.472656 C 277.652344 295.472656 277.171875 295.402344 276.695312 295.273438 C 260.078125 290.441406 248.59375 280.03125 240.652344 267.921875 C 214.433594 266.671875 181.164062 263.605469 163.71875 256.023438 L 163.71875 275.527344 C 163.71875 275.527344 203.578125 301.535156 278.136719 301.535156 C 352.695312 301.535156 392.554688 275.527344 392.554688 275.527344 L 392.554688 256.023438 C 375.113281 263.605469 341.835938 266.671875 315.617188 267.921875 C 307.679688 280.035156 296.195312 290.441406 279.574219 295.273438 " fill-opacity="1" fill-rule="nonzero"/><path fill="#100f0d" d="M 278.144531 192.996094 C 268.914062 198.84375 250.625 207.6875 233.429688 209.328125 C 234.554688 224.914062 241.050781 272.996094 278.136719 284.9375 C 315.210938 272.996094 321.714844 224.933594 322.84375 209.339844 C 304.8125 207.679688 286.582031 198.3125 278.144531 192.996094 " fill-opacity="1" fill-rule="nonzero"/><g clip-path="url(#38611f1c2b)"><path fill="#100f0d" d="M 339.882812 146.617188 C 316.902344 111.320312 278.960938 113.875 278.570312 113.855469 C 277.320312 113.855469 239.410156 111.28125 216.386719 146.617188 C 199.855469 172.015625 157.476562 180.722656 143.375 182.964844 L 143.375 218.113281 C 154.484375 224.203125 159.699219 235.476562 162.175781 244.113281 L 167.832031 246.574219 C 181.214844 252.394531 207.738281 255.691406 234.808594 257.277344 C 223.238281 232.882812 222.886719 206.28125 222.878906 204.449219 C 222.878906 203.082031 223.421875 201.761719 224.386719 200.792969 C 225.355469 199.828125 226.664062 199.285156 228.03125 199.285156 C 246.0625 199.285156 267.90625 187.84375 275.105469 182.632812 C 276.917969 181.324219 279.34375 181.316406 281.15625 182.625 C 288.394531 187.84375 310.296875 199.285156 328.234375 199.285156 C 329.605469 199.285156 330.914062 199.828125 331.882812 200.792969 C 332.847656 201.761719 333.390625 203.082031 333.390625 204.449219 C 333.386719 206.28125 333.03125 232.882812 321.464844 257.277344 C 348.53125 255.695312 375.058594 252.394531 388.441406 246.574219 L 394.054688 244.132812 C 396.480469 235.660156 401.703125 224.246094 412.898438 218.113281 L 412.898438 182.964844 C 398.792969 180.722656 356.414062 172.015625 339.882812 146.617188 " fill-opacity="1" fill-rule="nonzero"/></g></svg>