<?xml version="1.0" encoding="UTF-8"?>
<svg version="1.1" xmlns="http://www.w3.org/2000/svg" width="500" height="500">
<path d="M0 0 C0.89203125 0.74894531 1.7840625 1.49789062 2.703125 2.26953125 C65.7429744 56.76906585 40.93789705 163.4276843 -38 187 C-72.68677604 195.77964041 -108.62672449 190.69862041 -137 168 C-134.80394385 163.6078877 -129.56089944 168.81760346 -126.1171875 170.328125 C-56.0220747 198.79179509 11.11023969 134.06185788 -1 64 C-15.27386859 0.60553099 -79.90621175 -23.97939107 -137 0 C-137 -41.11932111 -21.36063544 -18.55002551 0 0 Z " fill="#2A55C8" transform="translate(319,167)"/>
<path d="M0 0 C-1.32 1.423125 -2.64 2.84625 -4 4.3125 C-47.16288164 51.20802077 -14.12261465 123.26581618 45.00390625 132.49609375 C73.68618018 136.11292008 101.38836678 122.86719819 118.01953125 99.671875 C120 97 120 97 123 94 C112.20472122 158.77167271 27.20206233 171.54133673 -16.25 133.8125 C-42.93007906 108.30634441 -51.5821021 66.8985792 0 0 Z " fill="#F49F1C" transform="translate(185,180)"/>
<path d="M0 0 C-15.90052028 29.70886683 -54.06566736 29.18157842 -69.875 -0.375 C-91.42222385 -67.55163905 22.36314954 -67.83488695 0 0 Z " fill="#2A55C8" transform="translate(265,263)"/>
<path d="M0 0 C-4.45662975 10.45002837 -9.37018774 21.68509387 -20 27 C-18 22 -18 22 -15 16.1875 C3.97654795 -22.95163016 -27.83198356 -64.5468425 -70 -61 C-89.34239843 -57.43235921 -103.36093674 -47.24538334 -112.8125 -29.8125 C-113.534375 -28.554375 -114.25625 -27.29625 -115 -26 C-136.3799203 -90.13976089 34.50705104 -104.59949847 0 0 Z " fill="#000000" transform="translate(288,253)"/>
</svg>
