<svg xmlns="http://www.w3.org/2000/svg" xmlns:xlink="http://www.w3.org/1999/xlink" width="743" zoomAndPan="magnify" viewBox="0 0 557.25 474.749981" height="633" preserveAspectRatio="xMidYMid meet" version="1.0"><defs><clipPath id="11653b25ed"><path d="M 246 459 L 311 459 L 311 473.992188 L 246 473.992188 Z M 246 459 " clip-rule="nonzero"/></clipPath><clipPath id="21ceb6519b"><path d="M 427 206 L 479.335938 206 L 479.335938 221 L 427 221 Z M 427 206 " clip-rule="nonzero"/></clipPath><clipPath id="6bdc5469f7"><path d="M 77.125 206 L 129 206 L 129 221 L 77.125 221 Z M 77.125 206 " clip-rule="nonzero"/></clipPath><clipPath id="2b5c21cb7c"><path d="M 271 12.613281 L 286 12.613281 L 286 65 L 271 65 Z M 271 12.613281 " clip-rule="nonzero"/></clipPath></defs><path fill="#000000" d="M 279.800781 105.265625 C 250.730469 104.875 223.34375 115.867188 202.664062 136.246094 C 181.988281 156.625 170.601562 183.84375 170.601562 212.871094 C 170.601562 241.160156 181.492188 267.878906 201.277344 288.097656 C 221.839844 309.125 233.871094 336.269531 235.59375 365.179688 L 271.066406 365.179688 L 271.066406 283.511719 L 242.128906 254.589844 C 239.308594 251.773438 239.308594 247.210938 242.128906 244.390625 C 244.941406 241.582031 249.511719 241.582031 252.324219 244.390625 L 278.277344 270.332031 L 304.230469 244.394531 C 307.050781 241.582031 311.613281 241.582031 314.425781 244.394531 C 317.246094 247.210938 317.246094 251.773438 314.425781 254.59375 L 285.488281 283.511719 L 285.488281 365.179688 L 320.960938 365.179688 C 322.699219 336.351562 334.789062 309.152344 355.449219 287.925781 C 374.941406 267.917969 385.777344 241.519531 385.957031 213.597656 L 385.957031 212.886719 C 385.953125 154.285156 338.484375 106.074219 279.800781 105.265625 Z M 279.800781 105.265625 " fill-opacity="1" fill-rule="nonzero"/><g clip-path="url(#11653b25ed)"><path fill="#000000" d="M 303.121094 459.523438 L 253.433594 459.523438 C 249.449219 459.523438 246.222656 462.75 246.222656 466.730469 C 246.222656 470.714844 249.449219 473.9375 253.433594 473.9375 L 303.121094 473.9375 C 307.105469 473.9375 310.332031 470.714844 310.332031 466.730469 C 310.332031 462.75 307.105469 459.523438 303.121094 459.523438 Z M 303.121094 459.523438 " fill-opacity="1" fill-rule="nonzero"/></g><path fill="#000000" d="M 317.402344 429.730469 L 239.15625 429.730469 C 235.171875 429.730469 231.945312 432.957031 231.945312 436.9375 C 231.945312 440.921875 235.171875 444.144531 239.15625 444.144531 L 317.402344 444.144531 C 321.386719 444.144531 324.613281 440.921875 324.613281 436.9375 C 324.613281 432.957031 321.382812 429.730469 317.402344 429.730469 Z M 317.402344 429.730469 " fill-opacity="1" fill-rule="nonzero"/><path fill="#000000" d="M 327.964844 399.9375 L 228.589844 399.9375 C 224.617188 399.9375 221.378906 403.164062 221.378906 407.144531 C 221.378906 411.128906 224.617188 414.351562 228.589844 414.351562 L 327.964844 414.351562 C 331.941406 414.351562 335.175781 411.128906 335.175781 407.144531 C 335.175781 403.164062 331.941406 399.9375 327.964844 399.9375 Z M 327.964844 399.9375 " fill-opacity="1" fill-rule="nonzero"/><g clip-path="url(#21ceb6519b)"><path fill="#000000" d="M 472.1875 206.464844 L 435.054688 206.464844 C 431.070312 206.464844 427.84375 209.691406 427.84375 213.671875 C 427.84375 217.644531 431.070312 220.878906 435.054688 220.878906 L 472.1875 220.878906 C 476.160156 220.878906 479.398438 217.644531 479.398438 213.671875 C 479.398438 209.691406 476.160156 206.464844 472.1875 206.464844 Z M 472.1875 206.464844 " fill-opacity="1" fill-rule="nonzero"/></g><g clip-path="url(#6bdc5469f7)"><path fill="#000000" d="M 121.5 206.464844 L 84.371094 206.464844 C 80.394531 206.464844 77.160156 209.691406 77.160156 213.671875 C 77.160156 217.644531 80.394531 220.878906 84.371094 220.878906 L 121.5 220.878906 C 125.484375 220.878906 128.710938 217.644531 128.710938 213.671875 C 128.710938 209.691406 125.484375 206.464844 121.5 206.464844 Z M 121.5 206.464844 " fill-opacity="1" fill-rule="nonzero"/></g><g clip-path="url(#2b5c21cb7c)"><path fill="#000000" d="M 278.277344 64.191406 C 282.261719 64.191406 285.488281 60.964844 285.488281 56.984375 L 285.488281 19.875 C 285.488281 15.894531 282.261719 12.667969 278.277344 12.667969 C 274.292969 12.667969 271.066406 15.894531 271.066406 19.875 L 271.066406 56.984375 C 271.066406 60.964844 274.292969 64.191406 278.277344 64.191406 Z M 278.277344 64.191406 " fill-opacity="1" fill-rule="nonzero"/></g><path fill="#000000" d="M 410.292969 71.542969 L 384.035156 97.777344 C 381.222656 100.597656 381.222656 105.15625 384.035156 107.976562 C 385.441406 109.382812 387.289062 110.085938 389.136719 110.085938 C 390.976562 110.085938 392.824219 109.382812 394.230469 107.976562 L 420.488281 81.734375 C 423.300781 78.921875 423.300781 74.355469 420.488281 71.542969 C 417.667969 68.722656 413.105469 68.722656 410.292969 71.542969 Z M 410.292969 71.542969 " fill-opacity="1" fill-rule="nonzero"/><path fill="#000000" d="M 172.519531 97.777344 L 146.261719 71.542969 C 143.449219 68.722656 138.878906 68.722656 136.066406 71.542969 C 133.253906 74.355469 133.253906 78.921875 136.066406 81.734375 L 162.328125 107.976562 C 163.734375 109.382812 165.578125 110.085938 167.417969 110.085938 C 169.265625 110.085938 171.117188 109.382812 172.519531 107.976562 C 175.332031 105.15625 175.332031 100.597656 172.519531 97.777344 Z M 172.519531 97.777344 " fill-opacity="1" fill-rule="nonzero"/></svg>