<svg xmlns="http://www.w3.org/2000/svg" xmlns:xlink="http://www.w3.org/1999/xlink" width="743" zoomAndPan="magnify" viewBox="0 0 557.25 474.749981" height="633" preserveAspectRatio="xMidYMid meet" version="1.0"><defs><clipPath id="34a59d0357"><path d="M 63.621094 36 L 489.800781 36 L 489.800781 435.851562 L 63.621094 435.851562 Z M 63.621094 36 " clip-rule="nonzero"/></clipPath></defs><g clip-path="url(#34a59d0357)"><path fill="#000000" d="M 476.480469 62.679688 L 436.527344 62.679688 L 436.527344 49.355469 C 436.527344 42.003906 430.574219 36.035156 423.210938 36.035156 L 76.941406 36.035156 C 69.589844 36.035156 63.621094 42.003906 63.621094 49.355469 L 63.621094 395.742188 C 63.621094 417.777344 81.546875 435.707031 103.578125 435.707031 L 449.84375 435.707031 C 471.871094 435.707031 489.800781 417.777344 489.800781 395.742188 L 489.800781 76 C 489.800781 68.648438 483.847656 62.679688 476.480469 62.679688 Z M 463.164062 395.742188 C 463.164062 403.082031 457.195312 409.0625 449.84375 409.0625 L 103.578125 409.0625 C 96.238281 409.0625 90.257812 403.082031 90.257812 395.742188 L 90.257812 62.679688 L 409.890625 62.679688 L 409.890625 329.128906 L 436.527344 329.128906 L 436.527344 89.324219 L 463.164062 89.324219 Z M 463.164062 395.742188 " fill-opacity="1" fill-rule="nonzero"/></g><path fill="#000000" d="M 263.394531 249.195312 L 130.210938 249.195312 C 122.859375 249.195312 116.894531 255.160156 116.894531 262.515625 L 116.894531 369.097656 C 116.894531 376.449219 122.859375 382.417969 130.210938 382.417969 L 263.394531 382.417969 C 270.746094 382.417969 276.710938 376.449219 276.710938 369.097656 L 276.710938 262.515625 C 276.710938 255.160156 270.746094 249.195312 263.394531 249.195312 Z M 250.074219 355.773438 L 143.53125 355.773438 L 143.53125 275.839844 L 250.074219 275.839844 Z M 250.074219 355.773438 " fill-opacity="1" fill-rule="nonzero"/><path fill="#000000" d="M 409.890625 355.773438 L 436.527344 355.773438 L 436.527344 382.417969 L 409.890625 382.417969 Z M 409.890625 355.773438 " fill-opacity="1" fill-rule="nonzero"/><path fill="#000000" d="M 116.894531 142.613281 L 383.253906 142.613281 L 383.253906 169.257812 L 116.894531 169.257812 Z M 116.894531 142.613281 " fill-opacity="1" fill-rule="nonzero"/><path fill="#000000" d="M 116.894531 89.324219 L 383.253906 89.324219 L 383.253906 115.96875 L 116.894531 115.96875 Z M 116.894531 89.324219 " fill-opacity="1" fill-rule="nonzero"/><path fill="#000000" d="M 116.894531 195.902344 L 383.253906 195.902344 L 383.253906 222.546875 L 116.894531 222.546875 Z M 116.894531 195.902344 " fill-opacity="1" fill-rule="nonzero"/><path fill="#000000" d="M 303.347656 249.195312 L 383.253906 249.195312 L 383.253906 275.839844 L 303.347656 275.839844 Z M 303.347656 249.195312 " fill-opacity="1" fill-rule="nonzero"/><path fill="#000000" d="M 303.347656 302.484375 L 383.253906 302.484375 L 383.253906 329.128906 L 303.347656 329.128906 Z M 303.347656 302.484375 " fill-opacity="1" fill-rule="nonzero"/><path fill="#000000" d="M 303.347656 355.773438 L 383.253906 355.773438 L 383.253906 382.417969 L 303.347656 382.417969 Z M 303.347656 355.773438 " fill-opacity="1" fill-rule="nonzero"/></svg>