<?xml version="1.0" encoding="UTF-8" standalone="no"?>
<svg
   width="743"
   zoomAndPan="magnify"
   viewBox="0 0 557.25 474.749981"
   height="633"
   preserveAspectRatio="xMidYMid meet"
   version="1.0"
   id="svg2"
   sodipodi:docname="new-2.svg"
   inkscape:version="1.3.2 (091e20e, 2023-11-25, custom)"
   xmlns:inkscape="http://www.inkscape.org/namespaces/inkscape"
   xmlns:sodipodi="http://sodipodi.sourceforge.net/DTD/sodipodi-0.dtd"
   xmlns="http://www.w3.org/2000/svg"
   xmlns:svg="http://www.w3.org/2000/svg">
  <sodipodi:namedview
     id="namedview2"
     pagecolor="#505050"
     bordercolor="#ffffff"
     borderopacity="1"
     inkscape:showpageshadow="0"
     inkscape:pageopacity="0"
     inkscape:pagecheckerboard="1"
     inkscape:deskcolor="#505050"
     inkscape:zoom="1.2274882"
     inkscape:cx="371.89768"
     inkscape:cy="316.5"
     inkscape:window-width="1920"
     inkscape:window-height="991"
     inkscape:window-x="-9"
     inkscape:window-y="-9"
     inkscape:window-maximized="1"
     inkscape:current-layer="svg2" />
  <defs
     id="defs1">
    <clipPath
       id="2f84777f7e">
      <path
         d="M 38.6875 57.578125 L 509.054688 57.578125 L 509.054688 410.351562 L 38.6875 410.351562 Z M 38.6875 57.578125 "
         clip-rule="nonzero"
         id="path1" />
    </clipPath>
  </defs>
  <g
     clip-path="url(#2f84777f7e)"
     id="g2"
     style="fill:#f49f1c;fill-opacity:1"
     transform="matrix(1.1739124,0,0,1.1739124,-42.777463,-37.509399)">
    <path
       fill="#000000"
       d="M 509.03906,57.582031 V 358.92578 c 0,29.32813 -21.46484,51.42188 -48.29687,51.42188 H 102.58984 c -44.300778,0 -63.90234,-18.97657 -63.90234,-75.12891 V 118.73828 h 62.03125 V 57.589844 H 509.02734 Z M 100.73047,148.32031 H 68.285156 v 186.89063 c 0,28.70312 6.867188,42.42968 15.601563,42.42968 10.605469,0 16.847661,-13.72656 16.847661,-42.42968 z M 479.46094,87.167969 H 130.30859 V 335.20312 c 0,19.96875 -3.74218,34.31641 -9.35937,45.55079 h 339.80469 c 11.23046,0 18.71875,-13.10157 18.71875,-21.83985 z M 267.32031,209.82422 h -86.59375 v -11.23047 h 86.59375 z m 0,36.8125 h -86.59375 v -11.23047 h 86.59375 z m 0,35.5664 h -86.59375 v -11.23046 h 86.59375 z m 0,34.31641 h -86.59375 v -11.23047 h 86.59375 z M 199.9375,140.56641 H 407.70703 V 161.375 H 199.9375 Z m 98.58203,58.02734 H 431.41797 V 304.71094 H 298.51953 Z m 0,0"
       fill-opacity="1"
       fill-rule="nonzero"
       id="path2"
       style="fill:#f49f1c;fill-opacity:1" />
  </g>
</svg>
