<svg fill="#000000" width="256px" height="256px" viewBox="0 0 24.00 24.00" xmlns="http://www.w3.org/2000/svg" stroke="#000000" stroke-width="0.00024000000000000003" transform="matrix(-1, 0, 0, 1, 0, 0)"><g id="SVGRepo_bgCarrier" stroke-width="0"></g><g id="SVGRepo_tracerCarrier" stroke-linecap="round" stroke-linejoin="round"></g><g id="SVGRepo_iconCarrier"><path d="M22,20a1,1,0,0,1-2,0V4a1,1,0,0,1,2,0ZM3,13H14.586l-2.293,2.293a1,1,0,1,0,1.414,1.414l4-4a1,1,0,0,0,0-1.414l-4-4a1,1,0,1,0-1.414,1.414L14.586,11H3a1,1,0,0,0,0,2Z"></path></g></svg>