<svg xmlns="http://www.w3.org/2000/svg" xmlns:xlink="http://www.w3.org/1999/xlink" width="743" zoomAndPan="magnify" viewBox="0 0 557.25 474.749981" height="633" preserveAspectRatio="xMidYMid meet" version="1.0"><defs><clipPath id="ca9e12fa34"><path d="M 105.964844 269 L 453.496094 269 L 453.496094 468.070312 L 105.964844 468.070312 Z M 105.964844 269 " clip-rule="nonzero"/></clipPath><clipPath id="68c97e9836"><path d="M 105.964844 289 L 179 289 L 179 468.070312 L 105.964844 468.070312 Z M 105.964844 289 " clip-rule="nonzero"/></clipPath><clipPath id="95ca030d4c"><path d="M 381 289 L 453.496094 289 L 453.496094 468.070312 L 381 468.070312 Z M 381 289 " clip-rule="nonzero"/></clipPath><clipPath id="382577e37a"><path d="M 200 10.433594 L 359 10.433594 L 359 86 L 200 86 Z M 200 10.433594 " clip-rule="nonzero"/></clipPath></defs><g clip-path="url(#ca9e12fa34)"><path fill="#000000" d="M 448.175781 468.199219 L 111.277344 468.199219 C 108.316406 468.199219 105.941406 465.816406 105.941406 462.855469 L 105.941406 368.839844 C 105.941406 314.050781 150.480469 269.488281 205.269531 269.488281 L 213.511719 269.488281 C 220.527344 269.488281 220.527344 280.167969 213.511719 280.167969 L 205.269531 280.167969 C 156.410156 280.167969 116.691406 319.96875 116.691406 368.839844 L 116.691406 457.445312 L 442.769531 457.445312 L 442.769531 368.839844 C 442.769531 320.355469 402.976562 280.167969 354.179688 280.167969 L 346.003906 280.167969 C 338.984375 280.167969 338.984375 269.488281 346.003906 269.488281 L 354.179688 269.488281 C 408.769531 269.488281 453.519531 314.050781 453.519531 368.839844 L 453.519531 462.855469 C 453.519531 465.816406 451.136719 468.199219 448.175781 468.199219 Z M 448.175781 468.199219 " fill-opacity="1" fill-rule="evenodd"/></g><path fill="#000000" d="M 294.121094 261.433594 L 265.339844 261.433594 C 254.914062 261.433594 244.476562 258.800781 235.273438 253.839844 L 222.265625 244.625 C 209.003906 232.460938 201.414062 215.265625 201.414062 197.429688 L 201.414062 111.917969 C 201.414062 108.957031 203.796875 106.511719 206.757812 106.511719 L 352.695312 106.511719 C 355.664062 106.511719 358.039062 108.957031 358.039062 111.917969 L 358.039062 197.429688 C 358.039062 215.265625 350.445312 232.460938 337.1875 244.625 L 324.175781 253.839844 C 314.972656 258.800781 304.546875 261.433594 294.121094 261.433594 Z M 240.617188 244.5625 C 248.210938 248.558594 256.777344 250.683594 265.339844 250.683594 L 294.121094 250.683594 C 302.675781 250.683594 311.242188 248.558594 318.832031 244.5625 L 330.230469 236.457031 C 341.109375 226.402344 347.363281 212.179688 347.363281 197.429688 L 347.363281 117.261719 L 212.101562 117.261719 L 212.101562 197.429688 C 212.101562 212.179688 218.34375 226.402344 229.28125 236.519531 Z M 240.617188 244.5625 " fill-opacity="1" fill-rule="evenodd"/><path fill="#000000" d="M 255.488281 157.566406 L 206.757812 157.566406 C 203.796875 157.566406 201.414062 155.191406 201.414062 152.230469 L 201.414062 111.917969 C 201.414062 108.957031 203.796875 106.511719 206.757812 106.511719 L 279.761719 106.511719 C 282.722656 106.511719 285.105469 108.957031 285.105469 111.917969 L 285.105469 127.953125 C 285.105469 144.304688 271.773438 157.566406 255.488281 157.566406 Z M 212.101562 146.886719 L 255.488281 146.886719 C 265.917969 146.886719 274.355469 138.382812 274.355469 127.953125 L 274.355469 117.261719 L 212.101562 117.261719 Z M 212.101562 146.886719 " fill-opacity="1" fill-rule="evenodd"/><path fill="#000000" d="M 352.695312 157.566406 L 303.960938 157.566406 C 287.679688 157.566406 274.355469 144.304688 274.355469 127.953125 L 274.355469 111.917969 C 274.355469 108.957031 276.804688 106.511719 279.761719 106.511719 L 352.695312 106.511719 C 355.664062 106.511719 358.039062 108.957031 358.039062 111.917969 L 358.039062 152.230469 C 358.039062 155.191406 355.664062 157.566406 352.695312 157.566406 Z M 285.105469 117.261719 L 285.105469 127.953125 C 285.105469 138.382812 293.597656 146.886719 303.960938 146.886719 L 347.363281 146.886719 L 347.363281 117.261719 Z M 285.105469 117.261719 " fill-opacity="1" fill-rule="evenodd"/><path fill="#000000" d="M 352.695312 190.023438 C 349.734375 190.023438 347.363281 187.640625 347.363281 184.679688 L 347.363281 132.199219 C 347.363281 125.371094 357.402344 125.695312 361.972656 127.566406 C 373.621094 132.460938 376.519531 151.195312 368.539062 170.253906 C 365.515625 177.472656 361.324219 183.78125 356.441406 188.539062 C 355.402344 189.511719 354.054688 190.023438 352.695312 190.023438 Z M 358.039062 137.609375 L 358.039062 167.417969 C 364.03125 154.292969 363.519531 140.316406 358.039062 137.609375 Z M 358.039062 137.609375 " fill-opacity="1" fill-rule="evenodd"/><path fill="#000000" d="M 206.757812 190.023438 C 205.40625 190.023438 204.046875 189.511719 203.023438 188.539062 C 198.128906 183.78125 193.945312 177.472656 190.914062 170.253906 C 180.035156 144.304688 190.074219 122.160156 208.167969 127.054688 C 210.488281 127.691406 212.101562 129.816406 212.101562 132.199219 L 212.101562 184.679688 C 212.101562 187.640625 209.714844 190.023438 206.757812 190.023438 Z M 201.414062 137.609375 C 195.941406 140.316406 195.417969 154.21875 201.414062 167.417969 Z M 201.414062 137.609375 " fill-opacity="1" fill-rule="evenodd"/><path fill="#000000" d="M 280.210938 320.484375 C 278.726562 320.484375 277.378906 319.90625 276.34375 318.871094 C 272.035156 314.75 215.183594 284.289062 209.652344 278.570312 C 207.71875 276.570312 207.65625 273.476562 209.390625 271.351562 C 215.183594 264.53125 224.261719 257.050781 226.070312 243.863281 C 226.648438 239.867188 231.21875 237.867188 234.5 240.191406 L 240.617188 244.5625 C 248.210938 248.558594 256.777344 250.683594 265.339844 250.683594 L 294.121094 250.683594 C 302.675781 250.683594 311.242188 248.558594 318.832031 244.5625 C 323.089844 241.925781 326.050781 237.804688 330.230469 239.605469 C 331.96875 240.378906 333.191406 241.988281 333.453125 243.789062 C 335.25 257.050781 344.328125 264.53125 350.121094 271.351562 C 351.859375 273.476562 351.796875 276.570312 349.871094 278.570312 C 344.390625 284.226562 288.253906 314.8125 284.007812 318.871094 C 283.046875 319.90625 281.625 320.484375 280.210938 320.484375 Z M 221.5625 273.996094 C 233.863281 281.71875 271.070312 302.449219 280.148438 308.441406 C 289.164062 302.449219 325.789062 281.78125 338.023438 273.996094 C 333.703125 269.289062 327.984375 262.597656 324.761719 253.453125 L 324.175781 253.839844 C 314.972656 258.800781 304.546875 261.433594 294.121094 261.433594 L 265.339844 261.433594 C 254.914062 261.433594 244.476562 258.800781 235.273438 253.839844 C 235.074219 253.777344 234.886719 253.640625 234.761719 253.515625 C 231.542969 262.597656 225.875 269.289062 221.5625 273.996094 Z M 221.5625 273.996094 " fill-opacity="1" fill-rule="evenodd"/><g clip-path="url(#68c97e9836)"><path fill="#000000" d="M 172.832031 468.199219 L 111.277344 468.199219 C 108.316406 468.199219 105.941406 465.816406 105.941406 462.855469 L 105.941406 368.839844 C 105.941406 338.316406 119.777344 309.855469 143.925781 290.796875 C 146.109375 289.125 149.132812 289.320312 151.066406 291.246094 C 168.574219 309.089844 178.238281 332.585938 178.238281 357.386719 L 178.238281 462.855469 C 178.238281 465.816406 175.789062 468.199219 172.832031 468.199219 Z M 116.691406 457.445312 L 167.488281 457.445312 L 167.488281 357.386719 C 167.488281 337.03125 160.144531 317.710938 146.75 302.386719 C 127.570312 319.320312 116.691406 343.273438 116.691406 368.839844 Z M 116.691406 457.445312 " fill-opacity="1" fill-rule="evenodd"/></g><g clip-path="url(#95ca030d4c)"><path fill="#000000" d="M 448.175781 468.199219 L 386.632812 468.199219 C 383.671875 468.199219 381.226562 465.816406 381.226562 462.855469 L 381.226562 357.386719 C 381.226562 332.585938 390.878906 309.089844 408.382812 291.246094 C 410.320312 289.320312 413.414062 289.125 415.535156 290.796875 C 439.671875 309.855469 453.519531 338.316406 453.519531 368.839844 L 453.519531 462.855469 C 453.519531 465.816406 451.136719 468.199219 448.175781 468.199219 Z M 391.976562 457.445312 L 442.769531 457.445312 L 442.769531 368.839844 C 442.769531 343.273438 431.882812 319.320312 412.703125 302.386719 C 399.304688 317.710938 391.976562 337.03125 391.976562 357.386719 Z M 391.976562 457.445312 " fill-opacity="1" fill-rule="evenodd"/></g><path fill="#000000" d="M 360.296875 117.261719 L 199.152344 117.261719 C 190.785156 117.261719 183.96875 110.433594 183.96875 102.066406 L 183.96875 89.765625 C 183.96875 81.394531 190.785156 74.566406 199.152344 74.566406 L 360.296875 74.566406 C 368.664062 74.566406 375.492188 81.394531 375.492188 89.765625 L 375.492188 102.066406 C 375.492188 110.433594 368.664062 117.261719 360.296875 117.261719 Z M 199.152344 85.253906 C 196.707031 85.253906 194.71875 87.253906 194.71875 89.765625 L 194.71875 102.066406 C 194.71875 104.511719 196.707031 106.511719 199.152344 106.511719 L 360.296875 106.511719 C 362.746094 106.511719 364.804688 104.511719 364.804688 102.066406 L 364.804688 89.765625 C 364.804688 87.253906 362.746094 85.253906 360.296875 85.253906 Z M 199.152344 85.253906 " fill-opacity="1" fill-rule="evenodd"/><g clip-path="url(#382577e37a)"><path fill="#000000" d="M 353.40625 85.253906 L 206.046875 85.253906 C 202.824219 85.253906 200.3125 82.359375 200.765625 79.136719 C 206.242188 39.921875 239.96875 10.558594 279.761719 10.558594 C 299.078125 10.558594 317.746094 17.578125 332.292969 30.328125 C 346.589844 42.820312 355.917969 60.015625 358.6875 78.6875 C 359.335938 82.359375 356.753906 85.253906 353.40625 85.253906 Z M 212.488281 74.566406 L 346.976562 74.566406 C 339.757812 43.792969 311.890625 21.3125 279.761719 21.3125 C 247.636719 21.3125 219.753906 43.792969 212.488281 74.566406 Z M 212.488281 74.566406 " fill-opacity="1" fill-rule="evenodd"/></g><path fill="#000000" d="M 341.046875 190.148438 C 329.972656 190.148438 312.277344 188.476562 290.511719 180.683594 C 282.460938 177.785156 276.992188 177.785156 268.949219 180.683594 C 232.054688 193.957031 206.820312 189.449219 205.785156 189.25 C 198.839844 187.964844 200.765625 177.472656 207.71875 178.695312 C 207.980469 178.757812 231.414062 182.742188 265.277344 170.578125 C 275.703125 166.84375 283.746094 166.84375 294.183594 170.578125 C 328.109375 182.816406 351.484375 178.757812 351.734375 178.695312 C 358.6875 177.472656 360.621094 187.964844 353.667969 189.25 C 353.28125 189.3125 348.773438 190.148438 341.046875 190.148438 Z M 341.046875 190.148438 " fill-opacity="1" fill-rule="evenodd"/><path fill="#000000" d="M 386.757812 358.222656 L 172.757812 358.222656 C 165.675781 358.222656 165.675781 347.53125 172.757812 347.53125 L 386.757812 347.53125 C 393.773438 347.53125 393.773438 358.222656 386.757812 358.222656 Z M 397.320312 320.484375 L 162.144531 320.484375 C 155.0625 320.484375 155.0625 309.730469 162.144531 309.730469 L 397.320312 309.730469 C 404.398438 309.730469 404.398438 320.484375 397.320312 320.484375 Z M 397.320312 320.484375 " fill-opacity="1" fill-rule="evenodd"/><path fill="#000000" d="M 386.757812 395.953125 L 172.757812 395.953125 C 165.675781 395.953125 165.675781 385.261719 172.757812 385.261719 L 386.757812 385.261719 C 393.773438 385.261719 393.773438 395.953125 386.757812 395.953125 Z M 386.757812 395.953125 " fill-opacity="1" fill-rule="evenodd"/><path fill="#000000" d="M 386.757812 433.683594 L 172.757812 433.683594 C 165.675781 433.683594 165.675781 422.992188 172.757812 422.992188 L 386.757812 422.992188 C 393.773438 422.992188 393.773438 433.683594 386.757812 433.683594 Z M 386.757812 433.683594 " fill-opacity="1" fill-rule="evenodd"/></svg>