<svg xmlns="http://www.w3.org/2000/svg" xmlns:xlink="http://www.w3.org/1999/xlink" width="743" zoomAndPan="magnify" viewBox="0 0 557.25 474.749981" height="633" preserveAspectRatio="xMidYMid meet" version="1.0"><defs><clipPath id="a72681a658"><path d="M 471 190 L 487.90625 190 L 487.90625 226 L 471 226 Z M 471 190 " clip-rule="nonzero"/></clipPath><clipPath id="9c8f9c2cb2"><path d="M 470 245 L 487.90625 245 L 487.90625 280 L 470 280 Z M 470 245 " clip-rule="nonzero"/></clipPath><clipPath id="274086d470"><path d="M 222 429 L 257 429 L 257 446.90625 L 222 446.90625 Z M 222 429 " clip-rule="nonzero"/></clipPath><clipPath id="47a3f8b9d6"><path d="M 277 431 L 312 431 L 312 446.90625 L 277 446.90625 Z M 277 431 " clip-rule="nonzero"/></clipPath><clipPath id="4679dda6e6"><path d="M 359 98 L 487.90625 98 L 487.90625 194 L 359 194 Z M 359 98 " clip-rule="nonzero"/></clipPath><clipPath id="ed196c5699"><path d="M 55.738281 99 L 185 99 L 185 194 L 55.738281 194 Z M 55.738281 99 " clip-rule="nonzero"/></clipPath></defs><path fill="#000000" d="M 393.367188 372.964844 L 393.367188 278.089844 C 393.367188 239.597656 366.359375 207.1875 330.230469 199.082031 C 326.179688 203.472656 321.453125 207.523438 316.050781 210.902344 C 351.503906 212.925781 379.863281 242.300781 379.863281 278.089844 L 379.863281 365.875 L 163.777344 365.875 L 163.777344 278.089844 C 163.777344 241.960938 192.140625 212.589844 227.253906 210.5625 C 222.1875 207.1875 217.460938 203.136719 213.074219 198.746094 C 177.285156 207.1875 150.273438 239.597656 150.273438 278.089844 L 150.273438 372.625 C 150.273438 376.339844 153.3125 379.378906 157.027344 379.378906 L 386.617188 379.378906 C 390.328125 379.714844 393.367188 376.675781 393.367188 372.964844 Z M 393.367188 372.964844 " fill-opacity="1" fill-rule="nonzero"/><path fill="#000000" d="M 271.820312 210.5625 C 308.960938 210.5625 339.347656 180.175781 339.347656 143.035156 C 339.347656 105.898438 308.960938 75.511719 271.820312 75.511719 C 234.683594 75.511719 204.296875 105.898438 204.296875 143.035156 C 204.296875 180.175781 234.683594 210.5625 271.820312 210.5625 Z M 271.820312 210.5625 " fill-opacity="1" fill-rule="nonzero"/><path fill="#000000" d="M 139.808594 74.835938 C 141.15625 74.835938 142.847656 74.496094 144.195312 73.484375 C 149.261719 69.433594 154.664062 65.382812 160.066406 61.667969 C 163.105469 59.640625 164.117188 55.253906 162.089844 52.214844 C 160.066406 49.175781 155.675781 48.164062 152.636719 50.1875 C 146.898438 54.238281 141.15625 58.292969 135.417969 62.679688 C 132.378906 65.042969 132.042969 69.433594 134.40625 72.132812 C 136.09375 73.824219 137.78125 74.835938 139.808594 74.835938 Z M 139.808594 74.835938 " fill-opacity="1" fill-rule="nonzero"/><path fill="#000000" d="M 109.757812 109.273438 C 110.433594 108.261719 111.109375 107.246094 111.785156 106.574219 L 111.785156 105.898438 C 111.785156 98.808594 115.496094 92.390625 121.238281 88.679688 C 120.898438 88.003906 120.226562 87.328125 119.886719 86.652344 C 117.1875 84.289062 112.796875 84.289062 110.433594 87.328125 C 105.707031 92.730469 101.316406 98.132812 97.265625 103.871094 C 95.914062 105.558594 95.914062 107.585938 96.253906 109.273438 Z M 109.757812 109.273438 " fill-opacity="1" fill-rule="nonzero"/><path fill="#000000" d="M 70.253906 209.550781 C 70.929688 203.136719 71.945312 196.382812 73.292969 189.96875 C 73.96875 187.265625 72.617188 184.566406 70.59375 183.214844 L 62.828125 183.214844 C 61.476562 184.226562 60.464844 185.578125 60.125 187.265625 C 58.777344 194.019531 57.761719 201.109375 57.085938 208.199219 L 63.839844 208.875 Z M 70.253906 209.550781 " fill-opacity="1" fill-rule="nonzero"/><path fill="#000000" d="M 71.605469 262.894531 C 70.59375 256.480469 69.917969 249.726562 69.578125 242.976562 C 69.242188 239.261719 66.203125 236.5625 62.488281 236.5625 C 58.777344 236.898438 56.074219 239.9375 56.074219 243.652344 C 56.414062 250.742188 57.085938 257.832031 58.4375 264.921875 C 59.113281 268.296875 61.8125 270.660156 65.191406 270.660156 C 65.527344 270.660156 65.867188 270.660156 66.203125 270.660156 C 69.917969 269.984375 72.28125 266.609375 71.605469 262.894531 Z M 71.605469 262.894531 " fill-opacity="1" fill-rule="nonzero"/><path fill="#000000" d="M 292.753906 28.917969 L 293.09375 28.917969 C 299.507812 29.59375 305.921875 30.605469 312.335938 31.957031 C 316.050781 32.632812 319.425781 30.269531 320.441406 26.554688 C 321.117188 22.839844 318.753906 19.464844 315.039062 18.449219 C 308.285156 17.101562 301.53125 16.085938 294.441406 15.410156 L 294.105469 15.410156 C 290.390625 15.074219 287.015625 17.777344 286.675781 21.488281 C 286.339844 25.203125 289.039062 28.578125 292.753906 28.917969 Z M 292.753906 28.917969 " fill-opacity="1" fill-rule="nonzero"/><path fill="#000000" d="M 431.859375 106.574219 C 432.535156 107.585938 433.210938 108.261719 433.882812 109.273438 L 450.429688 109.273438 C 447.050781 104.210938 443.339844 99.144531 439.285156 94.417969 C 436.921875 91.378906 432.535156 91.042969 429.832031 93.40625 C 429.15625 93.742188 428.820312 94.417969 428.480469 94.753906 C 430.507812 97.792969 431.519531 101.84375 431.519531 105.558594 L 431.519531 106.574219 Z M 431.859375 106.574219 " fill-opacity="1" fill-rule="nonzero"/><path fill="#000000" d="M 238.734375 30.605469 C 239.070312 30.605469 239.410156 30.605469 239.746094 30.605469 C 246.160156 29.59375 252.914062 28.917969 259.328125 28.578125 C 263.042969 28.242188 265.742188 25.203125 265.742188 21.488281 C 265.40625 17.777344 262.367188 14.738281 258.652344 15.074219 C 251.5625 15.410156 244.472656 16.425781 237.71875 17.4375 C 234.007812 17.777344 231.304688 21.152344 231.980469 24.867188 C 232.65625 28.242188 235.355469 30.605469 238.734375 30.605469 Z M 238.734375 30.605469 " fill-opacity="1" fill-rule="nonzero"/><path fill="#000000" d="M 390.667969 66.394531 C 396.070312 70.109375 401.132812 74.496094 406.199219 78.886719 C 408.898438 81.25 413.289062 80.914062 415.652344 78.210938 C 418.015625 75.511719 418.015625 71.121094 414.976562 68.757812 C 409.574219 64.03125 404.171875 59.640625 398.433594 55.589844 C 395.394531 53.226562 391.34375 54.238281 388.980469 56.941406 C 386.953125 59.980469 387.628906 64.367188 390.667969 66.394531 Z M 390.667969 66.394531 " fill-opacity="1" fill-rule="nonzero"/><path fill="#000000" d="M 344.074219 41.070312 C 350.152344 43.433594 356.230469 46.136719 362.304688 49.175781 C 365.683594 50.863281 369.734375 49.511719 371.421875 46.136719 C 373.109375 42.761719 371.761719 38.707031 368.382812 37.019531 C 361.96875 33.980469 355.554688 30.941406 348.800781 28.578125 C 345.425781 27.230469 341.375 28.917969 340.023438 32.632812 C 338.671875 36.007812 340.699219 39.722656 344.074219 41.070312 Z M 344.074219 41.070312 " fill-opacity="1" fill-rule="nonzero"/><path fill="#000000" d="M 79.707031 294.972656 C 78.359375 291.59375 74.644531 289.570312 71.269531 290.582031 C 67.890625 291.933594 65.867188 295.644531 66.878906 299.023438 C 69.242188 305.773438 71.605469 312.527344 74.644531 318.941406 C 75.65625 321.304688 78.359375 322.996094 80.722656 322.996094 C 81.734375 322.996094 82.746094 322.65625 83.421875 322.320312 C 86.800781 320.632812 88.488281 316.917969 86.800781 313.539062 C 84.097656 307.464844 81.734375 301.386719 79.707031 294.972656 Z M 79.707031 294.972656 " fill-opacity="1" fill-rule="nonzero"/><path fill="#000000" d="M 186.402344 46.136719 C 187.414062 46.136719 188.425781 45.800781 189.101562 45.460938 C 195.179688 42.761719 201.257812 40.398438 207.671875 38.371094 C 211.046875 37.019531 213.074219 33.304688 212.058594 29.929688 C 210.710938 26.554688 206.996094 24.527344 203.621094 25.539062 C 196.867188 27.90625 190.453125 30.269531 184.035156 33.304688 C 180.660156 34.996094 178.972656 38.707031 180.660156 42.085938 C 181.335938 44.449219 183.699219 46.136719 186.402344 46.136719 Z M 186.402344 46.136719 " fill-opacity="1" fill-rule="nonzero"/><path fill="#000000" d="M 445.027344 348.65625 C 441.988281 346.289062 437.9375 346.964844 435.574219 350.003906 C 431.859375 355.40625 427.46875 360.472656 423.082031 365.535156 C 420.714844 368.238281 420.714844 372.625 423.753906 374.988281 C 426.457031 377.351562 430.84375 377.351562 433.210938 374.3125 C 437.9375 368.914062 442.324219 363.511719 446.375 357.769531 C 448.738281 355.070312 448.066406 350.679688 445.027344 348.65625 Z M 445.027344 348.65625 " fill-opacity="1" fill-rule="nonzero"/><path fill="#000000" d="M 399.445312 388.496094 C 394.382812 392.546875 388.980469 396.597656 383.238281 400.3125 C 380.199219 402.335938 379.1875 406.726562 381.214844 409.765625 C 383.238281 412.804688 387.628906 413.816406 390.667969 411.792969 C 396.40625 407.738281 402.148438 403.6875 407.886719 399.300781 C 410.925781 396.9375 411.261719 392.546875 408.898438 389.84375 C 406.535156 386.46875 402.148438 386.132812 399.445312 388.496094 Z M 399.445312 388.496094 " fill-opacity="1" fill-rule="nonzero"/><path fill="#000000" d="M 102.667969 342.578125 C 100.640625 339.539062 96.253906 338.523438 93.214844 340.550781 C 90.175781 342.578125 89.164062 346.964844 91.1875 350.003906 C 95.238281 355.746094 99.292969 361.820312 103.679688 367.222656 C 105.03125 368.914062 107.058594 369.585938 109.082031 369.585938 C 110.433594 369.585938 112.121094 369.25 113.472656 368.238281 C 116.511719 365.875 116.847656 361.484375 114.484375 358.785156 C 110.433594 353.382812 106.382812 347.980469 102.667969 342.578125 Z M 102.667969 342.578125 " fill-opacity="1" fill-rule="nonzero"/><g clip-path="url(#a72681a658)"><path fill="#000000" d="M 477.4375 190.980469 C 473.726562 191.65625 471.363281 195.03125 471.699219 198.746094 C 472.710938 205.160156 473.386719 211.914062 473.726562 218.667969 C 474.0625 222.378906 476.761719 225.082031 480.476562 225.082031 C 484.191406 225.082031 487.566406 221.703125 487.230469 217.992188 C 486.890625 210.902344 485.878906 203.808594 484.867188 196.71875 C 484.527344 192.667969 481.152344 190.304688 477.4375 190.980469 Z M 477.4375 190.980469 " fill-opacity="1" fill-rule="nonzero"/></g><g clip-path="url(#9c8f9c2cb2)"><path fill="#000000" d="M 480.816406 245.339844 C 477.101562 245 473.726562 247.703125 473.386719 251.417969 L 473.386719 251.753906 C 472.710938 258.507812 471.699219 264.921875 470.347656 271.335938 C 469.671875 275.050781 472.035156 278.425781 475.75 279.441406 C 479.128906 280.113281 482.839844 277.75 483.855469 274.039062 C 485.203125 267.285156 486.21875 260.195312 487.230469 253.105469 L 487.230469 252.429688 C 487.230469 249.054688 484.527344 246.015625 480.816406 245.339844 Z M 480.816406 245.339844 " fill-opacity="1" fill-rule="nonzero"/></g><path fill="#000000" d="M 469.671875 299.699219 C 466.296875 298.347656 462.246094 300.035156 460.894531 303.75 C 458.53125 309.828125 455.832031 315.902344 452.792969 321.980469 C 451.105469 325.359375 452.453125 329.410156 455.832031 331.097656 C 459.207031 332.785156 463.257812 331.433594 464.945312 328.058594 C 467.984375 321.644531 471.023438 315.230469 473.386719 308.476562 C 475.074219 304.761719 473.050781 301.046875 469.671875 299.699219 Z M 469.671875 299.699219 " fill-opacity="1" fill-rule="nonzero"/><path fill="#000000" d="M 152.976562 395.246094 C 147.574219 391.535156 142.507812 387.144531 137.445312 382.753906 C 134.742188 380.390625 130.355469 380.390625 127.988281 383.429688 C 125.625 386.132812 125.625 390.519531 128.664062 392.882812 C 134.066406 397.609375 139.46875 402 145.210938 406.050781 C 146.558594 407.066406 147.910156 407.402344 149.261719 407.402344 C 151.285156 407.402344 153.3125 406.390625 154.664062 404.699219 C 156.6875 401.664062 156.011719 397.273438 152.976562 395.246094 Z M 152.976562 395.246094 " fill-opacity="1" fill-rule="nonzero"/><path fill="#000000" d="M 199.230469 420.230469 C 193.152344 417.867188 187.074219 415.167969 181 412.128906 C 177.621094 410.441406 173.570312 411.792969 171.882812 415.167969 C 170.195312 418.542969 171.542969 422.59375 174.921875 424.285156 C 181.335938 427.324219 187.75 430.359375 194.164062 432.722656 C 194.839844 433.0625 195.855469 433.0625 196.53125 433.0625 C 199.230469 433.0625 201.929688 431.375 202.945312 428.671875 C 204.632812 425.632812 202.945312 421.582031 199.230469 420.230469 Z M 199.230469 420.230469 " fill-opacity="1" fill-rule="nonzero"/><g clip-path="url(#274086d470)"><path fill="#000000" d="M 250.550781 432.722656 C 244.136719 432.050781 237.382812 431.035156 230.96875 429.6875 C 227.253906 429.011719 223.878906 431.375 222.863281 435.089844 C 222.1875 438.800781 224.554688 442.179688 228.265625 443.191406 C 235.019531 444.542969 242.109375 445.554688 248.863281 446.230469 C 248.863281 446.230469 249.199219 446.230469 249.539062 446.230469 C 249.875 446.230469 249.875 446.230469 250.210938 446.230469 C 253.589844 446.230469 256.628906 443.527344 256.964844 440.152344 C 256.964844 436.101562 254.265625 433.0625 250.550781 432.722656 Z M 250.550781 432.722656 " fill-opacity="1" fill-rule="nonzero"/></g><g clip-path="url(#47a3f8b9d6)"><path fill="#000000" d="M 303.558594 431.375 C 297.144531 432.386719 290.390625 433.0625 283.636719 433.398438 C 279.925781 433.738281 277.222656 436.777344 277.222656 440.488281 C 277.5625 444.203125 280.261719 446.90625 283.976562 446.90625 C 283.976562 446.90625 284.3125 446.90625 284.3125 446.90625 C 291.402344 446.566406 298.492188 445.890625 305.246094 444.542969 C 308.960938 443.867188 311.324219 440.488281 310.988281 436.777344 C 310.648438 433.0625 307.273438 430.699219 303.558594 431.375 Z M 303.558594 431.375 " fill-opacity="1" fill-rule="nonzero"/></g><path fill="#000000" d="M 354.203125 416.179688 C 348.125 418.882812 342.046875 421.246094 335.632812 423.269531 C 332.257812 424.621094 330.230469 428.335938 331.246094 431.710938 C 332.257812 435.089844 336.308594 437.113281 339.683594 436.101562 C 346.4375 433.738281 352.851562 431.375 359.605469 428.335938 C 362.980469 426.648438 364.667969 422.933594 362.980469 419.558594 C 361.632812 416.179688 357.578125 414.492188 354.203125 416.179688 Z M 354.203125 416.179688 " fill-opacity="1" fill-rule="nonzero"/><g clip-path="url(#4679dda6e6)"><path fill="#000000" d="M 481.152344 122.777344 L 418.351562 122.777344 L 418.351562 105.558594 C 418.351562 102.859375 416.664062 100.496094 414.300781 99.480469 C 411.9375 98.46875 408.898438 98.808594 406.875 100.496094 L 361.632812 141.011719 C 360.28125 142.363281 359.605469 144.386719 359.605469 146.414062 C 359.605469 148.4375 360.28125 150.128906 361.96875 151.476562 C 361.96875 151.476562 407.210938 191.992188 407.210938 191.992188 C 411.261719 195.707031 418.351562 192.667969 418.351562 186.929688 L 418.351562 169.710938 L 481.152344 169.710938 C 484.867188 169.710938 487.90625 166.671875 487.90625 162.957031 L 487.90625 129.53125 C 487.90625 125.816406 484.867188 122.777344 481.152344 122.777344 Z M 481.152344 122.777344 " fill-opacity="1" fill-rule="nonzero"/></g><g clip-path="url(#ed196c5699)"><path fill="#000000" d="M 129.339844 193.007812 C 131.703125 194.019531 134.40625 194.019531 136.429688 191.992188 L 181.671875 151.476562 C 183.023438 150.128906 184.035156 148.4375 184.035156 146.414062 C 184.035156 144.386719 183.363281 142.699219 181.671875 141.347656 L 136.429688 100.832031 C 134.40625 99.144531 131.703125 98.46875 129.003906 99.820312 C 126.640625 100.832031 124.953125 103.195312 124.953125 105.898438 L 124.953125 122.777344 L 62.488281 122.777344 C 58.777344 122.777344 55.738281 125.816406 55.738281 129.53125 L 55.738281 162.957031 C 55.738281 166.671875 58.777344 169.710938 62.488281 169.710938 L 125.289062 169.710938 C 125.289062 169.710938 125.289062 186.929688 125.289062 186.929688 C 125.289062 189.628906 126.976562 191.992188 129.339844 193.007812 Z M 129.339844 193.007812 " fill-opacity="1" fill-rule="nonzero"/></g></svg>