<svg xmlns="http://www.w3.org/2000/svg" xmlns:xlink="http://www.w3.org/1999/xlink" width="743" zoomAndPan="magnify" viewBox="0 0 557.25 474.749981" height="633" preserveAspectRatio="xMidYMid meet" version="1.0"><defs><clipPath id="e272912e62"><path d="M 117.121094 22.410156 L 438.4375 22.410156 L 438.4375 450.832031 L 117.121094 450.832031 Z M 117.121094 22.410156 " clip-rule="nonzero"/></clipPath></defs><g clip-path="url(#e272912e62)"><path fill="#000000" d="M 364.800781 263.398438 L 317.945312 263.398438 L 317.945312 248.671875 C 332.226562 246.238281 346.34375 243.054688 360.289062 239.125 C 376.128906 234.832031 391.621094 229.53125 406.773438 223.234375 C 407.316406 223 407.820312 222.703125 408.285156 222.339844 C 408.75 221.972656 409.160156 221.554688 409.511719 221.082031 C 409.867188 220.609375 410.152344 220.097656 410.371094 219.546875 C 410.589844 219 410.734375 218.433594 410.800781 217.84375 C 410.867188 217.257812 410.859375 216.671875 410.773438 216.089844 C 410.683594 215.503906 410.523438 214.941406 410.289062 214.402344 C 410.050781 213.859375 409.75 213.359375 409.378906 212.894531 C 409.011719 212.433594 408.589844 212.027344 408.113281 211.679688 C 398.984375 204.945312 390.976562 197.066406 384.09375 188.050781 C 375.507812 176.867188 369.078125 164.5625 364.800781 151.125 C 365.128906 150.839844 365.441406 150.542969 365.75 150.234375 C 366.054688 149.929688 366.347656 149.613281 366.632812 149.285156 C 366.917969 148.960938 367.195312 148.625 367.457031 148.28125 C 367.71875 147.9375 367.972656 147.582031 368.210938 147.222656 C 368.453125 146.863281 368.679688 146.492188 368.894531 146.117188 C 369.113281 145.742188 369.316406 145.359375 369.507812 144.972656 C 369.699219 144.582031 369.875 144.1875 370.042969 143.789062 C 370.207031 143.386719 370.359375 142.984375 370.496094 142.570312 C 370.636719 142.160156 370.761719 141.746094 370.875 141.328125 C 370.984375 140.910156 371.082031 140.488281 371.167969 140.0625 C 371.253906 139.636719 371.324219 139.210938 371.378906 138.78125 C 371.4375 138.351562 371.476562 137.921875 371.507812 137.488281 C 371.535156 137.054688 371.546875 136.625 371.546875 136.191406 C 371.546875 135.757812 371.535156 135.324219 371.507812 134.890625 C 371.476562 134.460938 371.4375 134.027344 371.378906 133.597656 C 371.324219 133.171875 371.253906 132.742188 371.167969 132.316406 C 371.085938 131.894531 370.988281 131.472656 370.875 131.050781 C 370.761719 130.632812 370.636719 130.21875 370.5 129.808594 C 370.359375 129.398438 370.207031 128.992188 370.042969 128.59375 C 369.878906 128.191406 369.699219 127.796875 369.507812 127.410156 C 369.316406 127.019531 369.113281 126.636719 368.898438 126.261719 C 368.679688 125.886719 368.453125 125.519531 368.214844 125.15625 C 367.972656 124.796875 367.722656 124.445312 367.457031 124.101562 C 367.195312 123.757812 366.921875 123.421875 366.636719 123.09375 C 366.351562 122.769531 366.054688 122.453125 365.75 122.144531 C 365.445312 121.835938 365.128906 121.542969 364.804688 121.253906 C 364.480469 120.96875 364.144531 120.691406 363.800781 120.429688 C 363.460938 120.164062 363.109375 119.910156 362.75 119.667969 C 362.390625 119.425781 362.023438 119.195312 361.648438 118.980469 C 361.273438 118.761719 360.890625 118.554688 360.503906 118.363281 C 360.117188 118.171875 359.722656 117.988281 359.324219 117.824219 C 358.921875 117.65625 358.519531 117.5 358.109375 117.359375 L 358.109375 116.128906 C 358.117188 113.496094 357.992188 110.871094 357.742188 108.25 C 357.488281 105.628906 357.109375 103.027344 356.597656 100.445312 C 356.089844 97.863281 355.453125 95.3125 354.691406 92.792969 C 353.929688 90.273438 353.046875 87.796875 352.039062 85.363281 C 351.03125 82.933594 349.90625 80.554688 348.664062 78.234375 C 347.421875 75.914062 346.070312 73.660156 344.605469 71.472656 C 343.136719 69.285156 341.570312 67.175781 339.894531 65.144531 C 338.222656 63.113281 336.453125 61.167969 334.585938 59.3125 C 329.609375 54.402344 324.0625 50.261719 317.945312 46.886719 L 317.945312 39.148438 C 317.941406 38.601562 317.914062 38.054688 317.863281 37.507812 C 317.808594 36.964844 317.726562 36.421875 317.621094 35.882812 C 317.511719 35.347656 317.378906 34.816406 317.21875 34.292969 C 317.0625 33.769531 316.875 33.253906 316.667969 32.746094 C 316.457031 32.242188 316.222656 31.746094 315.964844 31.261719 C 315.707031 30.777344 315.421875 30.308594 315.117188 29.855469 C 314.816406 29.398438 314.488281 28.960938 314.140625 28.535156 C 313.792969 28.113281 313.425781 27.707031 313.039062 27.320312 C 312.652344 26.929688 312.246094 26.5625 311.820312 26.214844 C 311.398438 25.867188 310.957031 25.542969 310.503906 25.238281 C 310.046875 24.933594 309.578125 24.652344 309.09375 24.394531 C 308.613281 24.136719 308.117188 23.902344 307.609375 23.691406 C 307.105469 23.480469 306.589844 23.296875 306.066406 23.136719 C 305.539062 22.976562 305.007812 22.84375 304.472656 22.738281 C 303.933594 22.628906 303.394531 22.550781 302.847656 22.496094 C 302.304688 22.441406 301.757812 22.414062 301.207031 22.414062 L 254.347656 22.414062 C 253.800781 22.414062 253.253906 22.441406 252.710938 22.496094 C 252.164062 22.550781 251.621094 22.628906 251.085938 22.738281 C 250.546875 22.84375 250.015625 22.976562 249.492188 23.136719 C 248.96875 23.296875 248.453125 23.480469 247.945312 23.691406 C 247.441406 23.902344 246.945312 24.136719 246.464844 24.394531 C 245.980469 24.652344 245.511719 24.933594 245.054688 25.238281 C 244.597656 25.542969 244.160156 25.867188 243.738281 26.214844 C 243.3125 26.5625 242.90625 26.929688 242.519531 27.320312 C 242.132812 27.707031 241.765625 28.113281 241.417969 28.535156 C 241.070312 28.960938 240.742188 29.398438 240.4375 29.855469 C 240.132812 30.308594 239.851562 30.777344 239.59375 31.261719 C 239.335938 31.746094 239.101562 32.242188 238.890625 32.746094 C 238.683594 33.253906 238.496094 33.769531 238.335938 34.292969 C 238.179688 34.816406 238.046875 35.347656 237.9375 35.882812 C 237.832031 36.421875 237.75 36.964844 237.695312 37.507812 C 237.640625 38.054688 237.613281 38.601562 237.613281 39.148438 L 237.613281 46.875 C 234.570312 48.605469 231.65625 50.53125 228.867188 52.648438 C 226.078125 54.765625 223.441406 57.054688 220.957031 59.519531 C 218.472656 61.988281 216.160156 64.605469 214.019531 67.375 C 211.878906 70.148438 209.933594 73.046875 208.175781 76.074219 C 206.417969 79.105469 204.871094 82.234375 203.527344 85.46875 C 202.183594 88.703125 201.058594 92.007812 200.15625 95.390625 C 199.25 98.773438 198.570312 102.199219 198.117188 105.671875 C 197.664062 109.140625 197.441406 112.628906 197.449219 116.128906 L 197.449219 117.359375 C 197.046875 117.5 196.652344 117.652344 196.261719 117.820312 C 195.867188 117.984375 195.484375 118.160156 195.101562 118.351562 C 194.722656 118.542969 194.347656 118.742188 193.980469 118.957031 C 193.613281 119.171875 193.253906 119.398438 192.898438 119.632812 C 192.546875 119.871094 192.203125 120.117188 191.863281 120.378906 C 191.527344 120.636719 191.199219 120.90625 190.878906 121.183594 C 190.558594 121.464844 190.25 121.753906 189.945312 122.054688 C 189.644531 122.355469 189.355469 122.664062 189.074219 122.980469 C 188.789062 123.300781 188.519531 123.625 188.257812 123.960938 C 187.996094 124.296875 187.75 124.640625 187.507812 124.992188 C 187.269531 125.34375 187.042969 125.703125 186.828125 126.070312 C 186.609375 126.4375 186.40625 126.808594 186.214844 127.1875 C 186.023438 127.566406 185.84375 127.953125 185.675781 128.34375 C 185.507812 128.734375 185.351562 129.128906 185.210938 129.53125 C 185.070312 129.929688 184.9375 130.335938 184.824219 130.742188 C 184.707031 131.152344 184.601562 131.566406 184.511719 131.980469 C 184.421875 132.394531 184.347656 132.8125 184.28125 133.234375 C 184.21875 133.652344 184.167969 134.074219 184.132812 134.5 C 184.097656 134.921875 184.074219 135.347656 184.066406 135.773438 C 184.054688 136.195312 184.058594 136.621094 184.078125 137.046875 C 184.09375 137.472656 184.125 137.894531 184.171875 138.316406 C 184.214844 138.742188 184.273438 139.160156 184.347656 139.582031 C 184.417969 140 184.503906 140.414062 184.601562 140.828125 C 184.699219 141.242188 184.8125 141.652344 184.9375 142.058594 C 185.0625 142.464844 185.199219 142.867188 185.347656 143.265625 C 185.5 143.664062 185.660156 144.054688 185.835938 144.441406 C 186.011719 144.828125 186.199219 145.210938 186.398438 145.585938 C 186.597656 145.960938 186.808594 146.328125 187.035156 146.691406 C 187.257812 147.054688 187.492188 147.40625 187.738281 147.753906 C 187.984375 148.101562 188.238281 148.441406 188.507812 148.769531 C 188.773438 149.101562 189.050781 149.421875 189.339844 149.734375 C 189.628906 150.046875 189.925781 150.351562 190.234375 150.644531 C 185.902344 164.269531 179.382812 176.75 170.671875 188.089844 C 163.730469 197.074219 155.695312 204.945312 146.574219 211.707031 C 146.101562 212.0625 145.6875 212.46875 145.324219 212.933594 C 144.960938 213.398438 144.664062 213.902344 144.433594 214.445312 C 144.203125 214.988281 144.046875 215.550781 143.96875 216.136719 C 143.886719 216.71875 143.882812 217.304688 143.957031 217.890625 C 144.03125 218.472656 144.175781 219.039062 144.402344 219.585938 C 144.625 220.128906 144.914062 220.636719 145.269531 221.109375 C 145.625 221.578125 146.039062 221.992188 146.503906 222.351562 C 146.972656 222.710938 147.476562 223.007812 148.019531 223.234375 C 163.480469 229.628906 179.28125 235.015625 195.429688 239.394531 C 209.3125 243.339844 223.375 246.503906 237.613281 248.882812 L 237.613281 263.398438 L 190.753906 263.398438 C 189.550781 263.398438 188.347656 263.429688 187.144531 263.492188 C 185.941406 263.550781 184.738281 263.640625 183.539062 263.761719 C 182.34375 263.878906 181.148438 264.027344 179.957031 264.207031 C 178.765625 264.382812 177.578125 264.589844 176.394531 264.828125 C 175.214844 265.0625 174.039062 265.328125 172.871094 265.621094 C 171.703125 265.917969 170.542969 266.238281 169.390625 266.589844 C 168.238281 266.941406 167.09375 267.316406 165.960938 267.726562 C 164.828125 268.132812 163.703125 268.566406 162.589844 269.027344 C 161.476562 269.488281 160.378906 269.976562 159.289062 270.492188 C 158.199219 271.007812 157.125 271.550781 156.0625 272.121094 C 155 272.6875 153.953125 273.28125 152.917969 273.902344 C 151.886719 274.519531 150.871094 275.167969 149.867188 275.835938 C 148.867188 276.503906 147.882812 277.199219 146.914062 277.917969 C 145.945312 278.632812 144.996094 279.375 144.066406 280.140625 C 143.136719 280.90625 142.222656 281.691406 141.332031 282.5 C 140.4375 283.308594 139.566406 284.140625 138.714844 284.992188 C 137.863281 285.84375 137.03125 286.714844 136.222656 287.609375 C 135.414062 288.5 134.628906 289.414062 133.863281 290.34375 C 133.097656 291.273438 132.359375 292.222656 131.640625 293.191406 C 130.921875 294.160156 130.226562 295.144531 129.558594 296.144531 C 128.890625 297.144531 128.246094 298.164062 127.625 299.195312 C 127.003906 300.230469 126.410156 301.277344 125.84375 302.339844 C 125.273438 303.402344 124.730469 304.476562 124.214844 305.566406 C 123.699219 306.652344 123.210938 307.753906 122.75 308.867188 C 122.289062 309.980469 121.855469 311.101562 121.449219 312.238281 C 121.042969 313.371094 120.664062 314.515625 120.3125 315.667969 C 119.960938 316.820312 119.640625 317.980469 119.34375 319.148438 C 119.050781 320.316406 118.785156 321.492188 118.550781 322.671875 C 118.3125 323.855469 118.105469 325.039062 117.929688 326.230469 C 117.75 327.421875 117.601562 328.617188 117.484375 329.816406 C 117.363281 331.015625 117.273438 332.214844 117.214844 333.417969 C 117.152344 334.621094 117.121094 335.828125 117.121094 337.03125 L 117.121094 444.136719 C 117.121094 444.574219 117.164062 445.011719 117.25 445.441406 C 117.335938 445.871094 117.460938 446.289062 117.628906 446.695312 C 117.796875 447.101562 118.003906 447.488281 118.25 447.855469 C 118.492188 448.21875 118.769531 448.558594 119.082031 448.867188 C 119.390625 449.179688 119.730469 449.457031 120.09375 449.699219 C 120.460938 449.945312 120.847656 450.152344 121.253906 450.320312 C 121.660156 450.488281 122.078125 450.613281 122.507812 450.699219 C 122.9375 450.785156 123.375 450.828125 123.8125 450.828125 L 431.742188 450.828125 C 432.183594 450.828125 432.617188 450.785156 433.050781 450.699219 C 433.480469 450.613281 433.898438 450.488281 434.304688 450.320312 C 434.710938 450.152344 435.097656 449.945312 435.460938 449.699219 C 435.828125 449.457031 436.167969 449.179688 436.476562 448.867188 C 436.789062 448.558594 437.066406 448.21875 437.308594 447.855469 C 437.554688 447.488281 437.761719 447.101562 437.929688 446.695312 C 438.097656 446.289062 438.222656 445.871094 438.308594 445.441406 C 438.394531 445.011719 438.4375 444.574219 438.4375 444.136719 L 438.4375 337.03125 C 438.4375 335.828125 438.40625 334.621094 438.34375 333.417969 C 438.285156 332.214844 438.195312 331.015625 438.074219 329.816406 C 437.957031 328.617188 437.804688 327.421875 437.628906 326.230469 C 437.449219 325.039062 437.242188 323.855469 437.007812 322.671875 C 436.769531 321.492188 436.507812 320.316406 436.210938 319.148438 C 435.917969 317.980469 435.597656 316.820312 435.246094 315.667969 C 434.894531 314.515625 434.515625 313.371094 434.109375 312.238281 C 433.703125 311.101562 433.269531 309.980469 432.808594 308.867188 C 432.347656 307.753906 431.855469 306.652344 431.339844 305.566406 C 430.824219 304.476562 430.285156 303.402344 429.714844 302.339844 C 429.148438 301.277344 428.554688 300.230469 427.933594 299.195312 C 427.3125 298.164062 426.667969 297.144531 426 296.144531 C 425.328125 295.144531 424.636719 294.160156 423.917969 293.191406 C 423.199219 292.222656 422.457031 291.273438 421.695312 290.34375 C 420.929688 289.414062 420.144531 288.5 419.335938 287.609375 C 418.523438 286.714844 417.695312 285.84375 416.84375 284.992188 C 415.992188 284.140625 415.117188 283.308594 414.226562 282.5 C 413.332031 281.691406 412.421875 280.90625 411.492188 280.140625 C 410.558594 279.375 409.609375 278.632812 408.644531 277.917969 C 407.675781 277.199219 406.691406 276.503906 405.691406 275.835938 C 404.6875 275.167969 403.671875 274.519531 402.636719 273.902344 C 401.605469 273.28125 400.558594 272.6875 399.496094 272.121094 C 398.433594 271.550781 397.359375 271.007812 396.269531 270.492188 C 395.179688 269.976562 394.078125 269.488281 392.96875 269.027344 C 391.855469 268.566406 390.730469 268.132812 389.597656 267.726562 C 388.460938 267.316406 387.320312 266.941406 386.167969 266.589844 C 385.015625 266.238281 383.855469 265.917969 382.6875 265.621094 C 381.515625 265.328125 380.34375 265.0625 379.160156 264.828125 C 377.980469 264.589844 376.792969 264.382812 375.601562 264.207031 C 374.410156 264.027344 373.214844 263.878906 372.015625 263.761719 C 370.816406 263.640625 369.617188 263.550781 368.414062 263.492188 C 367.210938 263.429688 366.007812 263.398438 364.800781 263.398438 Z M 352.886719 276.785156 L 352.886719 317.753906 C 352.898438 319.898438 353.117188 322.023438 353.542969 324.125 C 353.96875 326.230469 354.59375 328.269531 355.417969 330.253906 C 356.242188 332.234375 357.25 334.117188 358.441406 335.902344 C 359.632812 337.6875 360.984375 339.339844 362.5 340.859375 L 373.117188 351.328125 C 374.75 353.027344 376.039062 354.953125 376.984375 357.113281 L 284.472656 357.113281 L 284.472656 302.878906 C 286.21875 302.578125 287.941406 302.164062 289.632812 301.636719 C 291.324219 301.109375 292.976562 300.472656 294.585938 299.726562 C 296.191406 298.980469 297.742188 298.132812 299.238281 297.179688 C 300.734375 296.226562 302.160156 295.179688 303.515625 294.039062 C 304.875 292.898438 306.148438 291.671875 307.34375 290.359375 C 308.535156 289.050781 309.636719 287.667969 310.648438 286.210938 C 311.660156 284.753906 312.566406 283.234375 313.375 281.65625 C 314.1875 280.078125 314.886719 278.457031 315.480469 276.785156 Z M 176.722656 370.5 L 271.085938 370.5 L 271.085938 397.277344 L 176.722656 397.277344 Z M 315.855469 223.234375 L 288.917969 241.1875 C 288.097656 241.734375 287.242188 242.21875 286.351562 242.636719 C 285.460938 243.058594 284.542969 243.410156 283.597656 243.699219 C 282.65625 243.984375 281.695312 244.199219 280.71875 244.34375 C 279.746094 244.488281 278.765625 244.558594 277.777344 244.558594 C 276.792969 244.558594 275.8125 244.488281 274.835938 244.34375 C 273.863281 244.199219 272.902344 243.984375 271.960938 243.699219 C 271.015625 243.410156 270.097656 243.058594 269.207031 242.636719 C 268.316406 242.21875 267.460938 241.734375 266.640625 241.1875 L 239.703125 223.234375 C 237.136719 221.53125 234.761719 219.597656 232.578125 217.425781 C 230.398438 215.253906 228.449219 212.890625 226.734375 210.332031 C 225.023438 207.773438 223.578125 205.074219 222.398438 202.230469 C 221.222656 199.382812 220.335938 196.453125 219.742188 193.433594 L 212.296875 156.292969 L 343.246094 156.292969 L 335.804688 193.472656 C 335.207031 196.488281 334.320312 199.417969 333.140625 202.257812 C 331.964844 205.097656 330.519531 207.792969 328.808594 210.347656 C 327.09375 212.902344 325.148438 215.265625 322.96875 217.433594 C 320.789062 219.601562 318.417969 221.535156 315.855469 223.234375 Z M 251.003906 263.398438 L 251.003906 246.902344 L 259.210938 252.378906 C 260.574219 253.292969 262 254.101562 263.484375 254.804688 C 264.96875 255.511719 266.5 256.101562 268.070312 256.578125 C 269.644531 257.054688 271.242188 257.414062 272.867188 257.65625 C 274.496094 257.898438 276.128906 258.019531 277.773438 258.019531 C 279.414062 258.019531 281.050781 257.898438 282.675781 257.65625 C 284.300781 257.414062 285.898438 257.054688 287.472656 256.578125 C 289.046875 256.101562 290.574219 255.511719 292.058594 254.804688 C 293.542969 254.101562 294.96875 253.292969 296.335938 252.378906 L 304.554688 246.890625 L 304.554688 263.398438 C 304.554688 264.273438 304.511719 265.148438 304.425781 266.023438 C 304.339844 266.894531 304.210938 267.761719 304.039062 268.621094 C 303.871094 269.480469 303.65625 270.332031 303.402344 271.171875 C 303.148438 272.007812 302.851562 272.832031 302.515625 273.644531 C 302.179688 274.453125 301.808594 275.246094 301.394531 276.019531 C 300.980469 276.792969 300.53125 277.542969 300.042969 278.273438 C 299.554688 279.003906 299.035156 279.707031 298.476562 280.382812 C 297.921875 281.0625 297.332031 281.710938 296.710938 282.332031 C 296.09375 282.949219 295.445312 283.539062 294.765625 284.09375 C 294.085938 284.652344 293.382812 285.171875 292.65625 285.660156 C 291.925781 286.148438 291.175781 286.597656 290.402344 287.011719 C 289.628906 287.425781 288.835938 287.800781 288.027344 288.136719 C 287.214844 288.46875 286.390625 288.765625 285.550781 289.019531 C 284.710938 289.273438 283.863281 289.488281 283.003906 289.660156 C 282.144531 289.828125 281.277344 289.957031 280.402344 290.042969 C 279.53125 290.128906 278.65625 290.171875 277.777344 290.171875 C 276.902344 290.171875 276.027344 290.128906 275.15625 290.042969 C 274.28125 289.957031 273.414062 289.828125 272.554688 289.660156 C 271.695312 289.488281 270.84375 289.273438 270.007812 289.019531 C 269.167969 288.765625 268.34375 288.46875 267.53125 288.136719 C 266.722656 287.800781 265.929688 287.425781 265.15625 287.011719 C 264.382812 286.597656 263.632812 286.148438 262.902344 285.660156 C 262.171875 285.171875 261.46875 284.652344 260.792969 284.09375 C 260.113281 283.539062 259.464844 282.949219 258.84375 282.332031 C 258.226562 281.710938 257.636719 281.0625 257.082031 280.382812 C 256.523438 279.707031 256.003906 279.003906 255.515625 278.273438 C 255.027344 277.542969 254.578125 276.792969 254.164062 276.019531 C 253.75 275.246094 253.375 274.453125 253.039062 273.644531 C 252.703125 272.832031 252.410156 272.007812 252.15625 271.171875 C 251.902344 270.332031 251.6875 269.480469 251.515625 268.621094 C 251.347656 267.761719 251.21875 266.894531 251.132812 266.023438 C 251.046875 265.148438 251.003906 264.273438 251.003906 263.398438 Z M 284.472656 370.5 L 378.832031 370.5 L 378.832031 397.277344 L 284.472656 397.277344 Z M 391.097656 215.09375 C 381.992188 218.546875 370.105469 222.617188 355.550781 226.605469 C 345.980469 229.175781 335.46875 231.960938 323.417969 234.265625 C 326.691406 232.078125 329.714844 229.59375 332.496094 226.808594 C 335.277344 224.027344 337.757812 220.996094 339.941406 217.722656 C 342.125 214.449219 343.964844 210.992188 345.464844 207.355469 C 346.964844 203.71875 348.097656 199.96875 348.855469 196.109375 L 355.191406 164.40625 C 359.804688 175.851562 365.886719 186.457031 373.4375 196.214844 C 378.699219 203.09375 384.585938 209.386719 391.097656 215.09375 Z M 237.613281 62.765625 L 237.613281 82.660156 C 237.613281 83.097656 237.65625 83.535156 237.742188 83.964844 C 237.828125 84.398438 237.957031 84.816406 238.125 85.222656 C 238.292969 85.628906 238.5 86.011719 238.742188 86.378906 C 238.988281 86.742188 239.265625 87.082031 239.574219 87.394531 C 239.886719 87.703125 240.222656 87.980469 240.589844 88.226562 C 240.953125 88.46875 241.339844 88.675781 241.746094 88.84375 C 242.152344 89.011719 242.570312 89.140625 243.003906 89.226562 C 243.433594 89.3125 243.867188 89.351562 244.308594 89.351562 C 244.746094 89.351562 245.183594 89.3125 245.613281 89.226562 C 246.046875 89.140625 246.464844 89.011719 246.871094 88.84375 C 247.277344 88.675781 247.660156 88.46875 248.027344 88.226562 C 248.394531 87.980469 248.730469 87.703125 249.042969 87.394531 C 249.351562 87.082031 249.628906 86.742188 249.875 86.378906 C 250.117188 86.011719 250.324219 85.628906 250.492188 85.222656 C 250.660156 84.816406 250.789062 84.398438 250.875 83.964844 C 250.960938 83.535156 251.003906 83.097656 251.003906 82.660156 L 251.003906 39.148438 C 251.003906 38.703125 251.085938 38.277344 251.257812 37.867188 C 251.425781 37.457031 251.667969 37.097656 251.984375 36.78125 C 252.296875 36.46875 252.660156 36.226562 253.070312 36.054688 C 253.480469 35.886719 253.90625 35.800781 254.347656 35.800781 L 301.207031 35.800781 C 301.652344 35.800781 302.078125 35.886719 302.488281 36.054688 C 302.898438 36.226562 303.261719 36.46875 303.574219 36.78125 C 303.890625 37.097656 304.128906 37.457031 304.300781 37.867188 C 304.46875 38.277344 304.554688 38.703125 304.554688 39.148438 L 304.554688 82.660156 C 304.554688 83.097656 304.597656 83.535156 304.683594 83.964844 C 304.769531 84.398438 304.898438 84.816406 305.066406 85.222656 C 305.234375 85.628906 305.4375 86.011719 305.683594 86.378906 C 305.925781 86.742188 306.207031 87.082031 306.515625 87.394531 C 306.828125 87.703125 307.164062 87.980469 307.53125 88.226562 C 307.894531 88.46875 308.28125 88.675781 308.6875 88.84375 C 309.09375 89.011719 309.511719 89.140625 309.945312 89.226562 C 310.375 89.3125 310.808594 89.351562 311.25 89.351562 C 311.6875 89.351562 312.125 89.3125 312.554688 89.226562 C 312.988281 89.140625 313.40625 89.011719 313.8125 88.84375 C 314.21875 88.675781 314.601562 88.46875 314.96875 88.226562 C 315.332031 87.980469 315.671875 87.703125 315.984375 87.394531 C 316.292969 87.082031 316.570312 86.742188 316.816406 86.378906 C 317.058594 86.011719 317.265625 85.628906 317.433594 85.222656 C 317.601562 84.816406 317.730469 84.398438 317.816406 83.964844 C 317.902344 83.535156 317.945312 83.097656 317.945312 82.660156 L 317.945312 62.65625 C 320.03125 64.191406 322.019531 65.84375 323.910156 67.613281 C 325.800781 69.382812 327.582031 71.257812 329.25 73.238281 C 330.921875 75.21875 332.46875 77.289062 333.890625 79.453125 C 335.316406 81.617188 336.609375 83.855469 337.765625 86.171875 C 338.925781 88.488281 339.945312 90.863281 340.824219 93.300781 C 341.703125 95.734375 342.4375 98.214844 343.019531 100.738281 C 343.605469 103.261719 344.042969 105.808594 344.324219 108.382812 C 344.609375 110.957031 344.742188 113.539062 344.71875 116.128906 L 210.835938 116.128906 C 210.832031 113.546875 210.976562 110.96875 211.269531 108.402344 C 211.5625 105.835938 212.007812 103.296875 212.597656 100.78125 C 213.191406 98.265625 213.929688 95.792969 214.808594 93.363281 C 215.691406 90.9375 216.710938 88.566406 217.871094 86.257812 C 219.027344 83.949219 220.316406 81.714844 221.738281 79.554688 C 223.160156 77.398438 224.699219 75.328125 226.363281 73.351562 C 228.023438 71.375 229.796875 69.5 231.679688 67.730469 C 233.558594 65.957031 235.539062 64.304688 237.613281 62.765625 Z M 204.144531 129.515625 L 351.414062 129.515625 C 351.855469 129.515625 352.289062 129.558594 352.71875 129.644531 C 353.152344 129.730469 353.570312 129.859375 353.976562 130.027344 C 354.382812 130.195312 354.769531 130.402344 355.132812 130.644531 C 355.5 130.890625 355.835938 131.167969 356.148438 131.476562 C 356.457031 131.789062 356.734375 132.128906 356.980469 132.492188 C 357.222656 132.859375 357.429688 133.242188 357.597656 133.648438 C 357.765625 134.054688 357.894531 134.472656 357.980469 134.90625 C 358.066406 135.335938 358.109375 135.773438 358.109375 136.210938 C 358.109375 136.652344 358.066406 137.085938 357.980469 137.515625 C 357.894531 137.949219 357.765625 138.367188 357.597656 138.773438 C 357.429688 139.179688 357.222656 139.566406 356.980469 139.929688 C 356.734375 140.296875 356.457031 140.632812 356.148438 140.945312 C 355.835938 141.253906 355.5 141.53125 355.132812 141.777344 C 354.769531 142.019531 354.382812 142.226562 353.976562 142.394531 C 353.570312 142.5625 353.152344 142.691406 352.71875 142.777344 C 352.289062 142.863281 351.855469 142.90625 351.414062 142.90625 L 204.144531 142.90625 C 203.703125 142.90625 203.269531 142.863281 202.835938 142.777344 C 202.40625 142.691406 201.988281 142.5625 201.582031 142.394531 C 201.175781 142.226562 200.789062 142.019531 200.425781 141.777344 C 200.058594 141.53125 199.722656 141.253906 199.410156 140.945312 C 199.097656 140.632812 198.820312 140.296875 198.578125 139.929688 C 198.332031 139.566406 198.128906 139.179688 197.960938 138.773438 C 197.789062 138.367188 197.664062 137.949219 197.578125 137.515625 C 197.492188 137.085938 197.449219 136.652344 197.449219 136.210938 C 197.449219 135.773438 197.492188 135.335938 197.578125 134.90625 C 197.664062 134.472656 197.789062 134.054688 197.960938 133.648438 C 198.128906 133.242188 198.332031 132.859375 198.578125 132.492188 C 198.820312 132.128906 199.097656 131.789062 199.410156 131.476562 C 199.722656 131.167969 200.058594 130.890625 200.425781 130.644531 C 200.789062 130.402344 201.175781 130.195312 201.582031 130.027344 C 201.988281 129.859375 202.40625 129.730469 202.835938 129.644531 C 203.269531 129.558594 203.703125 129.515625 204.144531 129.515625 Z M 163.699219 215.082031 C 170.191406 209.367188 176.089844 203.09375 181.382812 196.257812 C 189.1875 186.128906 195.433594 175.121094 200.128906 163.226562 L 206.699219 196.109375 C 207.460938 199.988281 208.59375 203.753906 210.097656 207.40625 C 211.605469 211.0625 213.453125 214.53125 215.644531 217.820312 C 217.839844 221.105469 220.335938 224.144531 223.128906 226.9375 C 225.925781 229.730469 228.96875 232.222656 232.257812 234.414062 L 232.351562 234.414062 C 219.78125 232.070312 208.667969 229.058594 198.132812 226.21875 C 186.269531 223.019531 174.691406 219.21875 163.699219 215.082031 Z M 240.078125 276.785156 C 240.671875 278.457031 241.371094 280.082031 242.179688 281.65625 C 242.988281 283.234375 243.898438 284.753906 244.910156 286.210938 C 245.917969 287.667969 247.019531 289.050781 248.214844 290.363281 C 249.40625 291.671875 250.683594 292.898438 252.039062 294.039062 C 253.394531 295.183594 254.820312 296.230469 256.316406 297.179688 C 257.8125 298.132812 259.363281 298.984375 260.972656 299.730469 C 262.582031 300.476562 264.230469 301.113281 265.925781 301.640625 C 267.617188 302.167969 269.335938 302.578125 271.085938 302.878906 L 271.085938 357.113281 L 178.503906 357.113281 C 179.449219 354.992188 180.722656 353.09375 182.335938 351.421875 L 193.152344 340.714844 C 194.652344 339.195312 195.992188 337.546875 197.175781 335.765625 C 198.355469 333.988281 199.351562 332.113281 200.167969 330.140625 C 200.984375 328.167969 201.601562 326.132812 202.023438 324.039062 C 202.445312 321.949219 202.660156 319.832031 202.671875 317.699219 L 202.671875 276.785156 Z M 130.507812 337.03125 C 130.511719 335.089844 130.609375 333.15625 130.800781 331.226562 C 130.992188 329.296875 131.277344 327.378906 131.652344 325.476562 C 132.027344 323.574219 132.496094 321.695312 133.054688 319.835938 C 133.609375 317.976562 134.257812 316.152344 134.992188 314.355469 C 135.726562 312.5625 136.542969 310.804688 137.449219 309.089844 C 138.351562 307.371094 139.335938 305.703125 140.402344 304.082031 C 141.464844 302.460938 142.605469 300.894531 143.824219 299.382812 C 145.039062 297.875 146.324219 296.425781 147.683594 295.039062 C 149.039062 293.652344 150.457031 292.332031 151.941406 291.082031 C 153.425781 289.832031 154.964844 288.660156 156.5625 287.558594 C 158.160156 286.457031 159.804688 285.433594 161.5 284.492188 C 163.195312 283.550781 164.933594 282.695312 166.710938 281.917969 C 168.492188 281.144531 170.304688 280.460938 172.148438 279.859375 C 173.992188 279.261719 175.863281 278.753906 177.757812 278.332031 C 179.648438 277.914062 181.558594 277.589844 183.484375 277.355469 C 185.410156 277.121094 187.34375 276.980469 189.28125 276.933594 L 189.28125 317.753906 C 189.261719 320.296875 188.765625 322.746094 187.789062 325.097656 C 186.816406 327.449219 185.433594 329.527344 183.644531 331.339844 L 172.816406 342.050781 C 171.457031 343.441406 170.234375 344.941406 169.144531 346.550781 C 168.050781 348.160156 167.109375 349.851562 166.320312 351.625 C 165.527344 353.402344 164.898438 355.230469 164.429688 357.117188 C 163.964844 359.003906 163.664062 360.917969 163.539062 362.855469 C 163.445312 363.179688 163.375 363.511719 163.335938 363.847656 L 163.335938 437.441406 L 130.507812 437.441406 Z M 176.628906 410.664062 L 271.085938 410.664062 L 271.085938 437.441406 L 176.699219 437.441406 Z M 284.472656 437.441406 L 284.472656 410.664062 L 378.859375 410.664062 L 378.859375 437.441406 Z M 425.050781 437.441406 L 392.25 437.441406 L 392.25 363.808594 C 392.207031 363.472656 392.140625 363.140625 392.046875 362.816406 C 391.917969 360.867188 391.617188 358.941406 391.144531 357.042969 C 390.671875 355.144531 390.035156 353.304688 389.234375 351.519531 C 388.4375 349.734375 387.484375 348.035156 386.382812 346.421875 C 385.28125 344.804688 384.046875 343.300781 382.675781 341.90625 L 372.046875 331.421875 C 370.234375 329.605469 368.835938 327.511719 367.84375 325.148438 C 366.851562 322.78125 366.339844 320.316406 366.316406 317.753906 L 366.316406 276.933594 C 368.253906 276.980469 370.183594 277.125 372.109375 277.359375 C 374.035156 277.59375 375.941406 277.921875 377.835938 278.339844 C 379.730469 278.757812 381.597656 279.269531 383.441406 279.867188 C 385.285156 280.46875 387.09375 281.15625 388.871094 281.929688 C 390.648438 282.707031 392.386719 283.5625 394.082031 284.507812 C 395.773438 285.449219 397.421875 286.46875 399.015625 287.570312 C 400.613281 288.671875 402.152344 289.847656 403.632812 291.097656 C 405.117188 292.347656 406.535156 293.664062 407.890625 295.050781 C 409.246094 296.4375 410.53125 297.886719 411.746094 299.398438 C 412.960938 300.910156 414.101562 302.472656 415.164062 304.09375 C 416.230469 305.714844 417.210938 307.382812 418.117188 309.097656 C 419.019531 310.816406 419.835938 312.570312 420.570312 314.363281 C 421.304688 316.160156 421.949219 317.984375 422.507812 319.84375 C 423.0625 321.699219 423.53125 323.578125 423.90625 325.480469 C 424.28125 327.382812 424.566406 329.300781 424.757812 331.230469 C 424.949219 333.160156 425.046875 335.09375 425.050781 337.03125 Z M 425.050781 437.441406 " fill-opacity="1" fill-rule="nonzero"/></g></svg>