<svg xmlns="http://www.w3.org/2000/svg" xmlns:xlink="http://www.w3.org/1999/xlink" width="743" zoomAndPan="magnify" viewBox="0 0 557.25 474.749981" height="633" preserveAspectRatio="xMidYMid meet" version="1.0"><defs><clipPath id="72391ac421"><path d="M 59.171875 18.171875 L 501.078125 18.171875 L 501.078125 460.078125 L 59.171875 460.078125 Z M 59.171875 18.171875 " clip-rule="nonzero"/></clipPath></defs><g clip-path="url(#72391ac421)"><path fill="#000000" d="M 280.125 75.171875 C 295.839844 75.171875 308.621094 62.390625 308.621094 46.675781 C 308.621094 30.960938 295.839844 18.171875 280.125 18.171875 C 264.410156 18.171875 251.628906 30.953125 251.628906 46.667969 C 251.628906 62.382812 264.410156 75.171875 280.125 75.171875 Z M 280.125 29.175781 C 289.769531 29.175781 297.617188 37.023438 297.617188 46.667969 C 297.617188 56.3125 289.769531 64.167969 280.125 64.167969 C 270.480469 64.167969 262.632812 56.320312 262.632812 46.675781 C 262.632812 37.03125 270.480469 29.175781 280.125 29.175781 Z M 243.167969 151.550781 L 317.082031 151.550781 C 325.699219 151.550781 332.714844 144.535156 332.714844 135.917969 L 332.714844 133.488281 C 332.714844 104.492188 309.125 80.902344 280.125 80.902344 C 251.125 80.902344 227.535156 104.492188 227.535156 133.488281 L 227.535156 135.917969 C 227.535156 144.546875 234.550781 151.550781 243.167969 151.550781 Z M 238.539062 133.5 C 238.539062 110.570312 257.195312 91.910156 280.125 91.910156 C 303.054688 91.910156 321.710938 110.570312 321.710938 133.5 L 321.710938 135.929688 C 321.710938 138.476562 319.640625 140.558594 317.082031 140.558594 L 243.167969 140.558594 C 240.621094 140.558594 238.539062 138.484375 238.539062 135.929688 Z M 105.433594 246.917969 C 116.804688 189.902344 155.492188 141.933594 208.917969 118.609375 C 211.695312 117.398438 214.941406 118.664062 216.160156 121.453125 C 217.378906 124.238281 216.105469 127.476562 213.316406 128.695312 C 163.183594 150.578125 126.890625 195.585938 116.21875 249.074219 C 115.695312 251.683594 113.402344 253.5 110.824219 253.5 C 110.46875 253.5 110.109375 253.464844 109.746094 253.390625 C 106.773438 252.792969 104.839844 249.898438 105.433594 246.917969 Z M 397.898438 408.285156 C 399.898438 410.570312 399.667969 414.042969 397.386719 416.050781 C 364.929688 444.4375 323.289062 460.078125 280.125 460.078125 C 236.714844 460.078125 194.890625 444.28125 162.359375 415.59375 C 160.078125 413.585938 159.867188 410.109375 161.875 407.828125 C 163.882812 405.554688 167.367188 405.335938 169.640625 407.34375 C 200.152344 434.261719 239.390625 449.074219 280.125 449.074219 C 320.621094 449.074219 359.695312 434.40625 390.132812 407.765625 C 392.417969 405.765625 395.902344 405.996094 397.898438 408.285156 Z M 344.089844 121.453125 C 345.3125 118.664062 348.554688 117.398438 351.335938 118.609375 C 404.765625 141.941406 443.445312 189.902344 454.816406 246.917969 C 455.410156 249.898438 453.476562 252.792969 450.496094 253.390625 C 450.128906 253.464844 449.773438 253.5 449.414062 253.5 C 446.847656 253.5 444.546875 251.695312 444.023438 249.074219 C 433.363281 195.585938 397.066406 150.578125 346.925781 128.695312 C 344.148438 127.476562 342.882812 124.238281 344.089844 121.453125 Z M 254.832031 256.160156 L 254.832031 263.660156 C 250.539062 264.996094 247.414062 269.011719 247.414062 273.742188 L 247.414062 305.628906 C 247.414062 311.453125 252.152344 316.191406 257.976562 316.191406 L 302.265625 316.191406 C 308.089844 316.191406 312.828125 311.453125 312.828125 305.628906 L 312.828125 273.742188 C 312.828125 269.011719 309.703125 264.996094 305.410156 263.660156 L 305.410156 256.160156 C 305.410156 242.214844 294.0625 230.863281 280.117188 230.863281 C 266.171875 230.863281 254.832031 242.214844 254.832031 256.160156 Z M 301.835938 305.191406 L 258.425781 305.191406 L 258.425781 274.183594 L 301.835938 274.183594 Z M 294.417969 256.160156 L 294.417969 263.183594 L 265.839844 263.183594 L 265.839844 256.160156 C 265.839844 248.285156 272.25 241.867188 280.132812 241.867188 C 288.019531 241.867188 294.417969 248.285156 294.417969 256.160156 Z M 274.625 293.261719 L 274.625 286.113281 C 274.625 283.078125 277.089844 280.609375 280.125 280.609375 C 283.160156 280.609375 285.625 283.078125 285.625 286.113281 L 285.625 293.261719 C 285.625 296.296875 283.160156 298.765625 280.125 298.765625 C 277.089844 298.765625 274.625 296.308594 274.625 293.261719 Z M 419.984375 293.976562 C 419.984375 309.691406 432.765625 322.472656 448.480469 322.472656 C 464.195312 322.472656 476.976562 309.691406 476.976562 293.976562 C 476.976562 278.265625 464.195312 265.484375 448.480469 265.484375 C 432.765625 265.484375 419.984375 278.253906 419.984375 293.976562 Z M 465.980469 293.976562 C 465.980469 303.621094 458.132812 311.472656 448.488281 311.472656 C 438.84375 311.472656 430.996094 303.621094 430.996094 293.976562 C 430.996094 284.332031 438.84375 276.484375 448.488281 276.484375 C 458.132812 276.484375 465.980469 284.324219 465.980469 293.976562 Z M 448.488281 328.210938 C 419.492188 328.210938 395.902344 351.800781 395.902344 380.800781 L 395.902344 383.222656 C 395.902344 391.839844 402.914062 398.851562 411.53125 398.851562 L 485.445312 398.851562 C 494.0625 398.851562 501.078125 391.839844 501.078125 383.222656 L 501.078125 380.800781 C 501.078125 351.800781 477.488281 328.210938 448.488281 328.210938 Z M 490.074219 383.230469 C 490.074219 385.777344 488.003906 387.859375 485.445312 387.859375 L 411.53125 387.859375 C 408.984375 387.859375 406.902344 385.789062 406.902344 383.230469 L 406.902344 380.808594 C 406.902344 357.878906 425.558594 339.222656 448.488281 339.222656 C 471.417969 339.222656 490.074219 357.871094 490.074219 380.800781 Z M 111.761719 322.472656 C 127.476562 322.472656 140.265625 309.691406 140.265625 293.976562 C 140.265625 278.265625 127.476562 265.484375 111.761719 265.484375 C 96.046875 265.484375 83.265625 278.265625 83.265625 293.976562 C 83.265625 309.691406 96.046875 322.472656 111.761719 322.472656 Z M 111.761719 276.476562 C 121.40625 276.476562 129.261719 284.324219 129.261719 293.96875 C 129.261719 303.613281 121.414062 311.460938 111.761719 311.460938 C 102.117188 311.460938 94.269531 303.613281 94.269531 293.96875 C 94.269531 284.324219 102.117188 276.476562 111.761719 276.476562 Z M 164.351562 380.800781 C 164.351562 351.800781 140.761719 328.210938 111.761719 328.210938 C 82.761719 328.210938 59.171875 351.800781 59.171875 380.800781 L 59.171875 383.222656 C 59.171875 391.839844 66.1875 398.851562 74.804688 398.851562 L 148.71875 398.851562 C 157.335938 398.851562 164.351562 391.839844 164.351562 383.222656 Z M 153.347656 383.230469 C 153.347656 385.777344 151.277344 387.859375 148.71875 387.859375 L 74.804688 387.859375 C 72.253906 387.859375 70.175781 385.789062 70.175781 383.230469 L 70.175781 380.808594 C 70.175781 357.878906 88.832031 339.222656 111.761719 339.222656 C 134.691406 339.222656 153.347656 357.878906 153.347656 380.808594 Z M 281.839844 197.710938 C 280.730469 197.34375 279.53125 197.34375 278.410156 197.710938 L 213.628906 218.945312 C 211.375 219.6875 209.84375 221.796875 209.84375 224.171875 L 209.84375 296.957031 C 209.84375 297.003906 209.84375 297.050781 209.84375 297.105469 C 210.585938 325.863281 248.808594 350.058594 277.484375 365.765625 C 278.308594 366.214844 279.21875 366.441406 280.125 366.441406 C 281.03125 366.441406 281.941406 366.214844 282.765625 365.765625 C 311.445312 350.070312 349.65625 325.863281 350.410156 297.105469 C 350.410156 297.058594 350.410156 297.011719 350.410156 296.957031 L 350.410156 224.179688 C 350.410156 221.804688 348.878906 219.699219 346.621094 218.953125 Z M 339.40625 296.894531 C 338.699219 321.273438 297.351562 345.171875 280.125 354.671875 C 262.898438 345.171875 221.550781 321.273438 220.84375 296.894531 L 220.84375 228.167969 L 280.125 208.734375 L 339.40625 228.167969 Z M 339.40625 296.894531 " fill-opacity="1" fill-rule="nonzero"/></g></svg>