<svg xmlns="http://www.w3.org/2000/svg" xmlns:xlink="http://www.w3.org/1999/xlink" width="743" zoomAndPan="magnify" viewBox="0 0 557.25 474.749981" height="633" preserveAspectRatio="xMidYMid meet" version="1.0"><defs><clipPath id="fdd2feb61e"><path d="M 165 10.707031 L 395 10.707031 L 395 240 L 165 240 Z M 165 10.707031 " clip-rule="nonzero"/></clipPath><clipPath id="1e0150e6f3"><path d="M 95.316406 258 L 463.820312 258 L 463.820312 467.59375 L 95.316406 467.59375 Z M 95.316406 258 " clip-rule="nonzero"/></clipPath></defs><g clip-path="url(#fdd2feb61e)"><path fill="#000000" d="M 279.535156 239.859375 C 281.410156 239.859375 283.28125 239.816406 285.15625 239.722656 C 287.027344 239.628906 288.894531 239.492188 290.757812 239.308594 C 292.625 239.125 294.480469 238.894531 296.335938 238.621094 C 298.1875 238.34375 300.035156 238.023438 301.871094 237.65625 C 303.710938 237.292969 305.539062 236.882812 307.355469 236.425781 C 309.171875 235.96875 310.976562 235.46875 312.769531 234.925781 C 314.5625 234.378906 316.34375 233.792969 318.105469 233.160156 C 319.871094 232.527344 321.617188 231.851562 323.347656 231.136719 C 325.082031 230.417969 326.792969 229.65625 328.488281 228.855469 C 330.179688 228.054688 331.855469 227.210938 333.507812 226.324219 C 335.160156 225.441406 336.789062 224.515625 338.394531 223.554688 C 340.003906 222.589844 341.585938 221.585938 343.144531 220.542969 C 344.699219 219.5 346.230469 218.421875 347.738281 217.304688 C 349.242188 216.1875 350.71875 215.03125 352.167969 213.84375 C 353.617188 212.652344 355.035156 211.425781 356.421875 210.167969 C 357.8125 208.90625 359.167969 207.613281 360.492188 206.289062 C 361.816406 204.960938 363.109375 203.605469 364.367188 202.214844 C 365.625 200.824219 366.847656 199.402344 368.039062 197.953125 C 369.226562 196.503906 370.378906 195.023438 371.496094 193.519531 C 372.609375 192.011719 373.6875 190.480469 374.730469 188.917969 C 375.769531 187.359375 376.773438 185.773438 377.738281 184.164062 C 378.699219 182.558594 379.625 180.925781 380.507812 179.269531 C 381.390625 177.617188 382.230469 175.941406 383.03125 174.246094 C 383.832031 172.550781 384.59375 170.835938 385.308594 169.101562 C 386.027344 167.371094 386.699219 165.621094 387.332031 163.851562 C 387.964844 162.085938 388.550781 160.304688 389.09375 158.511719 C 389.640625 156.714844 390.136719 154.910156 390.59375 153.089844 C 391.050781 151.269531 391.460938 149.441406 391.824219 147.601562 C 392.191406 145.761719 392.511719 143.914062 392.785156 142.058594 C 393.0625 140.203125 393.289062 138.339844 393.472656 136.472656 C 393.65625 134.605469 393.796875 132.734375 393.886719 130.863281 C 393.980469 128.988281 394.023438 127.113281 394.023438 125.238281 C 394.023438 123.363281 393.980469 121.488281 393.886719 119.613281 C 393.796875 117.742188 393.65625 115.871094 393.472656 114.003906 C 393.289062 112.136719 393.0625 110.277344 392.785156 108.421875 C 392.511719 106.566406 392.191406 104.71875 391.824219 102.878906 C 391.460938 101.039062 391.050781 99.207031 390.59375 97.386719 C 390.140625 95.566406 389.640625 93.761719 389.09375 91.964844 C 388.550781 90.171875 387.964844 88.390625 387.332031 86.625 C 386.703125 84.859375 386.027344 83.109375 385.308594 81.375 C 384.59375 79.640625 383.835938 77.925781 383.035156 76.230469 C 382.230469 74.535156 381.390625 72.859375 380.507812 71.207031 C 379.625 69.550781 378.699219 67.921875 377.738281 66.3125 C 376.773438 64.703125 375.773438 63.117188 374.730469 61.558594 C 373.691406 60 372.613281 58.464844 371.496094 56.957031 C 370.378906 55.453125 369.226562 53.972656 368.039062 52.523438 C 366.847656 51.074219 365.625 49.652344 364.367188 48.261719 C 363.109375 46.875 361.816406 45.515625 360.492188 44.1875 C 359.167969 42.863281 357.8125 41.570312 356.421875 40.308594 C 355.035156 39.050781 353.617188 37.824219 352.167969 36.636719 C 350.71875 35.445312 349.242188 34.292969 347.738281 33.171875 C 346.234375 32.054688 344.703125 30.976562 343.144531 29.933594 C 341.585938 28.890625 340.003906 27.890625 338.398438 26.925781 C 336.789062 25.960938 335.160156 25.035156 333.507812 24.152344 C 331.855469 23.265625 330.183594 22.425781 328.488281 21.621094 C 326.792969 20.820312 325.082031 20.058594 323.351562 19.34375 C 321.621094 18.625 319.871094 17.949219 318.109375 17.316406 C 316.34375 16.683594 314.566406 16.097656 312.773438 15.550781 C 310.980469 15.007812 309.175781 14.507812 307.355469 14.050781 C 305.539062 13.597656 303.710938 13.183594 301.875 12.820312 C 300.035156 12.453125 298.191406 12.132812 296.335938 11.855469 C 294.484375 11.582031 292.625 11.351562 290.761719 11.167969 C 288.894531 10.984375 287.027344 10.847656 285.15625 10.753906 C 283.285156 10.664062 281.414062 10.617188 279.539062 10.617188 C 277.664062 10.617188 275.792969 10.664062 273.921875 10.753906 C 272.050781 10.847656 270.179688 10.984375 268.316406 11.167969 C 266.453125 11.351562 264.59375 11.582031 262.738281 11.855469 C 260.886719 12.132812 259.039062 12.453125 257.203125 12.816406 C 255.367188 13.183594 253.539062 13.59375 251.71875 14.050781 C 249.902344 14.507812 248.097656 15.007812 246.304688 15.550781 C 244.511719 16.097656 242.734375 16.683594 240.96875 17.316406 C 239.203125 17.949219 237.457031 18.621094 235.726562 19.339844 C 233.996094 20.058594 232.28125 20.816406 230.589844 21.621094 C 228.894531 22.421875 227.222656 23.265625 225.570312 24.148438 C 223.917969 25.035156 222.289062 25.957031 220.679688 26.921875 C 219.074219 27.886719 217.492188 28.890625 215.933594 29.933594 C 214.375 30.972656 212.84375 32.054688 211.339844 33.171875 C 209.832031 34.289062 208.355469 35.441406 206.90625 36.632812 C 205.460938 37.824219 204.042969 39.046875 202.652344 40.308594 C 201.265625 41.566406 199.90625 42.859375 198.582031 44.1875 C 197.257812 45.511719 195.964844 46.871094 194.707031 48.261719 C 193.449219 49.652344 192.226562 51.070312 191.039062 52.519531 C 189.847656 53.972656 188.695312 55.449219 187.582031 56.957031 C 186.464844 58.460938 185.386719 59.996094 184.34375 61.554688 C 183.304688 63.117188 182.300781 64.699219 181.339844 66.308594 C 180.375 67.917969 179.453125 69.550781 178.570312 71.203125 C 177.683594 72.859375 176.84375 74.53125 176.042969 76.230469 C 175.242188 77.925781 174.480469 79.640625 173.765625 81.371094 C 173.046875 83.105469 172.375 84.855469 171.742188 86.621094 C 171.109375 88.386719 170.523438 90.167969 169.980469 91.960938 C 169.433594 93.757812 168.9375 95.566406 168.480469 97.386719 C 168.023438 99.203125 167.613281 101.035156 167.25 102.875 C 166.882812 104.714844 166.5625 106.5625 166.289062 108.417969 C 166.011719 110.273438 165.785156 112.132812 165.601562 114 C 165.417969 115.867188 165.277344 117.738281 165.1875 119.613281 C 165.09375 121.484375 165.046875 123.359375 165.046875 125.234375 C 165.050781 127.109375 165.097656 128.984375 165.191406 130.859375 C 165.285156 132.730469 165.425781 134.601562 165.609375 136.464844 C 165.796875 138.332031 166.027344 140.191406 166.304688 142.046875 C 166.582031 143.902344 166.902344 145.75 167.269531 147.589844 C 167.636719 149.429688 168.046875 151.257812 168.503906 153.074219 C 168.960938 154.894531 169.460938 156.699219 170.007812 158.496094 C 170.550781 160.289062 171.140625 162.070312 171.773438 163.835938 C 172.40625 165.601562 173.078125 167.347656 173.796875 169.082031 C 174.515625 170.8125 175.273438 172.527344 176.074219 174.222656 C 176.878906 175.917969 177.71875 177.589844 178.605469 179.242188 C 179.488281 180.898438 180.410156 182.527344 181.375 184.136719 C 182.339844 185.746094 183.339844 187.328125 184.382812 188.886719 C 185.421875 190.445312 186.5 191.980469 187.617188 193.484375 C 188.734375 194.992188 189.886719 196.46875 191.074219 197.917969 C 192.261719 199.367188 193.484375 200.789062 194.746094 202.175781 C 196.003906 203.566406 197.292969 204.925781 198.617188 206.25 C 199.941406 207.574219 201.296875 208.867188 202.6875 210.128906 C 204.074219 211.386719 205.492188 212.613281 206.941406 213.800781 C 208.386719 214.992188 209.863281 216.144531 211.367188 217.261719 C 212.871094 218.382812 214.402344 219.460938 215.960938 220.503906 C 217.515625 221.546875 219.097656 222.550781 220.707031 223.515625 C 222.3125 224.480469 223.941406 225.402344 225.59375 226.289062 C 227.242188 227.171875 228.914062 228.015625 230.609375 228.820312 C 232.300781 229.621094 234.011719 230.382812 235.742188 231.101562 C 237.472656 231.820312 239.21875 232.496094 240.984375 233.128906 C 242.746094 233.761719 244.523438 234.351562 246.316406 234.894531 C 248.109375 235.441406 249.914062 235.941406 251.730469 236.398438 C 253.546875 236.855469 255.371094 237.269531 257.210938 237.636719 C 259.046875 238.003906 260.890625 238.328125 262.742188 238.601562 C 264.597656 238.878906 266.453125 239.113281 268.320312 239.296875 C 270.183594 239.484375 272.050781 239.621094 273.921875 239.714844 C 275.792969 239.8125 277.664062 239.859375 279.535156 239.859375 Z M 279.535156 30.441406 C 281.085938 30.441406 282.636719 30.476562 284.183594 30.554688 C 285.730469 30.628906 287.277344 30.746094 288.816406 30.894531 C 290.359375 31.046875 291.898438 31.238281 293.429688 31.464844 C 294.964844 31.691406 296.492188 31.957031 298.011719 32.261719 C 299.53125 32.5625 301.042969 32.902344 302.546875 33.28125 C 304.046875 33.65625 305.542969 34.070312 307.023438 34.519531 C 308.507812 34.972656 309.980469 35.457031 311.4375 35.980469 C 312.898438 36.503906 314.34375 37.0625 315.773438 37.65625 C 317.207031 38.25 318.621094 38.878906 320.023438 39.542969 C 321.425781 40.203125 322.808594 40.902344 324.175781 41.632812 C 325.542969 42.363281 326.890625 43.128906 328.21875 43.925781 C 329.546875 44.722656 330.855469 45.554688 332.144531 46.414062 C 333.433594 47.277344 334.699219 48.171875 335.945312 49.09375 C 337.191406 50.019531 338.410156 50.972656 339.609375 51.957031 C 340.808594 52.941406 341.980469 53.957031 343.128906 54.996094 C 344.277344 56.039062 345.398438 57.109375 346.496094 58.207031 C 347.589844 59.300781 348.660156 60.425781 349.699219 61.574219 C 350.742188 62.726562 351.753906 63.898438 352.734375 65.097656 C 353.71875 66.296875 354.671875 67.519531 355.59375 68.765625 C 356.519531 70.011719 357.410156 71.28125 358.269531 72.570312 C 359.132812 73.863281 359.960938 75.171875 360.757812 76.503906 C 361.554688 77.832031 362.316406 79.183594 363.046875 80.550781 C 363.78125 81.917969 364.476562 83.304688 365.136719 84.707031 C 365.800781 86.109375 366.429688 87.527344 367.023438 88.960938 C 367.613281 90.394531 368.171875 91.84375 368.695312 93.304688 C 369.21875 94.765625 369.703125 96.238281 370.152344 97.722656 C 370.601562 99.207031 371.015625 100.699219 371.390625 102.207031 C 371.769531 103.710938 372.109375 105.222656 372.410156 106.746094 C 372.714844 108.269531 372.976562 109.796875 373.207031 111.332031 C 373.433594 112.867188 373.621094 114.40625 373.773438 115.949219 C 373.925781 117.492188 374.039062 119.039062 374.117188 120.589844 C 374.191406 122.140625 374.230469 123.691406 374.230469 125.242188 C 374.230469 126.792969 374.191406 128.34375 374.117188 129.894531 C 374.039062 131.441406 373.925781 132.988281 373.773438 134.535156 C 373.621094 136.078125 373.433594 137.617188 373.207031 139.152344 C 372.976562 140.6875 372.714844 142.214844 372.410156 143.738281 C 372.109375 145.257812 371.769531 146.773438 371.390625 148.277344 C 371.015625 149.78125 370.601562 151.277344 370.152344 152.761719 C 369.703125 154.246094 369.21875 155.71875 368.695312 157.179688 C 368.171875 158.640625 367.613281 160.085938 367.023438 161.519531 C 366.429688 162.953125 365.800781 164.371094 365.136719 165.773438 C 364.476562 167.175781 363.777344 168.5625 363.046875 169.929688 C 362.316406 171.300781 361.554688 172.648438 360.757812 173.980469 C 359.960938 175.3125 359.132812 176.621094 358.269531 177.910156 C 357.410156 179.203125 356.519531 180.46875 355.59375 181.714844 C 354.671875 182.960938 353.71875 184.183594 352.734375 185.382812 C 351.753906 186.582031 350.742188 187.757812 349.699219 188.90625 C 348.660156 190.058594 347.589844 191.179688 346.496094 192.277344 C 345.398438 193.375 344.277344 194.445312 343.128906 195.484375 C 341.980469 196.527344 340.808594 197.539062 339.609375 198.523438 C 338.410156 199.507812 337.191406 200.464844 335.945312 201.386719 C 334.699219 202.3125 333.433594 203.203125 332.144531 204.066406 C 330.855469 204.929688 329.546875 205.757812 328.21875 206.554688 C 326.890625 207.355469 325.542969 208.117188 324.175781 208.851562 C 322.808594 209.582031 321.425781 210.277344 320.023438 210.941406 C 318.621094 211.605469 317.207031 212.234375 315.773438 212.828125 C 314.34375 213.421875 312.898438 213.980469 311.4375 214.5 C 309.980469 215.023438 308.507812 215.511719 307.023438 215.960938 C 305.542969 216.410156 304.046875 216.824219 302.546875 217.203125 C 301.042969 217.578125 299.53125 217.917969 298.011719 218.222656 C 296.492188 218.523438 294.964844 218.789062 293.429688 219.015625 C 291.898438 219.246094 290.359375 219.433594 288.816406 219.585938 C 287.277344 219.738281 285.730469 219.851562 284.183594 219.929688 C 282.636719 220.003906 281.085938 220.042969 279.535156 220.042969 C 277.988281 220.042969 276.4375 220.003906 274.890625 219.929688 C 273.34375 219.851562 271.796875 219.738281 270.253906 219.585938 C 268.714844 219.433594 267.175781 219.242188 265.640625 219.015625 C 264.109375 218.789062 262.582031 218.523438 261.0625 218.21875 C 259.542969 217.917969 258.03125 217.578125 256.527344 217.199219 C 255.023438 216.824219 253.53125 216.410156 252.050781 215.960938 C 250.566406 215.507812 249.09375 215.023438 247.636719 214.5 C 246.175781 213.976562 244.730469 213.417969 243.300781 212.824219 C 241.867188 212.230469 240.453125 211.601562 239.050781 210.9375 C 237.648438 210.277344 236.265625 209.578125 234.898438 208.847656 C 233.53125 208.117188 232.183594 207.351562 230.855469 206.554688 C 229.527344 205.753906 228.21875 204.925781 226.929688 204.0625 C 225.640625 203.203125 224.375 202.308594 223.128906 201.382812 C 221.882812 200.460938 220.664062 199.503906 219.464844 198.519531 C 218.265625 197.535156 217.09375 196.523438 215.945312 195.480469 C 214.796875 194.441406 213.675781 193.371094 212.582031 192.273438 C 211.484375 191.175781 210.417969 190.050781 209.375 188.902344 C 208.335938 187.753906 207.324219 186.578125 206.339844 185.378906 C 205.355469 184.179688 204.402344 182.957031 203.480469 181.710938 C 202.558594 180.464844 201.664062 179.195312 200.804688 177.90625 C 199.945312 176.617188 199.113281 175.304688 198.320312 173.976562 C 197.523438 172.644531 196.757812 171.292969 196.027344 169.925781 C 195.296875 168.558594 194.601562 167.171875 193.9375 165.769531 C 193.277344 164.367188 192.648438 162.949219 192.054688 161.515625 C 191.460938 160.082031 190.90625 158.636719 190.382812 157.175781 C 189.859375 155.714844 189.375 154.242188 188.925781 152.753906 C 188.476562 151.269531 188.0625 149.777344 187.683594 148.269531 C 187.308594 146.765625 186.96875 145.253906 186.667969 143.730469 C 186.363281 142.210938 186.101562 140.679688 185.875 139.144531 C 185.644531 137.613281 185.457031 136.070312 185.304688 134.527344 C 185.152344 132.984375 185.039062 131.4375 184.964844 129.886719 C 184.886719 128.335938 184.847656 126.789062 184.847656 125.234375 C 184.851562 123.683594 184.890625 122.132812 184.96875 120.585938 C 185.046875 119.035156 185.160156 117.492188 185.316406 115.945312 C 185.46875 114.402344 185.660156 112.863281 185.886719 111.332031 C 186.117188 109.796875 186.382812 108.269531 186.6875 106.75 C 186.988281 105.226562 187.332031 103.714844 187.707031 102.210938 C 188.085938 100.707031 188.5 99.214844 188.949219 97.730469 C 189.402344 96.246094 189.886719 94.773438 190.410156 93.3125 C 190.933594 91.855469 191.492188 90.40625 192.085938 88.976562 C 192.679688 87.542969 193.308594 86.125 193.972656 84.722656 C 194.632812 83.320312 195.332031 81.9375 196.0625 80.570312 C 196.792969 79.203125 197.554688 77.855469 198.351562 76.523438 C 199.148438 75.195312 199.980469 73.882812 200.839844 72.59375 C 201.703125 71.304688 202.59375 70.039062 203.515625 68.792969 C 204.441406 67.546875 205.390625 66.324219 206.375 65.125 C 207.359375 63.925781 208.371094 62.753906 209.410156 61.605469 C 210.449219 60.457031 211.519531 59.332031 212.613281 58.234375 C 213.710938 57.140625 214.832031 56.070312 215.980469 55.027344 C 217.125 53.988281 218.300781 52.972656 219.496094 51.988281 C 220.695312 51.003906 221.914062 50.050781 223.160156 49.128906 C 224.402344 48.203125 225.667969 47.308594 226.957031 46.449219 C 228.246094 45.585938 229.554688 44.757812 230.882812 43.957031 C 232.210938 43.160156 233.558594 42.394531 234.921875 41.664062 C 236.289062 40.933594 237.671875 40.234375 239.070312 39.570312 C 240.472656 38.90625 241.886719 38.277344 243.320312 37.683594 C 244.75 37.089844 246.195312 36.53125 247.652344 36.007812 C 249.109375 35.484375 250.582031 34.996094 252.0625 34.546875 C 253.542969 34.09375 255.035156 33.679688 256.539062 33.300781 C 258.042969 32.921875 259.550781 32.582031 261.070312 32.277344 C 262.589844 31.976562 264.117188 31.707031 265.648438 31.480469 C 267.179688 31.25 268.71875 31.058594 270.257812 30.90625 C 271.800781 30.753906 273.34375 30.636719 274.890625 30.558594 C 276.4375 30.480469 277.988281 30.441406 279.535156 30.441406 Z M 279.535156 30.441406 " fill-opacity="1" fill-rule="nonzero"/></g><g clip-path="url(#1e0150e6f3)"><path fill="#000000" d="M 279.535156 258.128906 C 276.535156 258.128906 273.53125 258.207031 270.53125 258.359375 C 267.535156 258.507812 264.539062 258.734375 261.550781 259.03125 C 258.5625 259.328125 255.582031 259.699219 252.613281 260.144531 C 249.644531 260.585938 246.683594 261.101562 243.742188 261.691406 C 240.796875 262.28125 237.867188 262.941406 234.953125 263.675781 C 232.042969 264.40625 229.148438 265.210938 226.273438 266.085938 C 223.402344 266.960938 220.550781 267.90625 217.726562 268.921875 C 214.898438 269.933594 212.097656 271.019531 209.324219 272.171875 C 206.550781 273.324219 203.804688 274.542969 201.089844 275.828125 C 198.378906 277.117188 195.695312 278.46875 193.046875 279.886719 C 190.398438 281.304688 187.789062 282.789062 185.214844 284.335938 C 182.636719 285.882812 180.101562 287.492188 177.605469 289.160156 C 175.109375 290.832031 172.65625 292.5625 170.242188 294.355469 C 167.832031 296.148438 165.464844 297.996094 163.144531 299.902344 C 160.820312 301.8125 158.546875 303.777344 156.324219 305.792969 C 154.097656 307.8125 151.925781 309.886719 149.800781 312.011719 C 147.675781 314.140625 145.605469 316.316406 143.589844 318.542969 C 141.574219 320.769531 139.613281 323.046875 137.707031 325.371094 C 135.800781 327.695312 133.953125 330.0625 132.164062 332.476562 C 130.375 334.894531 128.644531 337.351562 126.976562 339.847656 C 125.304688 342.347656 123.699219 344.886719 122.15625 347.464844 C 120.609375 350.042969 119.128906 352.660156 117.710938 355.308594 C 116.296875 357.960938 114.945312 360.644531 113.660156 363.363281 C 112.375 366.082031 111.15625 368.828125 110.003906 371.605469 C 108.855469 374.382812 107.769531 377.1875 106.757812 380.015625 C 105.746094 382.847656 104.800781 385.699219 103.925781 388.578125 C 103.054688 391.453125 102.25 394.347656 101.519531 397.265625 C 100.785156 400.179688 100.125 403.113281 99.539062 406.0625 C 98.949219 409.011719 98.433594 411.972656 97.988281 414.945312 C 97.546875 417.917969 97.175781 420.902344 96.878906 423.894531 C 96.582031 426.886719 96.359375 429.882812 96.207031 432.886719 C 96.054688 435.886719 95.980469 438.894531 95.976562 441.898438 C 95.976562 442.742188 96.015625 443.582031 96.097656 444.421875 C 96.179688 445.257812 96.304688 446.089844 96.46875 446.917969 C 96.632812 447.742188 96.835938 448.558594 97.078125 449.367188 C 97.324219 450.171875 97.605469 450.964844 97.929688 451.742188 C 98.25 452.519531 98.609375 453.28125 99.003906 454.023438 C 99.402344 454.765625 99.835938 455.488281 100.300781 456.1875 C 100.769531 456.890625 101.269531 457.566406 101.804688 458.214844 C 102.335938 458.867188 102.902344 459.492188 103.496094 460.085938 C 104.089844 460.679688 104.714844 461.246094 105.363281 461.78125 C 106.015625 462.316406 106.691406 462.816406 107.390625 463.285156 C 108.089844 463.75 108.808594 464.183594 109.550781 464.582031 C 110.292969 464.976562 111.054688 465.335938 111.832031 465.660156 C 112.609375 465.980469 113.398438 466.265625 114.203125 466.507812 C 115.007812 466.753906 115.824219 466.957031 116.648438 467.121094 C 117.476562 467.285156 118.304688 467.40625 119.144531 467.488281 C 119.980469 467.570312 120.820312 467.613281 121.660156 467.613281 L 437.394531 467.613281 C 439.386719 467.605469 441.347656 467.375 443.285156 466.914062 C 445.222656 466.453125 447.082031 465.777344 448.863281 464.886719 C 450.644531 464 452.300781 462.917969 453.832031 461.644531 C 455.363281 460.371094 456.726562 458.9375 457.929688 457.347656 C 459.605469 455.125 460.886719 452.6875 461.769531 450.042969 C 462.652344 447.398438 463.089844 444.683594 463.082031 441.894531 C 463.078125 438.886719 463.003906 435.882812 462.851562 432.878906 C 462.699219 429.878906 462.476562 426.878906 462.179688 423.890625 C 461.882812 420.898438 461.511719 417.914062 461.070312 414.941406 C 460.625 411.96875 460.109375 409.007812 459.519531 406.058594 C 458.933594 403.109375 458.273438 400.179688 457.539062 397.261719 C 456.808594 394.347656 456.003906 391.449219 455.132812 388.574219 C 454.257812 385.699219 453.316406 382.84375 452.300781 380.015625 C 451.289062 377.183594 450.207031 374.378906 449.054688 371.605469 C 447.902344 368.828125 446.6875 366.078125 445.402344 363.363281 C 444.117188 360.644531 442.765625 357.960938 441.347656 355.308594 C 439.929688 352.660156 438.449219 350.042969 436.90625 347.464844 C 435.359375 344.886719 433.753906 342.351562 432.085938 339.851562 C 430.417969 337.351562 428.6875 334.894531 426.898438 332.480469 C 425.109375 330.066406 423.261719 327.695312 421.355469 325.371094 C 419.449219 323.046875 417.488281 320.773438 415.472656 318.546875 C 413.457031 316.316406 411.386719 314.140625 409.261719 312.015625 C 407.140625 309.890625 404.964844 307.816406 402.738281 305.796875 C 400.515625 303.777344 398.242188 301.816406 395.921875 299.90625 C 393.601562 298 391.234375 296.148438 388.820312 294.359375 C 386.410156 292.566406 383.957031 290.835938 381.460938 289.164062 C 378.964844 287.492188 376.429688 285.882812 373.851562 284.335938 C 371.277344 282.792969 368.667969 281.308594 366.019531 279.890625 C 363.371094 278.472656 360.691406 277.121094 357.976562 275.832031 C 355.261719 274.546875 352.519531 273.324219 349.746094 272.171875 C 346.972656 271.023438 344.171875 269.9375 341.34375 268.921875 C 338.515625 267.910156 335.667969 266.964844 332.792969 266.089844 C 329.921875 265.214844 327.027344 264.410156 324.117188 263.675781 C 321.203125 262.945312 318.273438 262.285156 315.332031 261.695312 C 312.386719 261.105469 309.429688 260.589844 306.457031 260.144531 C 303.488281 259.699219 300.507812 259.328125 297.519531 259.03125 C 294.53125 258.734375 291.539062 258.507812 288.539062 258.359375 C 285.539062 258.207031 282.539062 258.132812 279.535156 258.128906 Z M 442.121094 445.449219 C 441.5625 446.1875 440.871094 446.765625 440.039062 447.175781 C 439.210938 447.589844 438.332031 447.792969 437.40625 447.789062 L 121.671875 447.789062 C 120.636719 447.792969 119.664062 447.539062 118.761719 447.027344 C 117.855469 446.511719 117.140625 445.808594 116.613281 444.914062 C 116.054688 443.984375 115.777344 442.980469 115.785156 441.894531 C 115.796875 439.21875 115.875 436.542969 116.015625 433.871094 C 116.15625 431.199219 116.363281 428.53125 116.636719 425.871094 C 116.910156 423.207031 117.246094 420.554688 117.648438 417.910156 C 118.050781 415.265625 118.519531 412.628906 119.050781 410.007812 C 119.582031 407.382812 120.175781 404.777344 120.835938 402.183594 C 121.492188 399.589844 122.214844 397.015625 123 394.457031 C 123.785156 391.898438 124.632812 389.359375 125.539062 386.84375 C 126.449219 384.328125 127.417969 381.835938 128.449219 379.367188 C 129.480469 376.898438 130.570312 374.453125 131.71875 372.039062 C 132.871094 369.625 134.078125 367.238281 135.34375 364.882812 C 136.613281 362.523438 137.9375 360.199219 139.316406 357.910156 C 140.695312 355.617188 142.132812 353.363281 143.625 351.140625 C 145.113281 348.917969 146.660156 346.738281 148.257812 344.589844 C 149.855469 342.445312 151.503906 340.339844 153.203125 338.277344 C 154.902344 336.210938 156.652344 334.191406 158.453125 332.210938 C 160.253906 330.234375 162.097656 328.300781 163.992188 326.410156 C 165.886719 324.523438 167.828125 322.683594 169.808594 320.890625 C 171.792969 319.097656 173.820312 317.351562 175.890625 315.660156 C 177.960938 313.964844 180.070312 312.324219 182.21875 310.734375 C 184.367188 309.140625 186.554688 307.605469 188.78125 306.121094 C 191.003906 304.640625 193.265625 303.210938 195.558594 301.839844 C 197.851562 300.464844 200.179688 299.152344 202.539062 297.894531 C 204.898438 296.632812 207.285156 295.433594 209.703125 294.292969 C 212.121094 293.152344 214.566406 292.070312 217.035156 291.050781 C 219.507812 290.027344 222 289.066406 224.515625 288.167969 C 227.035156 287.269531 229.574219 286.433594 232.132812 285.65625 C 234.691406 284.882812 237.265625 284.171875 239.859375 283.523438 C 242.453125 282.875 245.058594 282.289062 247.679688 281.769531 C 250.300781 281.25 252.9375 280.792969 255.578125 280.402344 C 258.222656 280.007812 260.875 279.683594 263.535156 279.421875 C 266.195312 279.160156 268.859375 278.964844 271.53125 278.832031 C 274.199219 278.699219 276.871094 278.636719 279.542969 278.636719 C 282.21875 278.636719 284.886719 278.699219 287.558594 278.832031 C 290.226562 278.964844 292.890625 279.160156 295.550781 279.421875 C 298.210938 279.683594 300.863281 280.007812 303.507812 280.402344 C 306.152344 280.792969 308.785156 281.25 311.40625 281.769531 C 314.027344 282.289062 316.636719 282.875 319.230469 283.523438 C 321.824219 284.171875 324.398438 284.882812 326.957031 285.65625 C 329.515625 286.433594 332.054688 287.269531 334.570312 288.167969 C 337.085938 289.066406 339.582031 290.027344 342.050781 291.050781 C 344.523438 292.070312 346.964844 293.152344 349.382812 294.292969 C 351.800781 295.433594 354.191406 296.632812 356.550781 297.894531 C 358.90625 299.152344 361.234375 300.464844 363.527344 301.839844 C 365.824219 303.210938 368.082031 304.640625 370.308594 306.121094 C 372.53125 307.605469 374.71875 309.140625 376.871094 310.734375 C 379.019531 312.324219 381.128906 313.964844 383.199219 315.660156 C 385.265625 317.351562 387.292969 319.097656 389.277344 320.890625 C 391.261719 322.683594 393.199219 324.523438 395.09375 326.410156 C 396.988281 328.300781 398.835938 330.234375 400.636719 332.210938 C 402.433594 334.191406 404.183594 336.210938 405.882812 338.277344 C 407.585938 340.339844 409.234375 342.445312 410.832031 344.589844 C 412.429688 346.738281 413.972656 348.917969 415.464844 351.140625 C 416.957031 353.363281 418.390625 355.617188 419.773438 357.910156 C 421.152344 360.199219 422.476562 362.523438 423.742188 364.882812 C 425.007812 367.238281 426.21875 369.625 427.367188 372.039062 C 428.519531 374.453125 429.609375 376.898438 430.640625 379.367188 C 431.667969 381.835938 432.640625 384.328125 433.546875 386.84375 C 434.457031 389.359375 435.304688 391.898438 436.089844 394.457031 C 436.871094 397.015625 437.59375 399.589844 438.253906 402.183594 C 438.910156 404.777344 439.507812 407.382812 440.039062 410.007812 C 440.570312 412.628906 441.035156 415.265625 441.4375 417.910156 C 441.839844 420.554688 442.179688 423.207031 442.449219 425.871094 C 442.722656 428.53125 442.929688 431.199219 443.074219 433.871094 C 443.214844 436.542969 443.292969 439.21875 443.300781 441.894531 C 443.300781 443.207031 442.902344 444.386719 442.113281 445.433594 Z M 442.121094 445.449219 " fill-opacity="1" fill-rule="nonzero"/></g></svg>