<svg xmlns="http://www.w3.org/2000/svg" xmlns:xlink="http://www.w3.org/1999/xlink" width="743" zoomAndPan="magnify" viewBox="0 0 557.25 474.749981" height="633" preserveAspectRatio="xMidYMid meet" version="1.0"><defs><clipPath id="16003dfda9"><path d="M 158 6.410156 L 399 6.410156 L 399 247 L 158 247 Z M 158 6.410156 " clip-rule="nonzero"/></clipPath><clipPath id="c1baa436a0"><path d="M 47.410156 260 L 508.789062 260 L 508.789062 467.789062 L 47.410156 467.789062 Z M 47.410156 260 " clip-rule="nonzero"/></clipPath></defs><g clip-path="url(#16003dfda9)"><path fill="#000000" d="M 278.101562 246.328125 C 344.242188 246.328125 398.058594 192.511719 398.058594 126.371094 C 398.058594 60.226562 344.242188 6.410156 278.101562 6.410156 C 211.957031 6.410156 158.140625 60.226562 158.140625 126.371094 C 158.140625 192.511719 211.957031 246.328125 278.101562 246.328125 Z M 278.101562 24.867188 C 334.066406 24.867188 379.605469 70.402344 379.605469 126.371094 C 379.605469 182.335938 334.066406 227.871094 278.101562 227.871094 C 222.136719 227.871094 176.597656 182.335938 176.597656 126.371094 C 176.597656 70.402344 222.136719 24.867188 278.101562 24.867188 Z M 278.101562 24.867188 " fill-opacity="1" fill-rule="nonzero"/></g><g clip-path="url(#c1baa436a0)"><path fill="#000000" d="M 398.878906 262.003906 C 395.558594 259.957031 391.304688 260.226562 388.242188 262.6875 C 356.703125 288.203125 318.609375 301.695312 278.101562 301.695312 C 237.589844 301.695312 199.507812 288.203125 167.96875 262.6875 C 164.933594 260.226562 160.660156 259.949219 157.332031 262.003906 C 88.5 304.386719 47.410156 377.867188 47.410156 458.5625 C 47.410156 463.664062 51.546875 467.789062 56.640625 467.789062 L 499.5625 467.789062 C 504.664062 467.789062 508.789062 463.664062 508.789062 458.5625 C 508.789062 377.867188 467.699219 304.386719 398.878906 262.003906 Z M 66.058594 449.335938 C 68.96875 380.855469 104.113281 318.914062 161.621094 281.144531 C 195.089844 306.34375 236.1875 320.148438 278.101562 320.148438 C 320.023438 320.148438 361.121094 306.34375 394.582031 281.144531 C 452.085938 318.914062 487.234375 380.855469 490.140625 449.335938 Z M 66.058594 449.335938 " fill-opacity="1" fill-rule="nonzero"/></g></svg>