<svg xmlns="http://www.w3.org/2000/svg" xmlns:xlink="http://www.w3.org/1999/xlink" width="743" zoomAndPan="magnify" viewBox="0 0 557.25 474.749981" height="633" preserveAspectRatio="xMidYMid meet" version="1.0"><defs><clipPath id="79f283fe3c"><path d="M 47.410156 6.410156 L 508.789062 6.410156 L 508.789062 467.789062 L 47.410156 467.789062 Z M 47.410156 6.410156 " clip-rule="nonzero"/></clipPath></defs><g clip-path="url(#79f283fe3c)"><path fill="#000000" d="M 441.214844 73.976562 C 397.644531 30.40625 339.714844 6.410156 278.097656 6.410156 C 216.480469 6.410156 158.546875 30.40625 114.976562 73.976562 C 71.40625 117.546875 47.410156 175.476562 47.410156 237.097656 C 47.410156 298.714844 71.40625 356.644531 114.976562 400.214844 C 158.546875 443.785156 216.480469 467.78125 278.097656 467.78125 C 339.714844 467.78125 397.644531 443.785156 441.214844 400.214844 C 484.789062 356.644531 508.78125 298.714844 508.78125 237.097656 C 508.78125 175.476562 484.789062 117.546875 441.214844 73.976562 Z M 125.445312 84.445312 C 166.21875 43.671875 220.433594 21.214844 278.097656 21.214844 C 335.761719 21.214844 389.972656 43.671875 430.75 84.445312 C 471.523438 125.21875 493.980469 179.433594 493.980469 237.097656 C 493.980469 285.03125 478.445312 330.574219 449.789062 368.003906 C 426.980469 336.113281 390.558594 317.269531 351.003906 317.269531 L 205.1875 317.269531 C 165.636719 317.269531 129.214844 336.113281 106.40625 368.003906 C 77.746094 330.574219 62.214844 285.03125 62.214844 237.097656 C 62.214844 179.433594 84.671875 125.21875 125.445312 84.445312 Z M 278.097656 305.109375 C 337.367188 305.109375 385.585938 256.890625 385.585938 197.621094 C 385.585938 138.351562 337.367188 90.132812 278.097656 90.132812 C 218.828125 90.132812 170.609375 138.351562 170.609375 197.621094 C 170.609375 256.890625 218.828125 305.109375 278.097656 305.109375 Z M 278.097656 305.109375 " fill-opacity="1" fill-rule="nonzero"/></g></svg>