<svg xmlns="http://www.w3.org/2000/svg" xmlns:xlink="http://www.w3.org/1999/xlink" width="743" zoomAndPan="magnify" viewBox="0 0 557.25 474.749981" height="633" preserveAspectRatio="xMidYMid meet" version="1.0"><defs><clipPath id="02fddc102a"><path d="M 47.410156 6.410156 L 508.789062 6.410156 L 508.789062 467.789062 L 47.410156 467.789062 Z M 47.410156 6.410156 " clip-rule="nonzero"/></clipPath></defs><g clip-path="url(#02fddc102a)"><path fill="#000000" d="M 277.902344 6.273438 C 150.53125 6.273438 47.277344 109.527344 47.277344 236.902344 C 47.277344 364.273438 150.53125 467.527344 277.902344 467.527344 C 405.273438 467.527344 508.527344 364.273438 508.527344 236.902344 C 508.527344 109.527344 405.273438 6.273438 277.902344 6.273438 Z M 277.898438 97.214844 C 316.382812 97.214844 347.585938 128.414062 347.585938 166.90625 C 347.585938 205.390625 316.386719 236.59375 277.898438 236.59375 C 239.40625 236.59375 208.207031 205.394531 208.207031 166.90625 C 208.207031 128.414062 239.40625 97.214844 277.898438 97.214844 Z M 278.558594 361.4375 L 176.210938 361.4375 C 176.210938 292.757812 213.578125 268.308594 238.089844 246.363281 C 249.960938 252.746094 263.503906 256.40625 277.898438 256.511719 C 292.285156 256.40625 305.828125 252.746094 317.699219 246.363281 C 342.210938 268.3125 379.582031 292.761719 379.582031 361.4375 Z M 278.558594 361.4375 " fill-opacity="1" fill-rule="nonzero"/></g></svg>