<svg xmlns="http://www.w3.org/2000/svg" xmlns:xlink="http://www.w3.org/1999/xlink" width="743" zoomAndPan="magnify" viewBox="0 0 557.25 474.749981" height="633" preserveAspectRatio="xMidYMid meet" version="1.0"><defs><clipPath id="948130f5ae"><path d="M 179 111.335938 L 378 111.335938 L 378 363 L 179 363 Z M 179 111.335938 " clip-rule="nonzero"/></clipPath></defs><g clip-path="url(#948130f5ae)"><path fill="#020203" d="M 376.667969 295.949219 C 373.316406 288.289062 361.46875 282.066406 353.84375 279.125 C 349.492188 277.445312 338.789062 273.851562 331.703125 273.476562 C 328.324219 272.835938 324.34375 272.324219 319.867188 271.914062 C 316.222656 271.578125 312.25 271.3125 308.035156 271.097656 L 307.964844 264.414062 C 307.933594 260.355469 309.144531 261.039062 311.65625 257.9375 C 320.546875 246.976562 326.160156 233.007812 327.285156 218.960938 C 327.664062 214.234375 327.414062 209.347656 327.390625 204.597656 C 327.382812 203.40625 333.59375 202 334.65625 201.675781 C 348.667969 197.414062 358.84375 186.5 356.828125 171.296875 C 355 157.542969 344.984375 145.386719 333.648438 137.949219 C 327.640625 134.007812 321.101562 131.410156 314.5625 128.535156 L 303.480469 123.304688 L 283.902344 112.792969 C 281.824219 111.792969 279.898438 111.367188 277.605469 111.613281 C 274.878906 112.144531 272.574219 113.398438 270.175781 114.742188 L 253.433594 123.78125 L 232.347656 133.527344 C 216.101562 141.648438 201.03125 156.058594 201.078125 175.367188 C 201.109375 191.191406 212.382812 198.234375 226.160156 202.558594 C 231.175781 204.132812 230.671875 203.355469 230.585938 208.046875 L 230.5625 213.367188 C 230.578125 229.070312 235.046875 242.609375 244.375 255.429688 L 249.082031 261.203125 C 250.285156 262.550781 250.125 262.664062 250.125 264.449219 L 250.082031 271.105469 C 250.074219 271.109375 250.066406 271.109375 250.058594 271.113281 C 245.042969 271.398438 240.417969 271.765625 236.234375 272.226562 C 232.765625 272.613281 229.601562 273.058594 226.75 273.566406 C 213.367188 274.171875 189.898438 282.890625 182.371094 294.1875 C 175.128906 305.054688 185.773438 317.71875 194.679688 323.578125 C 199.953125 327.042969 205.925781 329.679688 211.601562 332.425781 L 266.503906 357.300781 C 268.871094 358.402344 276.96875 362.976562 279.40625 362.453125 L 280.816406 362.046875 L 349.484375 330.855469 C 354.816406 328.234375 360.21875 325.773438 365.039062 322.253906 C 372.8125 316.578125 381.097656 306.074219 376.667969 295.949219 Z M 357.976562 290.285156 L 356.882812 291.3125 L 355.1875 292.59375 C 354.261719 292.496094 353.09375 291.761719 352.253906 291.359375 L 347.890625 289.386719 C 343.414062 287.570312 338.800781 286.375 334.238281 284.835938 C 333.027344 284.425781 330.488281 283.835938 331.1875 282.082031 C 332.25 281.832031 334.085938 282.351562 335.171875 282.546875 C 343.328125 284.03125 350.601562 286.582031 357.976562 290.285156 Z M 307.460938 281.300781 C 306.6875 285.480469 305.175781 289.785156 303.761719 293.800781 C 301.132812 301.253906 299.074219 306.535156 291.460938 299.921875 L 285.121094 294.089844 L 304.253906 278.945312 C 304.359375 278.960938 304.464844 278.988281 304.578125 278.992188 C 304.605469 278.996094 304.636719 278.996094 304.667969 279 C 305.734375 279.417969 307.226562 280.230469 307.460938 281.300781 Z M 253.007812 279.019531 C 253.363281 279 253.71875 278.980469 254.082031 278.964844 C 254.613281 279.359375 255.101562 279.867188 255.582031 280.300781 L 272.765625 294.382812 L 266.59375 299.957031 C 259.328125 305.980469 257.769531 303.222656 254.640625 295.167969 C 252.832031 290.515625 251.421875 285.734375 250.453125 280.835938 C 251.074219 279.953125 252.042969 279.457031 253.007812 279.019531 Z M 259.109375 272.273438 C 258.082031 271.226562 258.171875 270.382812 258.199219 268.988281 L 264.621094 272.304688 C 275.71875 276.738281 289.773438 275.53125 299.859375 268.949219 L 299.929688 271.039062 C 298.714844 273.191406 295.875 274.976562 293.945312 276.53125 L 278.804688 288.648438 Z M 223.132812 189.75 C 226.679688 194.199219 224.9375 194.117188 220.710938 192.015625 C 216.101562 189.722656 211.890625 185.933594 210.257812 180.925781 C 205.632812 166.761719 217.789062 152.242188 229.023438 144.859375 C 234.136719 141.496094 239.886719 139.113281 245.472656 136.667969 L 259.476562 130.160156 L 269.863281 124.5 C 272.730469 122.871094 275.613281 121 278.769531 119.988281 C 280.351562 120.222656 281.90625 121.097656 283.3125 121.835938 L 296.261719 128.976562 L 310.808594 135.878906 C 316.457031 138.34375 322.363281 140.660156 327.59375 143.945312 C 336.820312 149.742188 345.597656 158.917969 348.050781 169.824219 C 350.644531 181.347656 344.066406 190.835938 332.621094 193.367188 C 334.148438 189.15625 337.28125 187.222656 338.625 183.738281 C 343.363281 171.441406 316.058594 161.539062 307.996094 159.507812 L 299.847656 157.777344 C 298.695312 157.558594 297.285156 157.488281 296.210938 157.085938 L 296.214844 155.941406 C 296.21875 153.785156 296.320312 151.511719 296.140625 149.367188 C 295.523438 142.132812 291.636719 134.660156 283.625 134.632812 L 278.726562 134.632812 L 272.664062 134.546875 C 265.886719 134.75 262.492188 143.90625 261.894531 149.453125 C 261.621094 151.96875 261.761719 154.582031 261.84375 157.105469 C 256.679688 157.929688 251.546875 158.71875 246.558594 160.355469 C 238.390625 163.035156 223.488281 169.402344 219.542969 177.34375 C 217.125 182.21875 220.191406 186.054688 223.132812 189.75 Z M 287.953125 156.703125 C 287.519531 158.488281 283.429688 162.75 282.089844 164.242188 C 281.085938 165.332031 280.0625 166.277344 278.832031 167.105469 C 276.175781 164.816406 270.226562 159.144531 269.914062 155.324219 C 269.601562 151.480469 270.324219 146.152344 272.863281 143.121094 L 281.117188 143.109375 C 282.128906 143.109375 283.875 142.882812 284.800781 143.222656 C 287.636719 146.066406 288.921875 152.714844 287.953125 156.703125 Z M 226.882812 180.769531 L 227 180.542969 C 227.90625 179.097656 230.035156 177.765625 231.390625 176.8125 C 240.976562 170.070312 253.027344 166.449219 264.582031 165.175781 L 265.167969 165.117188 C 265.585938 165.300781 265.878906 165.746094 266.179688 166.085938 L 268.214844 168.316406 C 270.3125 170.554688 275.453125 176.105469 278.648438 176.101562 C 282.976562 176.09375 289.277344 167.878906 292.566406 165.238281 L 295.0625 165.449219 C 305.585938 166.820312 324.054688 171.941406 331.003906 180.996094 C 329.007812 183.835938 326.726562 186.160156 325.308594 189.386719 C 318.082031 186.671875 310.582031 185.066406 302.953125 183.988281 C 300.109375 183.542969 297.214844 183.453125 294.351562 183.28125 L 267.65625 182.949219 C 266.636719 182.988281 265.652344 183.160156 264.644531 183.226562 L 256.132812 183.796875 C 249.261719 184.519531 239.230469 186.46875 232.8125 189.386719 C 231.355469 186.164062 228.59375 183.851562 226.882812 180.769531 Z M 235.246094 197.480469 L 235.355469 197.367188 C 236.617188 196.449219 238.859375 195.957031 240.324219 195.519531 C 250.757812 192.417969 261.675781 191.140625 272.539062 191.09375 L 294.382812 191.441406 C 303.8125 192.117188 314.195312 193.421875 322.765625 197.699219 C 313.402344 207.5 297.949219 209.070312 285.222656 210 C 283.191406 210.132812 281.09375 210.0625 279.054688 210.066406 L 272.429688 210.015625 C 260.835938 209.429688 242.332031 207.109375 235.246094 197.480469 Z M 249.714844 248.558594 C 244.859375 241.308594 241.589844 233.480469 239.84375 224.929688 L 239.136719 220.304688 C 238.570312 217.230469 238.847656 213.949219 238.703125 210.828125 C 242.820312 214.210938 258.625 216.898438 264.054688 217.511719 L 271 218.179688 L 293.328125 217.609375 C 302.175781 216.785156 310.933594 215.050781 318.960938 210.742188 C 319.117188 211.027344 319.023438 212.007812 319.03125 212.398438 C 319.261719 227.351562 314.355469 241.941406 304.589844 253.40625 C 287.269531 273.734375 263.789062 269.550781 249.714844 248.558594 Z M 207.183594 286.992188 C 213.195312 284.507812 219.484375 283.003906 225.910156 282.085938 C 226.777344 282.019531 226.558594 283.15625 226.578125 283.8125 C 225.042969 284.605469 223.171875 284.964844 221.511719 285.457031 L 208.460938 290.238281 C 205.5625 291.5 203.914062 293.300781 201.339844 291.554688 L 199.773438 290.359375 Z M 259.160156 345.070312 L 214.628906 324.570312 C 205.410156 320.121094 192.175781 314.9375 188.816406 304.140625 C 187.367188 299.476562 189.242188 297.753906 193.007812 295.167969 C 200.660156 301.046875 199.839844 303.113281 208.410156 299.460938 L 223.347656 293.769531 C 231.355469 291.339844 234.722656 291.289062 234.335938 281.980469 C 234.316406 281.488281 234.285156 281.023438 234.253906 280.570312 C 235.183594 280.453125 236.132812 280.335938 237.117188 280.226562 C 238.8125 280.042969 240.601562 279.871094 242.460938 279.710938 C 242.191406 282.621094 242.992188 285.992188 244.039062 289.75 C 245.996094 296.789062 249.4375 307.886719 256.53125 310.902344 C 259.132812 312.003906 262.4375 312.25 265.074219 311.140625 L 266.742188 310.316406 Z M 279.511719 353.4375 C 277.695312 354.046875 274.707031 351.773438 273.003906 350.996094 L 268.363281 349.035156 C 267.015625 348.476562 266.9375 348.726562 267.242188 347.21875 L 273.804688 316.703125 C 274.878906 311.953125 275.8125 309.285156 273.917969 304.714844 C 273.988281 304.4375 274.273438 304.273438 274.488281 304.085938 L 278.894531 300.113281 L 283.15625 303.53125 C 284.925781 304.992188 284.027344 304.46875 283.253906 306.71875 C 282.15625 309.894531 283.351562 313.390625 284.09375 316.523438 L 291.234375 348.132812 Z M 366.0625 309.804688 C 361.667969 315.667969 355.242188 318.699219 348.855469 321.882812 L 335.636719 328.230469 L 298.890625 344.699219 C 298.695312 344.339844 298.652344 343.875 298.566406 343.476562 L 291.039062 309.878906 C 305.539062 316.890625 310.675781 300.558594 313.871094 289.488281 C 314.800781 286.257812 315.679688 282.746094 315.390625 279.617188 C 316.675781 279.714844 317.925781 279.820312 319.128906 279.929688 C 320.597656 280.0625 322 280.210938 323.332031 280.367188 C 323.320312 280.707031 323.3125 281.050781 323.308594 281.398438 C 323.246094 290.058594 324.996094 290.707031 333.257812 293.304688 C 336.902344 294.445312 340.527344 295.605469 344.050781 297.078125 L 350.621094 300.078125 C 356.898438 302.945312 356.8125 301.441406 362.589844 296.78125 C 363.316406 296.195312 364.148438 295.355469 364.992188 294.976562 C 371.179688 299.421875 370.328125 304.113281 366.0625 309.804688 Z M 366.0625 309.804688 " fill-opacity="1" fill-rule="nonzero"/></g></svg>