<svg xmlns="http://www.w3.org/2000/svg" xmlns:xlink="http://www.w3.org/1999/xlink" width="743" zoomAndPan="magnify" viewBox="0 0 557.25 474.749981" height="633" preserveAspectRatio="xMidYMid meet" version="1.0"><defs><clipPath id="d180872334"><path d="M 169.929688 85 L 386.390625 85 L 386.390625 389 L 169.929688 389 Z M 169.929688 85 " clip-rule="nonzero"/></clipPath></defs><path fill="#000000" d="M 240.332031 335.925781 L 225.722656 335.925781 L 225.722656 327.425781 C 225.722656 324.734375 223.539062 322.550781 220.84375 322.550781 C 218.152344 322.550781 215.96875 324.734375 215.96875 327.425781 L 215.96875 335.925781 L 201.34375 335.925781 C 198.648438 335.925781 196.46875 338.105469 196.46875 340.796875 L 196.46875 361.550781 C 196.46875 364.242188 198.648438 366.421875 201.34375 366.421875 L 240.332031 366.421875 C 243.023438 366.421875 245.207031 364.242188 245.207031 361.550781 L 245.207031 340.796875 C 245.207031 338.105469 243.023438 335.925781 240.332031 335.925781 Z M 235.457031 356.675781 L 206.21875 356.675781 L 206.21875 345.671875 L 235.457031 345.671875 Z M 235.457031 356.675781 " fill-opacity="1" fill-rule="nonzero"/><path fill="#000000" d="M 278.152344 143.945312 C 286.214844 143.945312 292.777344 135.996094 292.777344 126.222656 C 292.777344 116.460938 286.214844 108.515625 278.152344 108.515625 C 270.09375 108.515625 263.542969 116.460938 263.542969 126.222656 C 263.542969 135.996094 270.09375 143.945312 278.152344 143.945312 Z M 278.152344 118.265625 C 280.453125 118.265625 283.027344 121.667969 283.027344 126.222656 C 283.027344 130.785156 280.453125 134.195312 278.152344 134.195312 C 275.859375 134.195312 273.292969 130.785156 273.292969 126.222656 C 273.292969 121.667969 275.859375 118.265625 278.152344 118.265625 Z M 278.152344 118.265625 " fill-opacity="1" fill-rule="nonzero"/><g clip-path="url(#d180872334)"><path fill="#000000" d="M 315.53125 270.011719 L 311.773438 270.011719 L 311.773438 254.035156 C 325.609375 244.617188 335.457031 228.777344 335.457031 206.761719 L 335.457031 189.449219 C 340.292969 184.167969 343.058594 178.148438 343.058594 171.757812 L 343.058594 156.757812 L 361.507812 127.902344 C 362.277344 126.699219 362.480469 125.21875 362.0625 123.851562 C 361.644531 122.488281 360.652344 121.371094 359.339844 120.804688 L 280.09375 86.394531 C 278.855469 85.855469 277.445312 85.859375 276.207031 86.398438 L 196.980469 120.804688 C 195.667969 121.375 194.675781 122.488281 194.257812 123.855469 C 193.84375 125.222656 194.046875 126.699219 194.816406 127.902344 L 213.277344 156.757812 L 213.277344 171.757812 C 213.277344 178.140625 216.039062 184.148438 220.863281 189.421875 L 220.863281 206.761719 C 220.863281 224.4375 227.09375 239.332031 238.875 249.839844 C 240.65625 251.425781 242.574219 252.84375 244.546875 254.183594 L 244.546875 270.011719 L 240.789062 270.011719 C 203.734375 270.011719 169.988281 300.832031 169.988281 334.671875 L 169.988281 383.347656 C 169.988281 386.039062 172.171875 388.222656 174.863281 388.222656 L 381.457031 388.222656 C 384.148438 388.222656 386.332031 386.039062 386.332031 383.347656 L 386.332031 334.671875 C 386.332031 300.832031 352.585938 270.011719 315.53125 270.011719 Z M 315.53125 279.761719 C 317.15625 279.761719 318.769531 279.875 320.378906 280.003906 L 307.707031 315.746094 L 285.957031 301.054688 L 308.816406 279.761719 Z M 271.5 343.191406 L 284.566406 343.191406 L 294.835938 378.472656 L 261.25 378.472656 Z M 284.550781 333.445312 L 271.515625 333.445312 L 266.367188 315.511719 L 278.152344 307.546875 L 289.738281 315.371094 Z M 333.308594 166.882812 L 223.027344 166.882812 L 223.027344 160.207031 L 333.308594 160.207031 Z M 224.023438 176.632812 L 332.3125 176.632812 C 327.636719 188.375 306.714844 199.757812 278.1875 199.757812 C 249.636719 199.757812 228.703125 188.375 224.023438 176.632812 Z M 278.152344 96.183594 L 350.210938 127.46875 L 335.511719 150.457031 L 220.820312 150.457031 L 206.113281 127.46875 Z M 230.613281 206.757812 L 230.613281 197.351562 C 242.476562 204.804688 259.386719 209.507812 278.1875 209.507812 C 296.964844 209.507812 313.851562 204.8125 325.707031 197.371094 L 325.707031 206.761719 C 325.707031 239.542969 301.0625 254.472656 278.160156 254.472656 C 255.261719 254.472656 230.613281 239.542969 230.613281 206.757812 Z M 278.160156 264.222656 C 286.320312 264.222656 294.488281 262.546875 302.023438 259.34375 L 302.023438 272.765625 L 278.152344 295 L 254.296875 272.765625 L 254.296875 259.453125 C 261.640625 262.539062 269.730469 264.222656 278.160156 264.222656 Z M 247.503906 279.761719 L 270.347656 301.054688 L 248.613281 315.742188 L 235.941406 280.003906 C 237.550781 279.875 239.164062 279.761719 240.789062 279.761719 Z M 179.738281 334.671875 C 179.738281 310.410156 200.496094 288.046875 226.179688 281.644531 L 241.527344 324.9375 C 242.03125 326.359375 243.164062 327.464844 244.597656 327.9375 C 245.097656 328.101562 245.609375 328.183594 246.121094 328.183594 C 247.082031 328.183594 248.035156 327.898438 248.851562 327.347656 L 257.871094 321.253906 L 262.765625 338.308594 L 251.09375 378.472656 L 179.738281 378.472656 Z M 376.582031 378.472656 L 304.988281 378.472656 L 293.300781 338.308594 L 298.238281 321.109375 L 307.472656 327.347656 C 308.285156 327.898438 309.238281 328.183594 310.199219 328.183594 C 310.710938 328.183594 311.226562 328.101562 311.722656 327.9375 C 313.15625 327.46875 314.292969 326.359375 314.792969 324.9375 L 330.140625 281.644531 C 355.824219 288.046875 376.582031 310.414062 376.582031 334.671875 Z M 376.582031 378.472656 " fill-opacity="1" fill-rule="nonzero"/></g></svg>