<svg xmlns="http://www.w3.org/2000/svg" xmlns:xlink="http://www.w3.org/1999/xlink" width="743" zoomAndPan="magnify" viewBox="0 0 557.25 474.749981" height="633" preserveAspectRatio="xMidYMid meet" version="1.0"><path fill="#020203" d="M 424.863281 213.410156 C 421.320312 205.332031 412.394531 201.867188 405 198.238281 L 305.171875 152.738281 C 295.859375 148.546875 287.132812 143.867188 276.539062 144.769531 C 265.445312 146.0625 252.792969 153.273438 242.675781 157.8125 L 157.464844 196.839844 C 152.875 199.070312 147.996094 201.039062 143.570312 203.5625 C 130.613281 210.953125 128.09375 228.296875 140.230469 237.679688 C 144.25 240.804688 149.257812 242.988281 153.75 245.363281 L 169.554688 254.335938 C 170.183594 254.722656 171.574219 255.292969 171.953125 255.835938 L 172.148438 282.105469 C 171.761719 283.460938 170.035156 283.726562 169.113281 284.574219 C 167.074219 286.472656 166.503906 290.277344 166.828125 292.890625 C 167.289062 296.648438 169.492188 299 172.082031 301.484375 C 173.992188 303.328125 176.078125 304.976562 178.316406 306.375 C 180.707031 307.867188 183.195312 309.140625 185.757812 310.261719 C 187.078125 310.84375 188.414062 311.378906 189.761719 311.875 C 190.214844 312.050781 190.664062 312.214844 191.125 312.382812 C 191.625 312.566406 192.132812 312.75 192.648438 312.917969 C 193.515625 313.21875 194.382812 313.515625 195.257812 313.792969 C 196.660156 314.253906 198.070312 314.683594 199.472656 315.117188 C 249.289062 330.351562 315.410156 329.753906 364.027344 313.773438 C 365.328125 313.339844 366.628906 312.90625 367.929688 312.445312 C 368.574219 312.214844 369.21875 311.984375 369.855469 311.746094 C 371.957031 310.960938 374.042969 310.117188 376.082031 309.15625 C 376.484375 308.972656 376.882812 308.789062 377.277344 308.585938 C 377.832031 308.320312 378.367188 308.035156 378.910156 307.75 C 379.816406 307.261719 380.726562 306.746094 381.632812 306.183594 C 381.910156 306.007812 382.195312 305.832031 382.472656 305.648438 C 383.023438 305.296875 383.570312 304.929688 384.113281 304.535156 C 386.195312 303.058594 388.160156 301.394531 389.820312 299.542969 C 390.042969 299.292969 390.246094 299.054688 390.441406 298.796875 C 393.546875 294.816406 393.667969 290.035156 391.433594 285.429688 C 390.6875 283.875 388.863281 283.171875 387.339844 282.53125 C 387.128906 282.4375 387.019531 282.335938 386.878906 282.140625 L 386.898438 258.828125 C 386.90625 257.667969 386.851562 256.417969 387.136719 255.292969 C 392.035156 253.117188 396.617188 250.125 401.320312 247.554688 L 412.101562 241.78125 C 414.710938 240.363281 417.488281 238.960938 419.753906 237.027344 C 426.503906 231.242188 428.414062 221.515625 424.863281 213.410156 Z M 382.867188 293.25 C 374.6875 301.660156 353.523438 306.9375 342.613281 309.433594 L 322.804688 313.292969 C 310.722656 315.058594 298.339844 316.203125 286.128906 316.324219 L 248.789062 314.832031 C 231.960938 313.164062 187.058594 306.21875 175.496094 292.117188 C 185.519531 283.769531 231.507812 279.089844 244.933594 278.316406 L 261.0625 277.601562 L 273.308594 277.554688 L 299.140625 277.601562 L 315.039062 278.316406 L 337.496094 280.492188 C 348.910156 281.875 374.066406 285.375 383.730469 292.289062 Z M 375.101562 258.875 L 366.414062 256.027344 C 345.960938 250.105469 325.0625 246.117188 303.816406 244.578125 L 283.648438 243.730469 L 263.433594 243.832031 L 249.039062 244.992188 C 232.171875 246.671875 215.589844 249.71875 199.242188 254.132812 L 185.242188 258.367188 C 184.0625 258.773438 182.769531 259.078125 181.636719 259.582031 L 181.507812 259.636719 C 181.628906 255.871094 181.378906 252.066406 181.902344 248.320312 C 184.964844 246.550781 188.25 245.1875 191.511719 243.816406 C 210.886719 235.691406 233.894531 231.691406 254.746094 229.824219 L 275.921875 228.867188 C 303.6875 227.992188 337.929688 232.199219 364.089844 242.304688 C 367.796875 243.730469 371.882812 245.308594 375.15625 247.589844 C 377.832031 249.453125 377.648438 249.054688 377.648438 252.25 L 377.636719 259.90625 C 377.011719 259.335938 375.894531 259.167969 375.101562 258.875 Z M 377.621094 272.929688 C 377.609375 274.9375 377.636719 276.945312 377.488281 278.945312 C 366.175781 275.417969 356.519531 273.316406 344.761719 271.769531 L 300.828125 268.078125 L 289.007812 268.011719 L 258.242188 268.066406 C 257.042969 268.105469 255.875 268.335938 254.683594 268.382812 L 242.917969 268.859375 L 210.1875 272.425781 C 200.699219 273.84375 190.824219 275.425781 181.867188 278.984375 C 181.722656 277.925781 181.25 270.554688 181.757812 269.671875 C 184.746094 268.972656 187.667969 267.773438 190.582031 266.804688 L 201.75 263.464844 C 216.46875 259.382812 231.683594 256.609375 246.847656 254.914062 L 270.695312 253.394531 L 294.152344 253.476562 C 295.121094 253.523438 296.082031 253.679688 297.050781 253.753906 L 305.203125 254.316406 C 327.242188 256.140625 354.34375 260.664062 375.046875 269.285156 C 377.960938 270.488281 377.621094 269.671875 377.621094 272.929688 Z M 408.6875 232.441406 L 385.800781 244.984375 L 383.105469 241.75 C 378.238281 236.871094 370.316406 234.105469 363.953125 231.925781 C 337.828125 222.933594 309.738281 219.242188 282.183594 219.167969 C 255.734375 218.707031 225.699219 221.96875 200.292969 230.21875 L 187.085938 235.167969 C 181.773438 237.421875 176.078125 239.753906 173.328125 245.160156 L 157.523438 236.316406 C 153.851562 234.308594 149.722656 232.476562 146.375 229.980469 C 142.351562 226.976562 140.792969 219.941406 143.9375 215.804688 C 147.515625 211.097656 160.804688 206.03125 166.210938 203.480469 L 266.433594 157.878906 C 270.019531 156.46875 273.605469 155.113281 277.441406 154.597656 C 288.25 153.613281 299.730469 160.925781 309.222656 165.21875 L 393.925781 203.867188 C 399.226562 206.4375 413.1875 211.707031 415.890625 217.066406 C 419.503906 224.25 414.589844 229.199219 408.6875 232.441406 Z M 408.6875 232.441406 " fill-opacity="1" fill-rule="nonzero"/><path fill="#020203" d="M 294.4375 183.210938 C 288.136719 179.332031 282.191406 174.386719 274.289062 177.277344 C 269.390625 179.054688 265.542969 183.050781 260.953125 185.4375 C 255.125 188.605469 248.253906 192.824219 246.253906 199.632812 C 245.578125 201.917969 245.441406 204.78125 246.675781 206.890625 C 248.835938 210.574219 251.683594 210.023438 255.363281 210.023438 L 306.777344 210.132812 C 313.011719 209.394531 314.179688 204.210938 312.261719 198.722656 C 309.597656 191.074219 300.847656 187.160156 294.4375 183.210938 Z M 256.007812 200.167969 L 264.34375 194.703125 L 270.414062 190.84375 C 280.953125 183.992188 279.765625 185.28125 290.902344 192.375 L 297.773438 196.796875 C 299.460938 197.917969 301.101562 198.988281 302.558594 200.285156 Z M 256.007812 200.167969 " fill-opacity="1" fill-rule="nonzero"/></svg>