<svg xmlns="http://www.w3.org/2000/svg" xmlns:xlink="http://www.w3.org/1999/xlink" width="743" zoomAndPan="magnify" viewBox="0 0 557.25 474.749981" height="633" preserveAspectRatio="xMidYMid meet" version="1.0"><defs><clipPath id="1561379c6d"><path d="M 183.589844 286 L 373 286 L 373 374.9375 L 183.589844 374.9375 Z M 183.589844 286 " clip-rule="nonzero"/></clipPath><clipPath id="d5592c4e92"><path d="M 186 99.308594 L 370 99.308594 L 370 193 L 186 193 Z M 186 99.308594 " clip-rule="nonzero"/></clipPath></defs><g clip-path="url(#1561379c6d)"><path fill="#100f0d" d="M 321.277344 291.222656 C 316.710938 289.164062 311.75 287.636719 306.609375 286.371094 C 297.886719 289.886719 288.429688 291.863281 278.589844 291.863281 C 268.542969 291.863281 258.945312 289.894531 250.148438 286.359375 C 244.996094 287.628906 240.03125 289.160156 235.460938 291.222656 C 186.441406 313.328125 183.863281 373.203125 183.804688 374.9375 L 257 374.9375 L 271.027344 329.371094 C 266.15625 326.746094 262.808594 321.664062 262.808594 315.753906 C 262.808594 307.171875 269.777344 300.21875 278.375 300.21875 C 286.96875 300.21875 293.933594 307.171875 293.933594 315.753906 C 293.933594 321.664062 290.589844 326.75 285.71875 329.371094 L 299.746094 374.9375 L 372.9375 374.9375 C 372.875 373.203125 370.296875 313.328125 321.277344 291.222656 " fill-opacity="1" fill-rule="nonzero"/></g><path fill="#100f0d" d="M 214.3125 216.300781 C 214.3125 218.507812 214.425781 220.699219 214.640625 222.859375 C 217.980469 255.691406 245.464844 280.453125 278.589844 280.453125 C 310.304688 280.453125 337.617188 256.820312 342.136719 225.472656 C 342.636719 221.964844 342.867188 219.046875 342.867188 216.300781 C 342.867188 215.140625 342.773438 214.007812 342.703125 212.871094 C 331.226562 222.507812 311.691406 231.019531 278.367188 231.019531 C 245.585938 231.019531 226.125 222.78125 214.574219 213.335938 C 214.519531 214.332031 214.3125 215.285156 214.3125 216.300781 " fill-opacity="1" fill-rule="nonzero"/><path fill="#100f0d" d="M 308.226562 145.59375 C 296.226562 144.316406 284.320312 138.941406 278.394531 135.679688 C 272.484375 138.945312 260.570312 144.332031 248.515625 145.597656 C 249.53125 156.265625 254.460938 182.527344 278.394531 189.535156 C 302.070312 182.582031 307.152344 156.226562 308.226562 145.59375 " fill-opacity="1" fill-rule="nonzero"/><g clip-path="url(#d5592c4e92)"><path fill="#100f0d" d="M 192.363281 164.808594 C 199.832031 170.8125 200.589844 180.953125 200.589844 180.953125 L 202.652344 187.75 L 262.6875 192.355469 C 239.207031 176.007812 238.734375 141.535156 238.734375 141.128906 L 238.722656 136.367188 L 243.496094 136.367188 C 255.875 136.367188 270.875 129.367188 275.808594 126.175781 L 278.394531 124.503906 L 280.984375 126.167969 C 285.9375 129.363281 300.957031 136.367188 313.289062 136.367188 L 318.058594 136.367188 L 318.050781 141.128906 C 318.050781 141.535156 317.585938 176.003906 294.113281 192.355469 L 354.09375 187.75 L 356.15625 180.953125 C 356.15625 180.953125 356.914062 170.8125 364.382812 164.808594 C 368.132812 161.792969 369.914062 157.101562 369.914062 152.4375 C 369.914062 144.445312 364.152344 137.476562 355.9375 135.667969 C 344.378906 133.117188 328.746094 128.09375 321.59375 118.796875 C 307.652344 100.667969 286.167969 99.3125 280.046875 99.3125 C 278.988281 99.3125 278.390625 99.355469 278.371094 99.355469 C 278.355469 99.355469 277.753906 99.3125 276.695312 99.3125 C 270.582031 99.3125 249.089844 100.667969 235.152344 118.796875 C 228 128.09375 212.367188 133.117188 200.808594 135.667969 C 192.59375 137.476562 186.832031 144.445312 186.832031 152.4375 C 186.832031 157.101562 188.609375 161.792969 192.363281 164.808594 " fill-opacity="1" fill-rule="nonzero"/></g><path fill="#100f0d" d="M 278.367188 219.613281 C 316.058594 219.613281 333.226562 208.101562 341.042969 198.285156 L 279.117188 203.039062 L 278.359375 203.09375 L 277.628906 203.039062 L 215.695312 198.28125 C 223.507812 208.089844 240.664062 219.613281 278.367188 219.613281 " fill-opacity="1" fill-rule="nonzero"/></svg>