<?xml version="1.0" encoding="UTF-8" standalone="no"?>
<!-- Created with Inkscape (http://www.inkscape.org/) -->

<svg
   width="32"
   height="32"
   viewBox="0 0 8.4666668 8.4666668"
   version="1.1"
   id="svg1"
   xml:space="preserve"
   inkscape:version="1.3.2 (091e20e, 2023-11-25, custom)"
   sodipodi:docname="icon32.svg"
   xmlns:inkscape="http://www.inkscape.org/namespaces/inkscape"
   xmlns:sodipodi="http://sodipodi.sourceforge.net/DTD/sodipodi-0.dtd"
   xmlns="http://www.w3.org/2000/svg"
   xmlns:svg="http://www.w3.org/2000/svg"><sodipodi:namedview
     id="namedview1"
     pagecolor="#505050"
     bordercolor="#ffffff"
     borderopacity="1"
     inkscape:showpageshadow="0"
     inkscape:pageopacity="0"
     inkscape:pagecheckerboard="1"
     inkscape:deskcolor="#505050"
     inkscape:document-units="cm"
     inkscape:zoom="22.150168"
     inkscape:cx="10.857705"
     inkscape:cy="17.629663"
     inkscape:window-width="1920"
     inkscape:window-height="991"
     inkscape:window-x="-9"
     inkscape:window-y="-9"
     inkscape:window-maximized="1"
     inkscape:current-layer="layer1"
     inkscape:clip-to-page="false" /><defs
     id="defs1" /><g
     inkscape:label="Capa 1"
     inkscape:groupmode="layer"
     id="layer1"><g
       transform="matrix(0.00444455,0,0,-0.00455187,-0.55218131,9.2007471)"
       fill="#000000"
       stroke="none"
       id="g3"
       style="fill:#00ff00"><path
         d="m 889.46071,1999.2812 c -131.60943,-22.3708 -314.60064,-94.6459 -390.32112,-154.8752 -25.24018,-18.9291 -23.4373,-18.9291 36.95881,5.1627 146.93383,57.6479 357.86947,72.275 512.9162,36.1374 302.8819,-71.4147 533.6492,-283.9377 622.8913,-573.8983 32.4516,-105.8313 40.5645,-269.3106 18.93,-374.28149 C 1661.0886,797.27829 1585.3682,651.00736 1489.816,550.33853 1397.8698,452.25097 1242.8231,355.88423 1113.0166,314.5842 941.74391,261.23834 753.34412,263.81958 574.86007,321.46754 c -48.67747,15.48751 -88.34056,27.53335 -88.34056,26.67294 0,-1.72084 25.24016,-18.06876 55.88893,-36.99795 223.55576,-138.52718 541.76216,-178.10638 804.98096,-98.94798 256.0074,76.57714 462.436,246.93975 581.4252,479.25241 159.5538,310.61064 118.9894,681.45044 -104.5664,962.80694 -213.6399,270.171 -582.3267,406.117 -934.78749,345.0273 z"
         id="path1"
         style="fill:#2a55c8;fill-opacity:1;stroke-width:0.880688" /><path
         d="M 840.63311,1769.6993 C 641.36752,1737.4105 470.95487,1596.0378 413.249,1413.6497 c -25.24632,-77.6677 -22.54136,-91.6304 7.21323,-35.7795 13.52482,26.1801 53.1976,75.9223 88.36212,110.8291 101.88693,98.6118 210.98709,142.2453 357.05508,142.2453 135.24807,0 245.24997,-45.3788 346.23517,-143.1179 157.7895,-152.7174 190.2491,-369.1397 84.7555,-562.87258 l -36.0661,-66.32296 48.6893,50.61489 c 55.9025,58.46893 107.2968,146.60865 127.1332,220.78565 18.0331,66.323 17.1315,191.9876 -0.9016,260.0559 -52.296,195.4782 -220.0037,342.9595 -430.9907,379.6117 -61.31247,10.472 -98.28033,10.472 -164.10109,0 z"
         id="path2"
         style="fill:#000000;fill-opacity:1;stroke-width:0.887044" /><path
         d="m 766.18442,1502.8157 c -102,-33 -181,-103 -223,-200 -81,-182.0001 -7,-389.00013 172,-483.00013 48,-25 62,-28 158,-28 123.99999,0 171.99998,18 255.99998,97 186,175.00003 133,488.00013 -101,594.00013 -71.99998,33 -193.99998,42 -261.99998,20 z"
         id="path3"
         style="fill:#2a55c8;fill-opacity:1" /><path
         d="m 899.36134,351.10294 c 291.87896,28.35614 507.02776,135.65734 631.53736,404.4213 53.9812,114.38118 42.1857,103.28577 58.7253,142.85116 C 1564.2703,860.32988 1444.1553,737.16268 1437.893,740.47918 1269.6801,602.3546 1103.8756,547.74739 895.38816,562.60071 702.34416,576.35383 555.82065,655.8692 434.26544,813.3094 c -189.93001,246.0004 -186.25244,575.18 9.08723,856.1669 l 66.80348,96.1987 -81.19128,-71.2624 C 335.66306,1612.0571 241.9401,1484.5664 196.48711,1374.891 155.42283,1276.8586 127.67282,1087.5469 137.68368,983.21917 167.15873,683.55883 372.45516,444.43415 665.13464,367.79007 750.22817,345.78698 802.99348,342.0278 899.36134,351.10294 Z"
         id="path6"
         style="fill:#f49f1c;fill-opacity:1;stroke-width:1.30751"
         sodipodi:nodetypes="ccccssccccccc" /></g></g></svg>
